<?xml version="1.0" encoding="utf-8"?>
<!-- Generator: Adobe Illustrator 26.3.1, SVG Export Plug-In . SVG Version: 6.00 Build 0)  -->
<svg version="1.1" xmlns="http://www.w3.org/2000/svg" xmlns:xlink="http://www.w3.org/1999/xlink" x="0px" y="0px"
	 viewBox="0 0 609.4 141.7" style="enable-background:new 0 0 609.4 141.7;" xml:space="preserve">
<style type="text/css">
	.st0{fill:none;stroke:#231815;stroke-width:3.1424;stroke-linecap:round;stroke-linejoin:round;stroke-miterlimit:10;}
	.st1{fill:#231815;}
</style>
<g id="レイヤー_1">
	<g>
		<g>
			<path d="M159.4,68.4c0,0.2,0,0.4,0,0.5c1.3,0.3,2.2,1.2,2.7,2.6c0.8,2.1,1.2,6.6,1.2,13.5c0,1.2-0.4,1.8-1.1,1.8
				c-0.7,0-1.1-0.5-1.1-1.5c0-6.8-0.3-11.1-1-12.7c-0.2-0.7-0.4-1.2-0.8-1.5c0,0.6,0,1.2,0,1.9c0,4.6,0,9.1,0.1,13.5
				c0,0.8-0.4,1.2-1.3,1.2c-0.6,0-1-0.7-1.1-2.1c0-4.3,0-8.6,0-13c0-0.4,0-0.8,0-1.2c-0.2,0.3-0.5,0.8-0.7,1.5
				c-0.6,2.9-0.8,6.9-0.8,12.2c0,1.2-0.4,1.9-1.2,1.9c-0.7-0.1-1-0.7-1-1.9c0.1-6.3,0.4-10.5,1-12.8c0.7-1.9,1.6-3,2.8-3.4
				c0-0.2,0-0.3,0-0.5c-2.4-0.4-3.7-2-4-4.8c0.1-0.7,0.5-1,1.1-1.1c0.7,0,1.1,0.4,1.2,1.1c0.2,1.4,0.8,2.3,1.7,2.7
				c0-1.5-0.1-2.8-0.1-4c0-0.8,0.4-1.3,1.3-1.5c0.8,0.2,1.3,0.7,1.3,1.5c0,1.4,0,2.7,0,4.1c0.8-0.4,1.4-1.4,1.6-2.8
				c0.3-0.7,0.7-1,1.3-1c0.6,0.2,0.9,0.5,0.9,1.1c0,1-0.4,2.1-1.2,3.2C161.4,67.7,160.5,68.2,159.4,68.4z M168.7,66.8h-3.2
				c-0.9,0-1.4-0.6-1.4-1.9c0-0.7,0.4-1.7,1.2-2.8c0.2-0.3,0.5-0.4,1-0.5c0.7,0,1.1,0.3,1.1,0.9c-0.2,0.7-0.6,1.3-1,1.9
				c0,0.4,0.1,0.5,0.4,0.5h1.9c0-0.9-0.1-1.7-0.1-2.5c0-0.8,0.4-1.3,1.2-1.5c0.8,0.2,1.2,0.7,1.2,1.5c0,0.8,0,1.6,0,2.5l3-0.1
				c0.4,0.2,0.7,0.5,0.7,1c0,0.7-0.3,1-1,1.1h-2.9c0,0.5,0,1,0,1.5c1.5,0,2.8,0,3.8,0.1c0.8,0.1,1.2,0.4,1.2,1
				c0,0.6-0.4,0.9-1.1,0.9c-0.3,0-1,0-2.3-0.1c-0.5,0-1,0-1.6,0c0,0.4,0,0.8,0,1.2c1.5,0.2,2.6,1,3.2,2.2c0.8,1.8,1.3,5.7,1.3,11.5
				c0,1.2-0.4,1.9-1.1,1.9c-0.7,0-1.1-0.5-1.1-1.5c0-5.7-0.4-9.2-1.1-10.6c-0.2-0.6-0.6-1.1-1.2-1.5c0,4.4,0,8.7,0.1,12.9
				c0,0.7-0.4,1.1-1.2,1.1c-0.6,0-0.9-0.7-1-2c0-3.9,0-7.9,0-11.9c-0.4,0.4-0.8,0.8-1.2,1.5c-0.7,2.4-1,5.7-1,10
				c0,1.2-0.4,1.8-1.2,1.8c-0.7-0.1-1-0.7-1-1.8c0.1-5.3,0.5-8.9,1.1-10.8c0.8-1.6,1.9-2.6,3.2-3c0-0.4,0-0.7,0-1.1
				c-0.5,0-1.1,0-1.9,0.1c-1.1,0.1-1.7,0.2-2.1,0.2c-0.6,0-0.9-0.3-1-1c0-0.6,0.5-0.9,1.5-1c1.2-0.2,2.3-0.3,3.4-0.3
				C168.7,67.8,168.7,67.3,168.7,66.8z"/>
			<path d="M204,69.4c0,0.1,0,0.2,0,0.2c0.4,7.2,2.9,12.7,7.5,16.6c0.2,0.3,0.3,0.5,0.3,0.6c0,0.7-0.4,1.1-1.2,1.1
				c-1,0-2.6-1.5-4.8-4.5c-2.4-4-3.8-8.6-4-13.9v-0.1c-0.3,0-0.7,0-1,0c-1,0-2.9,0.1-5.8,0.2c-2,0.1-3.3,0.2-3.9,0.2
				c-0.7,0-1.1-0.3-1.2-1c0-0.7,0.6-1,1.7-1.1c3.1-0.2,6.1-0.2,8.8-0.2c0.5,0,1,0,1.5,0c0.1-2.6,0.1-4.5,0.1-5.7
				c0.3-0.5,0.6-0.7,1-0.7c1,0,1.5,0.4,1.5,1.2c-0.1,0.7-0.2,1.3-0.2,1.9c1.8,0,2.7-0.2,2.8-0.6c0.2-0.2,0.3-0.7,0.3-1.7
				c0-0.5,0.3-0.8,1-1c0.9,0,1.4,0.3,1.4,1l-0.1,2.1c0,1.4-1.8,2.1-5.3,2.1c0,0-0.1,0-0.2,0c0,0.4,0,0.8-0.1,1.4c2.2,0,4,0,5.5,0.1
				c0.9,0.1,1.3,0.5,1.3,1.1c0,0.6-0.4,1-1.2,1c-0.4,0-1.8-0.1-4.1-0.2C205,69.4,204.5,69.4,204,69.4z M197.1,74c0,0.9,0,1.8,0,2.7
				c0,0.9,0,1.9,0,2.8c0.9,0,1.9,0,2.9,0c0.8,0.2,1.2,0.5,1.2,1.1c0,0.6-0.4,0.8-1.2,0.8c-3.3,0-6.1,0.1-8.6,0.3
				c-0.6,0-0.9-0.4-1-1.1c0-0.4,0.6-0.8,1.7-1c0.6,0,1.5,0,2.7,0c0.1-0.9,0.2-1.9,0.2-3c0-0.9-0.1-1.8-0.2-2.7
				c-1.1,0.1-2.1,0.1-3,0.1c-0.6,0-0.9-0.4-0.9-1.1c0-0.4,0.5-0.8,1.6-1c1.1,0,3.4,0,6.8,0c0.8,0.2,1.2,0.5,1.2,1c0,0.7-0.4,1-1.2,1
				C198.6,74,197.9,74,197.1,74z"/>
			<path d="M231.4,71c0.3-0.2,0.6-0.3,1.2-0.4c1.4,0,4.2,0,8.3,0c0.8,0.1,1.1,0.4,1.1,1c0,0.6-0.4,0.9-1.1,0.9c-3.4,0-6.4,0-8.9,0.1
				c-0.5,0-0.9-0.4-0.9-1.1c-0.2,0.2-0.3,0.5-0.5,0.7c-1.3,1.9-2.1,2.9-2.5,2.9c-0.8,0-1.2-0.3-1.2-1c0.1-0.4,0.9-1.6,2.3-3.6
				c1.5-2,3.7-5.1,6.6-9.1c0.2-0.2,0.5-0.4,0.8-0.6c0.4,0,0.7,0.2,0.9,0.5c2.1,2.9,4.5,5.9,7.1,9.2c1.5,1.8,2.3,3,2.3,3.7
				c0,0.7-0.4,1-1.1,1c-0.5,0-1.5-1-2.7-2.9c-2.8-3.8-5-6.7-6.4-8.6C235.3,65.4,233.6,67.8,231.4,71z M237.3,76.5v0.1
				c0,1.1-0.2,2-0.5,2.7c-0.4,1-1.3,1.7-2.5,2.1c-0.6,0.4-0.9,0.9-0.9,1.5c0,1.6,1.1,2.3,3.3,2.3c2,0,3-0.8,3.1-2.3
				c0-0.8-0.4-1.4-1.2-1.7c-0.7-0.2-1-0.5-1.1-0.9c0.2-0.6,0.6-0.9,1.2-1c2.4,0.3,3.6,1.6,3.6,3.7c0,2.8-1.9,4.2-5.7,4.2
				c-4,0-6-1.4-6-4.2c0-1,0.4-1.8,1.1-2.2c0.6-0.5,1.3-0.9,2.1-1.2c0.8-0.4,1.1-1.2,1.1-2.3c0-0.3,0-0.5-0.1-0.7l0-0.1
				c-1.5,0-2.8,0-4.1,0.1c-0.6,0-0.9-0.4-1-1.1c0-0.5,0.6-0.8,1.7-1c1.8-0.1,5.2-0.1,10.5-0.1c0.8,0.1,1.2,0.5,1.2,1.1
				c0,0.6-0.4,0.8-1.2,0.8C240.3,76.3,238.8,76.4,237.3,76.5z"/>
		</g>
		<g>
			<path d="M263.4,64.2c2,0.2,3,0.9,3,2.3c0,1.8-0.6,2.7-1.7,3c-0.5,0.1-1,0.3-1.5,0.5c0.1,9.1,0.2,14.6,0.3,16.7
				c0,0.8-0.4,1.1-1.3,1.1c-0.7,0-1.1-0.5-1.1-1.4c0-1,0.1-5.9,0.1-14.7c-0.1,0.1-0.2,0.2-0.3,0.3c-0.5,0.9-0.8,2.6-0.9,5
				c-0.2,2.6-0.5,4.8-1,6.7c-0.2,0.5-0.7,0.7-1.3,0.7c-0.5,0-0.7-0.2-0.7-0.7c0.5-1.4,0.9-3.6,1.1-6.7c0.2-3.3,0.6-5.3,1.1-6.1
				c1-1.2,2.1-2,3.3-2.4c0.9-0.2,1.4-0.8,1.4-1.8c0-0.5-0.3-0.7-0.9-0.7c-1.2,0.1-2.6,0.2-4.2,0.5c-0.7,0-1.1-0.4-1.1-1.1
				c0.1-0.4,0.4-0.7,1-0.8c0.8-0.2,1.6-0.3,2.4-0.4c0-0.8-0.1-1.6-0.1-2.5c0-0.5,0.4-0.8,1-1c0.5,0,0.9,0.1,1.3,0.4
				C263.3,61.7,263.4,62.7,263.4,64.2z M265.1,71c0.7,0,1,0.3,1,0.8c0,0.4,0,0.8,0,1.4c0.2,2.4,0.6,4.6,1.1,6.7
				c0,0.6-0.3,0.9-0.9,0.9c-0.5,0-0.9-0.2-1.2-0.5c-0.5-2.1-0.8-4.5-1-7.1c0-0.2,0-0.6,0.1-1.4C264.4,71.3,264.7,71.1,265.1,71z
				 M272.1,71.4c0-3.2,0-6.5,0-9.8c0.1-0.4,0.4-0.6,1-0.7c0.8,0,1.2,0.3,1.2,0.8c0,3.2,0,6.4,0,9.7c0.8,0,1.8,0,2.8,0.1
				c0.8,0.2,1.2,0.5,1.2,1c0,0.6-0.4,0.8-1.2,0.8c-0.8,0-1.8,0-2.8,0c0,2.6,0,5.2,0,7.8c1.2,0,2.5,0,4,0c0.8,0.1,1.1,0.5,1.1,1
				c0,0.6-0.4,0.9-1.1,1c-3.9,0-7.2,0-10.1,0.1c-0.6,0-0.9-0.4-1-1.1c0-0.5,0.5-0.8,1.7-1c0.8,0,1.9,0,3.3,0c0-2.7,0-5.3,0-7.8
				c-0.8,0-1.8,0-2.8,0.1c-0.8,0-1.2-0.3-1.3-1c0-0.4,0.4-0.6,1.1-0.9C269.7,71.6,270.7,71.5,272.1,71.4z"/>
		</g>
		<g>
			<path d="M295.7,67c0,14.4,0.2,25.1,0.5,32.3c0,1.6-0.8,2.3-2.5,2.3c-1.3,0-2-1.3-2.2-3.9c0-8.3,0-16.5,0-24.8
				c-0.4,0.6-0.7,1.1-1.1,1.6c-1.4,1.5-2.4,2.3-3.1,2.3c-1.4,0-2.2-0.6-2.3-1.8c0.1-0.8,0.5-1.7,1.3-2.6c1.3-1.2,2.6-2.9,3.9-4.9
				c3-4.4,4.5-7.4,4.5-9c0-1.2-1.1-2.7-3.3-4.2c-1.1-0.7-1.6-1.5-1.6-2.3c0.5-1.1,1.3-1.6,2.3-1.6c1.2,0.2,2.7,1.1,4.6,2.8
				c2,1.8,3,3.6,3,5.3c0,1.6-1.2,4.3-3.7,8.2C295.9,66.9,295.8,67,295.7,67z M305.9,66.3c-1.2,0-2.6,0.1-4.1,0.2
				c-1.6,0-2.5-0.7-2.7-2.1c0-0.6,0.7-1.1,2.1-1.6c1.5-0.2,3.5-0.3,6.1-0.5c0.7-1.7,1-3.1,1-4c0-2.3-1.3-3.5-3.8-3.7
				c-1.6,0-2.4-0.7-2.4-2.1c0.5-1,1.4-1.5,2.7-1.7c2.7,0,4.6,0.6,5.8,1.9c1.4,1.4,2.1,3.3,2.1,5.6c0,1.1-0.2,2.5-0.7,4
				c2.9,0,6.6,0.1,10.9,0.2c1.6,0.3,2.5,0.9,2.5,1.8c0,1.2-0.8,1.9-2.5,1.9c-3,0-6.6-0.1-11-0.2c-0.5,0-1.1,0-1.7,0
				c0,0.2-0.1,0.2-0.1,0.2c-1.5,3.7-2.3,7.5-2.5,11.3c0,3.9-0.4,7.6-1.1,11.2c-1,5.8-2.2,9.4-3.7,10.8c-0.3,0.6-1.1,0.9-2.3,0.9
				c-1.2,0-1.8-0.5-1.8-1.5c0.2-0.9,0.9-2.7,2.2-5.4c1.6-4,2.4-9,2.4-15C303.8,74,304.6,69.8,305.9,66.3z M314.5,78
				c-1.1,0.2-2.4,0.3-3.9,0.5c-1.5,0-2.3-0.7-2.5-2.2c0-0.4,0.7-0.9,2-1.3c1.2-0.2,3.2-0.3,6-0.5c1.7,0,3.8,0.1,6.3,0.2
				c1.5,0.3,2.3,0.8,2.3,1.6c0,1.3-0.8,1.9-2.3,1.9c-1.1,0-2.3,0-3.6,0c0,1.6,0,3.2,0,4.9c0,1.6,0,3.3,0.1,5.1c1.5,0,3.2,0,5,0
				c1.4,0.3,2.1,0.9,2.1,1.9c0,1.1-0.7,1.7-2.1,1.9c-5.7,0-10.7,0.2-14.9,0.5c-1.1,0-1.7-0.8-1.8-2.3c0-0.8,1-1.4,3.1-1.6
				c1-0.2,2.5-0.2,4.4-0.2c0.2-1.6,0.3-3.3,0.3-5.1C314.9,81.5,314.7,79.7,314.5,78z"/>
			<path d="M375.2,68.6c0.2-0.2,0.5-0.3,0.7-0.4c2.1-1.4,3.2-3.3,3.2-5.6c0-0.7-2.1-1.2-6.2-1.7c-0.7,1.6-2,3.1-3.9,4.5
				c-3.8,2.3-7.4,3.5-10.7,3.5c-1.4,0-2.2-0.8-2.4-2.3c0.2-0.4,1.4-0.9,3.6-1.3c2-0.5,3.9-1.3,5.7-2.3c2.4-1.7,3.5-3.7,3.5-5.9
				c0-0.7-0.3-1.8-0.8-3.3c0.2-1.4,1.2-2.1,3.1-2.1c1.1,0,2,0.8,2.5,2.3l0.1,3.3c7.1,1.2,10.7,3,10.7,5.4c0,2.3-1.1,4.5-3.4,6.7
				c-0.8,1-1.7,1.7-2.5,2.1c0.4,0.7,0.6,1.4,0.6,2.1c-0.5,2.4-0.7,5-0.7,7.7c0.1,4.1,0.6,7.9,1.5,11.5c1,2.8,1.5,4.5,1.5,5.1
				c-0.1,1.1-0.9,1.6-2.5,1.6c-1.4,0-2.3-1-2.7-3.1c-1.7-4.8-2.6-9.8-2.6-15c0.3-1.9,0.5-4,0.5-6.5c0-3-2.6-4.4-7.7-4.4
				c-0.8-0.2-1.1-0.9-1.1-2.3c0.5-0.8,1.4-1.2,2.7-1.2C370.9,67.3,373.4,67.9,375.2,68.6z"/>
			<path d="M436,61.1c0-3.1-0.1-5.8-0.3-8.1c0-1.4,0.8-2.4,2.5-2.8c1.6,0.3,2.4,1.2,2.4,2.8c0,2.8,0,5.5,0,8.1
				c5.4-0.4,9.6-3.1,12.7-7.9c0.5-0.6,1.2-0.9,1.9-0.9c1.2,0.2,1.7,0.8,1.7,1.8c0,1.7-1.6,3.9-4.7,6.6c-3,2.3-6.9,3.6-11.7,4
				c0,0.3,0,0.6,0,0.9c9.9,1.4,15.3,12,16.2,31.8c0,1.6-0.7,2.3-2.1,2.3c-1.5,0-2.3-0.7-2.5-2.1c-1.1-17.2-5-26.6-11.6-28.1
				c0,1.2-0.1,2.5-0.1,3.7c0,8.5,0,17,0.1,25.5c0,1.4-0.8,2.2-2.4,2.2c-1.2,0-1.9-1.2-2.1-3.7c0-8.3,0-16.5,0-24.6c0-1,0-1.9,0-2.8
				c-6.7,2.3-10.7,11.5-11.9,27.6c0,1.4-0.9,2.1-2.6,2.1c-1.2-0.2-1.8-1-1.8-2.3c1.6-19.1,7-29.5,16.3-31.4c0-0.5-0.1-0.9-0.1-1.2
				c-4.5-0.4-8.3-1.8-11.2-4.2c-3.2-2.8-4.8-5.2-4.8-7.1c0.1-1.1,0.7-1.7,1.9-1.9c0.8,0,1.3,0.3,1.7,0.8
				C427.3,57.4,431.4,60.4,436,61.1z"/>
			<path d="M495.8,48.9c1.7,0,2.6,0.6,2.6,1.9c0,4.6-0.1,7.2-0.3,8c-0.1,1-0.5,1.8-1.2,2.3c-0.7,0.7-1.7,1.2-2.9,1.5
				c-1.3,0.5-2.3,0.9-2.9,1.3c-0.6,0.7-0.9,1.4-0.9,2.3c0,8.4-0.6,13.5-1.8,15.2c-0.3,1.3-1.1,1.9-2.5,1.9c-1.2,0-1.9-0.6-1.9-1.7
				c0.1-0.5,0.4-1.2,0.9-2c0.5-0.9,0.8-2,0.9-3.1c0.4-2.6,0.6-6,0.6-10.3c0.1-2.5,1.4-4.1,3.8-4.9c2.2-0.7,3.4-1.6,3.4-2.6
				c0.2-0.9,0.3-3.6,0.3-8C493.9,49.9,494.5,49.2,495.8,48.9z M502.3,95.1c0-1.4,0-2.8,0-4.2c-1.9,0-4.1,0.1-6.5,0.4
				c-1.6,0-2.5-0.7-2.7-2.1c0-0.6,0.7-1.1,2.1-1.6c1.6-0.2,3.9-0.3,7-0.5c0-1.7,0-3.4,0-4.9c0.2-0.9,0.9-1.5,2.1-1.6
				c1.6,0,2.4,0.6,2.4,1.9c0,1.6,0,3.1,0,4.7c1.9,0,4.1,0.1,6.7,0.2c1.6,0.3,2.4,0.9,2.4,1.8c0,1.2-0.8,1.9-2.4,1.9
				c-2,0-4.2-0.1-6.7-0.2c0,1.4,0,2.8,0,4.2c5.3,0,10.5,0.2,15.6,0.7c1.2,0.2,1.9,0.7,2.2,1.6c0,1.4-0.7,2.1-2,2.1
				c-1.2,0-2.9-0.1-5-0.3c-3.7-0.3-7.7-0.5-12.1-0.5c-3.4,0-7.2,0.1-11.3,0.2c-3.8,0.4-6.3,0.5-7.5,0.5c-1.2,0-1.8-0.6-1.9-1.9
				c0-1.6,1.1-2.3,3.2-2.3C492.8,95.2,497.5,95.1,502.3,95.1z M489.4,50.4c1.4,0,2.2,0.7,2.3,2.1c0,1.4-0.1,2.6-0.3,3.7
				c-0.1,1-0.2,1.7-0.4,2.1c0,0.5-0.1,0.7-0.3,0.7c-0.6,0.7-1.4,1-2.4,1c-0.9-0.2-1.4-0.8-1.4-1.9c0-0.2,0.1-0.4,0.2-0.7
				c0.1-0.5,0.2-1,0.3-1.5c0.2-1.2,0.3-2.6,0.3-3.9C488.2,50.9,488.7,50.4,489.4,50.4z M494.4,65.6c1.6,0,2.4,0.7,2.5,2.1
				c0,3.1-0.1,5.8-0.3,8c-0.1,1.7-0.2,3.2-0.3,4.4c-0.1,0.7-0.2,1.2-0.3,1.3c-0.6,0.7-1.4,1-2.4,1c-0.9-0.2-1.4-0.8-1.4-1.9
				c0-0.3,0.1-0.9,0.1-1.7c0.1-0.7,0.1-1.7,0.1-2.8c0.1-3,0.2-5.9,0.2-8.8C493.2,66.2,493.7,65.6,494.4,65.6z M519.3,59.8
				c-0.2,0.9-0.9,1.3-2.3,1.3c-1,0-2.1,0-3.4,0c0,0.8,0.1,1.6,0.1,2.3c2.4,0,5.2,0,8.3,0c1.4,0.2,2.1,0.8,2.1,1.9
				c0,0.9-0.7,1.4-2.1,1.6c-2.8,0-5.6,0-8.2,0c0.1,7.2,0.3,11.8,0.4,13.8c0,1.6-0.9,2.3-2.6,2.3c-1.3,0-2-0.9-2-2.8
				c0.1-1,0.1-5.3,0.1-13.1c-3.1,0-5.9,0.2-8.5,0.5c-1,0-1.6-0.7-1.8-2.1c0-0.8,1-1.4,2.9-1.7c1.7-0.2,4.2-0.3,7.4-0.5
				c0-0.7,0-1.5,0-2.3c-1,0-2.1,0.1-3.3,0.2c-1.2,0-2-0.4-2.4-1.3c-0.1,0.2-0.3,0.3-0.4,0.5c-1.7,1.4-2.9,2.1-3.4,2.1
				c-1.4,0-2.1-0.6-2.1-1.7c0.1-0.3,1.2-1.3,3.2-3c2-1.9,4.9-4.6,8.9-8.2c0.3-0.5,0.8-0.8,1.3-1c0.7,0,1.2,0.3,1.5,1
				c2.8,2.5,6,5.1,9.5,8c2,1.6,2.9,2.6,2.9,3.2c0,1.1-0.6,1.7-1.8,1.7c-0.8,0-2-0.7-3.7-2.1C519.8,60.1,519.6,59.9,519.3,59.8z
				 M506.3,68.8c1.2,0,1.8,0.6,1.8,1.9c0,1.1-0.4,2.7-1.3,4.7c-0.8,1.9-1.6,3.2-2.4,3.9c-0.6,0.7-1.4,1-2.4,1
				c-1.1,0-1.7-0.6-1.9-1.7c0-0.3,0.5-1.1,1.6-2.3c0.7-0.9,1.2-2,1.7-3.5c0.4-1,0.6-1.9,0.7-2.8C504.4,69.2,505.1,68.8,506.3,68.8z
				 M507.1,57.6c1-0.2,2.4-0.2,4.3-0.2c1.4,0,3.2,0.1,5.3,0.2c-2-1.7-3.7-3.1-5-4C510.5,54.7,509,56.1,507.1,57.6z M517.1,68.8
				c1.1,0,1.9,0.4,2.3,1.2c0.9,2.5,1.8,4.6,2.9,6.5c0.7,1.1,1,1.9,1.1,2.3c0,1.1-0.6,1.7-1.9,1.7c-0.8,0-1.6-0.2-2.2-0.7
				c-0.7-0.9-1.6-2.9-2.9-5.9c-0.6-1.7-0.9-2.8-1-3.2C515.3,69.6,515.9,69,517.1,68.8z"/>
			<path d="M563.5,77.1c0.3,0.2,0.6,0.5,0.9,0.9c0.8,0.9,1.1,1.8,1.1,2.6c0,1.2-0.9,2.6-2.8,4v6.5c0,0.8,0.3,1.2,0.8,1.2
				c0.4,0,1.1-0.2,2.1-0.5c2-0.7,3.1-1.2,3.4-1.3c1.2,0.2,1.9,0.7,1.9,1.6c0,1.1-0.6,1.7-1.7,2c-1,0.5-2.3,1-3.9,1.5
				c-1.6,0.4-3,0.6-4.2,0.6c-1.7,0-2.6-0.9-2.6-2.8v-6.3c-2.5,1.4-4.2,2-5.1,2c-1.2,0-1.9-0.6-1.9-1.8c0.1-0.8,0.9-1.4,2.4-1.9
				c4.6-2.2,6.9-3.9,6.9-5.2c0-0.5-0.2-0.9-0.4-1.2c-0.4-0.4-0.6-0.8-0.6-1.1c0-0.2,0.1-0.2,0.1-0.2c-0.4,0-0.9,0.1-1.3,0.2
				c-3.4,0.6-5.6,0.9-6.5,0.9c-1.2,0-2-0.8-2.2-2.3c0-0.3,1.5-0.8,4.5-1.3c8.9-1.7,13.4-2.7,13.4-2.8c0.7,0,1-0.9,1-2.6
				c0.5-0.8,1.2-1.2,2-1.2c1.3,0,2,0.5,2.1,1.5c0.1,1.4,0.5,2.2,1.3,2.3c0.8,0.3,5.1,1.2,13.1,2.8c3.2,0.5,4.8,0.9,4.8,1.3
				c0,1.4-0.7,2.1-2,2.1c-0.9,0-3.6-0.4-8.1-1.1c-0.5,0-1.1-0.1-1.7-0.2c-0.1,0.6-0.6,1.4-1.5,2.3c1.5,0.8,2.2,1.7,2.2,2.8
				c0,0.7-0.1,1.4-0.4,2.1c-0.8,1.2-1.3,2.2-1.5,3c0,1.6,1.2,3.3,3.5,5.2c2.1,1.9,4.6,3.4,7.3,4.7c1.6,0.8,2.5,1.6,2.5,2.3
				c0,1.1-0.8,1.6-2.3,1.6c-1.1,0-3.8-1.4-8-4.2c-4.5-3.1-6.9-6.2-7.1-9.1c0.1-1,0.4-1.8,0.9-2.6c0.4-0.8,0.6-1.6,0.6-2.3
				c0-0.2-0.3-0.5-0.9-0.9c-1.9,1.1-3.2,1.6-4.1,1.6c-1,0-1.8-0.7-2.2-2.1c0-0.2,0.2-0.4,0.6-0.7c0.6-0.1,1.2-0.3,1.6-0.6
				c2.2-1.1,3.9-2.4,5.1-3.8c-1.9-0.3-3.7-0.6-5.4-0.9C569,76,566.5,76.4,563.5,77.1z M553.6,53.2c0.7,0,1.8,0.5,3.3,1.6
				c1.9,1.4,2.9,2.3,2.9,2.8c0,0.9-0.6,1.4-1.7,1.6c-0.4,0-1.6-0.4-3.5-1.3c-2.1-1.3-3.2-2.1-3.3-2.6
				C551.3,54.2,552.1,53.5,553.6,53.2z M558.1,62.1c1.3,0,2,0.5,2,1.6c0,0.3-0.1,0.6-0.2,1c-0.2,0.3-0.4,0.6-0.6,0.9
				c-0.5,0.4-1.1,0.9-1.8,1.4c-1.6,1.1-2.6,1.6-3,1.6c-2,0-3.1-0.8-3.3-2.3c0-0.4,0.7-0.9,2.1-1.3c1.2-0.5,2.4-1.1,3.4-1.9
				C557.3,62.4,557.7,62.1,558.1,62.1z M562.8,49.4c1.6,0.2,2.5,1.1,2.5,2.9c0,2.2,0,4.4-0.1,6.7c0,3.6,0,7.2,0.1,10.8
				c0,1.4-0.8,2-2.5,2c-1.1,0-1.8-1.2-2-3.7c0-2.7,0-5.3,0-8c0-3.4-0.1-6.1-0.4-8C560.4,50.9,561.2,49.9,562.8,49.4z M577,55.1
				c0-1.2,0-2.5,0-3.8c0.2-0.7,0.9-1.2,1.9-1.3c1.5,0,2.2,0.5,2.2,1.6c0,1.1,0,2.3,0,3.6c3,0,5.5,0.1,7.5,0.2
				c1.6,0.2,2.4,0.8,2.4,1.9c0,1.2-0.7,1.8-2.1,1.8c-0.5,0-2-0.2-4.5-0.5c-1.1,0-2.1,0-3.2,0c0,1.7,0,3.4,0,5.2c1.6,0,3,0.2,4.1,0.5
				c1.6,0,2.3,0.6,2.3,1.7c0,1.2-0.7,1.9-2.1,1.9c-0.4,0-1.4-0.2-3.3-0.5c-1.3,0-2.6,0-3.8,0c-0.7,0-2,0.2-4,0.5
				c-1.4,0.2-2.3,0.3-2.7,0.5c-1.2,0-1.8-0.7-2-2.2c0-1.1,1-1.7,3-1.9c1.5-0.2,2.9-0.3,4.3-0.5c0-1.7,0-3.4,0-4.9
				c-1,0-2.3,0.1-3.9,0.2c-2.1,0.2-3.4,0.2-4.1,0.2c-1.2,0-1.9-0.6-2.1-1.8c0-1.1,1-1.7,3.1-1.9C572.5,55.2,574.8,55.1,577,55.1z"/>
		</g>
		<g>
			<path d="M231.1,28.8c-0.2,0.5-0.5,1-1.1,1.9l0.4,0.2c0.1,0,0.2,0.1,0.2,0.2c0,0.1-0.1,0.2-0.2,0.2c-0.1,0.1-0.2,0.2-0.4,0.3
				c0,0.7,0,5.7,0.1,6.2c0,0.4,0.1,2.3,0.1,2.5c0,0.3,0,1.1-1.2,1.1c-0.9,0-0.9-0.4-0.9-0.8c0-0.4,0.1-2.4,0.1-2.8
				c0-1.4,0-1.6,0.1-5.1c-1.2,1.3-2.1,1.9-2.5,2.1l-0.1-0.1c1.9-2.7,3.5-6.2,3.7-7.9l2.3,1.1c0.1,0,0.2,0.1,0.2,0.3
				C232,28.6,231.6,28.7,231.1,28.8z M241.8,40.5h-8.9c-1.3,0-1.7,0.1-2,0.1l-0.3-0.6c0.8,0.1,1.7,0.1,2.6,0.1h2v-4.8h-1.3
				c-1.3,0-1.7,0.1-1.9,0.1l-0.3-0.6c0.9,0.1,1.7,0.1,2.6,0.1h0.9v-4h-1.9c-1.3,0-1.6,0.1-1.9,0.1l-0.3-0.6c0.8,0.1,1.7,0.1,2.5,0.1
				h5.4l0.7-1c0.1-0.1,0.1-0.2,0.3-0.2c0.1,0,0.2,0.1,0.3,0.2l1.5,1.1c0.1,0,0.2,0.1,0.2,0.2c0,0.2-0.2,0.2-0.3,0.2H237v4h1.4
				L239,34c0.1-0.1,0.1-0.2,0.3-0.2s0.3,0.1,0.3,0.2l1.4,0.9c0.1,0,0.2,0.1,0.2,0.2c0,0.2-0.2,0.2-0.3,0.2h-4v4.8h2.1l0.8-1.1
				c0.1-0.1,0.1-0.2,0.3-0.2c0.1,0,0.2,0.1,0.3,0.2l1.3,1.1c0.1,0.1,0.2,0.1,0.2,0.2C242,40.5,241.9,40.5,241.8,40.5z M236.2,30.2
				c-0.6,0-0.7-0.2-1.1-1.2c-0.5-1.2-0.9-1.7-1.1-1.9l0.1-0.1c1.2,0.3,3.2,0.9,3.2,2.1C237.3,29.9,236.8,30.2,236.2,30.2z"/>
			<path d="M259.6,30.4c-0.5,0.2-2.3,0.6-4.1,0.9c-0.1,0.8-0.1,1-0.1,1.9c0.4-0.1,2.1-0.6,2.3-0.6c0.5,0,1.3,0.2,1.3,0.7
				c0,0.3-0.3,0.4-0.4,0.5c-0.3,0.1-1.5,0.4-3.1,0.6c0.1,1.1,0.1,1.9,0.4,2.9c2.8,0.4,4,1.4,4,2.2c0,0.4-0.3,0.8-0.8,0.8
				c-0.3,0-0.7-0.2-1-0.4c-1.1-0.7-1.4-0.9-2.1-1.1c-0.1,0.7-0.3,2.1-3.3,2.1c-1.8,0-3.2-0.8-3.2-1.9c0-1.4,2.1-2,4.8-1.9
				c-0.1-1-0.2-2.1-0.2-2.5c-0.8,0.1-1.5,0.1-2.3,0.1c-0.4,0-2.1,0-2.1-0.8c0-0.4,0.6-1.1,1.4-1.2c-0.1,0.1-0.3,0.3-0.3,0.5
				c0,0.3,0.5,0.3,1.1,0.3c1.1,0,1.8-0.1,2.2-0.2c0-1,0-1.1,0-1.9c-0.6,0.1-1.7,0.2-2.5,0.2c-0.9,0-2.6,0-3.3-1.7
				c1,0.4,1.5,0.6,2.8,0.6c1,0,2-0.1,3-0.3c0-1.5,0-1.7-0.3-1.9c-0.4-0.3-0.9-0.4-1.4-0.5c0.4-0.4,0.8-0.6,1.4-0.6
				c0.4,0,2.3,0.2,2.3,1.1c0,0.2-0.1,0.2-0.3,0.8c-0.1,0.3-0.2,0.5-0.2,0.8c0.7-0.2,1.6-0.4,2.3-0.7c0.3-0.1,0.4-0.1,0.5-0.1
				c0.6,0,1.4,0.3,1.4,0.8C260,30.2,259.9,30.3,259.6,30.4z M252.4,38.1c-0.4,0-2.1,0.1-2.1,0.9c0,0.4,0.6,0.8,1.8,0.8
				c2.2,0,2.3-0.9,2.3-1.4C253.8,38.2,253.2,38.1,252.4,38.1z"/>
			<path d="M272.3,37.2c-0.1,0.2-0.1,0.3-0.1,0.4c0,0.2,0.2,0.9,0.2,1.1c0,0.4-0.4,0.7-0.9,0.7c-0.9,0-3.4-1.1-3.6-5.5
				c0-0.4-0.1-2-0.1-2.3c-0.1-1.1-0.3-1.4-0.8-2.2c1.3,0.1,2.9,0.8,2.9,2c0,0.2-0.1,0.3-0.1,0.5c-0.2,1-0.4,1.8-0.4,2.6
				c0,1.5,0.8,2.5,1.1,2.5c0.2,0,0.7-0.5,0.9-0.8c0.6-0.7,2-2.4,2.3-2.9l0.1,0C273.8,33.7,272.3,37.1,272.3,37.2z M280.6,36.9
				c-0.3,0-0.4-0.1-1.1-0.8c-0.5-0.5-1.9-0.7-2.3-0.7v-0.1c0.1,0,1.8-0.2,2-0.2c0.1,0,0.3-0.1,0.3-0.4c0-0.3-0.2-1.3-0.9-2.2
				c-0.6-0.9-1.4-1.5-2-1.9c2.3,0,5,2.4,5,4.7C281.6,36.2,281.1,36.9,280.6,36.9z"/>
			<path d="M300.9,33.9c-1.7,0.2-3,0.4-5,1.2c0.1,0.3,0.1,0.7,0.1,1.5c0,0.4,0,1.7-1,1.7c-0.5,0-0.9-0.5-0.9-1.1
				c0-0.2,0.1-1,0.1-1.2v-0.2c-1,0.5-2.5,1.4-2.5,2.3c0,1,1.7,1.1,2.7,1.1c0.9,0,1.8-0.1,2.7-0.3c0.2,0,0.8-0.1,0.9-0.1
				c0.6,0,1.3,0.6,1.3,1c0,0.4-0.3,0.6-0.5,0.6c-0.5,0.1-2.1,0.3-3.2,0.3c-1.1,0-4.9-0.1-4.9-2.1c0-1.6,2.1-3,3.5-3.7
				c-0.1-0.7-0.3-1.5-1.3-1.5c-1.1,0-1.9,0.8-2.4,1.6c-0.2,0.3-0.8,1.2-1,1.3c-0.1,0.1-0.3,0.1-0.4,0.1c-0.6,0-0.7-0.6-0.7-1
				c0-0.6,0.1-0.8,1-1.5c0.9-0.8,1.6-1.7,2.3-2.7c-0.3,0-0.5,0-0.8,0c-1.9,0-2.4-1.1-2.4-1.7c0.6,0.5,1.3,0.7,2.4,0.7
				c0.2,0,0.8,0,1.6-0.1c0.3-0.4,0.9-1.4,0.9-1.7c0-0.3-0.5-0.5-1.4-0.6c0.3-0.3,0.7-0.6,1.7-0.6c1,0,1.9,0.6,1.9,0.9
				c0,0.3-0.1,0.4-0.5,0.8c-0.1,0.1-0.2,0.2-0.8,0.9c0.3-0.1,1.7-0.6,2-0.7c0.2,0,0.3-0.1,0.4-0.1c0.5,0,1.2,0.5,1.2,0.8
				c0,0.3-0.3,0.5-0.6,0.6c-1.1,0.4-2.2,0.6-4,0.8c-0.3,0.4-1.5,1.9-1.7,2.2c0.4-0.2,1-0.4,1.9-0.4c1.6,0,2,0.7,2.2,1.3
				c0.5-0.2,3-1.4,3.1-1.4c0.4-0.2,0.5-0.3,0.5-0.5c0-0.2-0.1-0.2-0.8-0.5c0.1-0.1,0.4-0.2,0.8-0.2c1.1,0,2.4,0.9,2.4,1.7
				C301.6,33.8,301.3,33.8,300.9,33.9z"/>
			<path d="M309.9,41c-0.8,0-1-0.5-1.4-1.4c-0.7-1.6-1.7-2.3-2.2-2.6l0.1-0.2c1.3,0.2,2.5,0.5,3.5,1.2c0.9,0.6,1.2,1.3,1.2,1.8
				C311.1,40.4,310.6,41,309.9,41z"/>
			<path d="M326.1,31.9c-0.3,0.3-0.6,0.6-0.9,1l0.3,0.2c0.2,0.1,0.3,0.2,0.3,0.3c0,0.1-0.1,0.2-0.5,0.4c0,0.2,0,0.5,0,0.7
				c0,0.7,0.1,5.2,0.1,6.2c0,0.4-0.6,0.7-1.2,0.7c-0.6,0-0.7-0.3-0.7-0.6c0-0.2,0.1-1.1,0.1-1.4c0.1-1.8,0.1-4.2,0.1-4.3
				c0-0.3,0-0.6,0-0.8c-1.2,1.1-2,1.5-2.3,1.7l-0.1-0.1c1.1-1.2,3-4,3.3-5.5l1.8,1c0.1,0.1,0.3,0.2,0.3,0.2
				C326.8,31.7,326.6,31.8,326.1,31.9z M326.5,28.5c-0.1,0-0.2,0-0.4,0.1c-0.7,0.6-2.3,2-4.5,2.9l-0.1-0.1c0.6-0.6,2.7-2.7,3.2-4.5
				l1.9,1.1c0.1,0.1,0.2,0.2,0.2,0.3C326.8,28.4,326.7,28.5,326.5,28.5z M327.5,39.8c-0.1,0.2-0.2,0.3-0.4,0.3
				c-0.1,0-0.2-0.1-0.2-0.2l-1-1.9c0.4,0,0.8,0.1,1.1,0.1c0.3,0,1.1-0.1,1.7-0.2v-2.2h-0.3c-1.1,0-1.5,0-2,0.1l-0.3-0.6
				c1.1,0.1,2.4,0.1,2.5,0.1c0-1.4,0-1.7-0.2-2.5c-0.3,0-1.3,0-2,0.1l-0.3-0.6c0.7,0,1.8,0.1,2.5,0.1c0-0.4,0-2,0-2.3
				c-1,0-1.3,0-2,0.1l-0.3-0.6c0.6,0,1.7,0.1,2.3,0.1c0-1.4-0.1-2-0.4-2.9l2.2,0.5c0.1,0,0.4,0.1,0.4,0.2c0,0.1-0.1,0.2-0.2,0.3
				c-0.1,0-0.2,0.2-0.4,0.2c0,0.4,0,1.4,0,1.6h0.4l0.6-0.8c0.1-0.1,0.2-0.2,0.3-0.2c0.1,0,0.3,0.1,0.3,0.2l1.1,0.8
				c0.1,0.1,0.2,0.2,0.2,0.2c0,0.2-0.2,0.2-0.3,0.2h-2.6v2.3h0.6l0.7-0.8c0.1-0.1,0.2-0.2,0.3-0.2c0.1,0,0.2,0,0.3,0.2l1.1,0.8
				c0.1,0.1,0.2,0.2,0.2,0.2c0,0.2-0.2,0.2-0.3,0.2h-4.5l1.8,0.4c0.2,0,0.4,0.1,0.4,0.2c0,0.1-0.1,0.2-0.5,0.5c0,0.1,0,1.3,0,1.4
				h0.6l0.6-0.9c0.1-0.2,0.2-0.2,0.3-0.2c0.1,0,0.1,0,0.3,0.2l1.2,0.9c0.1,0.1,0.2,0.2,0.2,0.3c0,0.1-0.2,0.2-0.3,0.2h-2.9
				c0,0.3,0,1.7,0,2c0.6-0.1,3-0.4,3.5-0.5l0.1,0.1C330.9,38.7,330.2,39,327.5,39.8z M338,32.7h-1.9v3.2c0,0.4,0.1,3.4,0.1,3.5
				c0,1.1-0.4,1.6-2.4,2c-0.2-0.8-0.3-1.3-1.8-2v-0.1c0.5,0.1,0.9,0.1,1.4,0.1c0.9,0,1-0.1,1-0.8c0-0.8,0-5,0-5.9
				c-0.2,0-0.6,0-0.8,0l-0.3-0.5c0.5,0,1,0,1.4,0h1l0.6-0.9c0-0.1,0.2-0.2,0.3-0.2c0.1,0,0.3,0.2,0.5,0.3l0.9,0.8
				c0.1,0.1,0.2,0.1,0.2,0.2C338.3,32.7,338.1,32.7,338,32.7z M337.6,29h-3.5c-0.1,0-0.4,0-0.8,0l-0.3-0.5c0.7,0,1.4,0.1,1.4,0.1h1
				l0.6-0.8c0.1-0.1,0.2-0.2,0.3-0.2c0.1,0,0.3,0.1,0.4,0.2l1.1,0.8c0.1,0.1,0.2,0.2,0.2,0.2C337.9,29,337.7,29,337.6,29z"/>
			<path d="M356.6,33.9c-1.7,0.2-3,0.4-5,1.2c0.1,0.3,0.1,0.7,0.1,1.5c0,0.4,0,1.7-1,1.7c-0.5,0-0.9-0.5-0.9-1.1
				c0-0.2,0.1-1,0.1-1.2v-0.2c-1,0.5-2.5,1.4-2.5,2.3c0,1,1.7,1.1,2.7,1.1c0.9,0,1.8-0.1,2.7-0.3c0.2,0,0.8-0.1,0.9-0.1
				c0.6,0,1.3,0.6,1.3,1c0,0.4-0.3,0.6-0.5,0.6c-0.5,0.1-2.1,0.3-3.2,0.3c-1.1,0-4.9-0.1-4.9-2.1c0-1.6,2.1-3,3.5-3.7
				c-0.1-0.7-0.3-1.5-1.3-1.5c-1.1,0-1.9,0.8-2.4,1.6c-0.2,0.3-0.8,1.2-1,1.3c-0.1,0.1-0.3,0.1-0.4,0.1c-0.6,0-0.7-0.6-0.7-1
				c0-0.6,0.1-0.8,1-1.5c0.9-0.8,1.6-1.7,2.3-2.7c-0.3,0-0.5,0-0.8,0c-1.9,0-2.4-1.1-2.4-1.7c0.6,0.5,1.3,0.7,2.4,0.7
				c0.2,0,0.8,0,1.6-0.1c0.3-0.4,0.9-1.4,0.9-1.7c0-0.3-0.5-0.5-1.4-0.6c0.3-0.3,0.7-0.6,1.7-0.6c1,0,1.9,0.6,1.9,0.9
				c0,0.3-0.1,0.4-0.5,0.8c-0.1,0.1-0.2,0.2-0.8,0.9c0.3-0.1,1.7-0.6,2-0.7c0.2,0,0.3-0.1,0.4-0.1c0.5,0,1.2,0.5,1.2,0.8
				c0,0.3-0.3,0.5-0.6,0.6c-1.1,0.4-2.2,0.6-4,0.8c-0.3,0.4-1.5,1.9-1.7,2.2c0.4-0.2,1-0.4,1.9-0.4c1.6,0,2,0.7,2.2,1.3
				c0.5-0.2,3-1.4,3.1-1.4c0.4-0.2,0.5-0.3,0.5-0.5c0-0.2-0.1-0.2-0.8-0.5c0.1-0.1,0.4-0.2,0.8-0.2c1.1,0,2.4,0.9,2.4,1.7
				C357.3,33.8,357,33.8,356.6,33.9z"/>
			<path d="M365.6,41c-0.8,0-1-0.5-1.4-1.4c-0.7-1.6-1.7-2.3-2.2-2.6l0.1-0.2c1.3,0.2,2.5,0.5,3.5,1.2c0.9,0.6,1.2,1.3,1.2,1.8
				C366.8,40.4,366.3,41,365.6,41z"/>
			<path d="M392.3,41.2c-3.1-0.5-5.2-2.1-6.2-4.6H386c-1.2,3-4.3,4.4-8,4.5v-0.1c2.6-0.4,5.3-2.3,6-4.4h-4c-1.2,0-1.6,0-1.9,0.1
				l-0.3-0.6c0.8,0.1,1.7,0.1,2.5,0.1h3.8c0.2-0.8,0.3-1.6,0.2-2.1h-4.5c-1.2,0-1.6,0-1.9,0.1l-0.3-0.6c0.8,0.1,1.7,0.1,2.5,0.1h4.3
				v-1.9h-2.8c-1.3,0-1.6,0-1.9,0.1l-0.3-0.6c0.8,0.1,1.7,0.1,2.6,0.1h2.5v-1.6h-3.9c-1.2,0-1.6,0-1.9,0.1l-0.3-0.6
				c0.8,0.1,1.7,0.1,2.5,0.1h1.8c-0.2-0.1-0.2-0.2-0.5-0.8c-0.3-0.7-0.7-1.3-1.4-1.7l0-0.1c0.8,0.1,3.5,0.3,3.5,1.8
				c0,0.1,0,0.5-0.4,0.8h2.4c0.1-0.1,0.9-1.6,1-2.9l2.2,1c0.2,0.1,0.2,0.2,0.2,0.3c0,0.3-0.2,0.3-0.7,0.3c-0.7,0.5-0.8,0.5-2.1,1.3
				h3.3l0.8-1.1c0.1-0.1,0.2-0.2,0.3-0.2c0.1,0,0.3,0.1,0.3,0.2l1.2,1c0.1,0,0.2,0.2,0.2,0.3c0,0.2-0.2,0.2-0.3,0.2h-6.3v1.6h2.5
				l0.7-0.9c0.1-0.1,0.2-0.2,0.3-0.2c0.1,0,0.3,0.1,0.3,0.2l1.1,0.9c0.1,0.1,0.2,0.1,0.2,0.2c0,0.2-0.2,0.2-0.3,0.2h-4.8v1.9h4.5
				l0.8-1c0.1-0.1,0.2-0.2,0.3-0.2c0.1,0,0.2,0.1,0.3,0.2l1.3,1c0.1,0.1,0.2,0.2,0.2,0.3c0,0.2-0.2,0.2-0.3,0.2h-8l1,0.2
				c0.3,0.1,0.4,0.1,0.4,0.3c0,0.2-0.2,0.3-0.6,0.5c0,0.3-0.1,0.6-0.2,1.1h4.5l0.8-1c0.1-0.1,0.2-0.2,0.3-0.2c0.1,0,0.2,0.1,0.3,0.2
				l1.3,1c0.1,0.1,0.2,0.2,0.2,0.3c0,0.2-0.2,0.2-0.3,0.2h-6.8c0.9,1.2,3.1,2.6,7.5,2.7v0.1C392.9,40,392.4,40.8,392.3,41.2z"/>
			<path d="M405.3,40.8c-3.6,0-3.9-1.9-3.9-4.4c0-1,0.2-5.6,0.2-6.6c0-0.7-0.1-0.9-0.2-1.1c-0.1-0.1-0.7-0.5-1.5-0.5
				c0.7-0.5,1.5-0.6,1.8-0.6c1,0,2.4,0.8,2.4,1.4c0,0.2-0.3,1.1-0.4,1.3c-0.5,1.7-0.7,5.6-0.7,6.7c0,1.3,0,2.3,2,2.3
				c2.3,0,6.3-1.5,8-3.1l0.1,0.1C411.7,39.3,408.4,40.8,405.3,40.8z"/>
			<path d="M426.9,41.5c-0.5,0-0.5,0-1.7-1.8c-0.9-1.3-1.6-1.8-4.6-4.4c-0.6-0.5-0.7-0.8-0.7-1.1c0-0.3,0-0.6,0.8-1.3
				c2.9-2.7,4.4-4.1,4.4-4.8c0-0.6-0.8-1-1.1-1.1c0.2-0.1,0.3-0.1,0.7-0.1c1.4,0,2.7,1.2,2.7,1.8c0,0.4-0.4,0.7-0.8,0.9
				c-0.6,0.3-3.5,2.4-5.1,3.9c-0.1,0-0.4,0.3-0.4,0.7c0,0.3,0.1,0.5,0.6,0.7c1.5,0.9,4,2.7,5.4,3.9c0.3,0.3,0.8,0.9,0.8,1.6
				C427.9,41,427.5,41.5,426.9,41.5z"/>
			<path d="M445.1,30.3c-0.5,0.4-1.6,1.3-3.2,2c0.2,0,0.4,0.1,0.4,0.3c0,0.1-0.1,0.2-0.6,0.5c0,0.2,0,1.1,0,1.3h1.1l0.6-0.9
				c0.1-0.1,0.2-0.2,0.3-0.2c0.1,0,0.2,0,0.3,0.2l1.2,0.9c0.1,0.1,0.2,0.1,0.2,0.2c0,0.1-0.2,0.2-0.3,0.2h-3.4v1
				c1.2,0.1,3,0.8,3,1.9c0,0.3-0.2,0.8-0.9,0.8c-0.5,0-0.6-0.2-1.1-1c-0.2-0.3-0.5-0.9-1-1.3c0,0.7,0,3.7,0,4.3c0,0.5,0,1.1-1.1,1.1
				c-0.8,0-0.8-0.5-0.8-0.7c0-0.4,0.1-3.6,0.1-4c-1.1,1.4-3,2.8-4.4,3.3l-0.1-0.1c1.6-1.5,3.5-4.7,3.7-5.3h-1.7
				c-0.8,0-1.1,0-1.4,0.1l-0.3-0.5c0.9,0.1,1.8,0.1,2,0.1h2.1c0-1.6-0.1-1.7-0.3-2.5l2,0.4c1-1.3,1.7-2.8,1.8-3.6l2,1
				c0.1,0.1,0.2,0.1,0.2,0.3C445.8,30,445.8,30,445.1,30.3z M444.3,28.4c-0.4,0-0.5,0-0.8,0c-1.5,0.3-2.9,0.5-3.9,0.6
				c0.8,0.2,2.2,0.6,2.2,1.7c0,0.6-0.5,0.9-0.9,0.9c-0.6,0-0.7-0.3-1.1-1.2c-0.1-0.2-0.3-0.9-0.8-1.3c-0.4,0-1,0.1-1.9,0.1
				c-0.6,0-1,0-1.4,0V29c1.9-0.4,5.9-1.3,6.9-2.2l1.9,1.2c0.1,0,0.1,0.1,0.1,0.2C444.8,28.4,444.5,28.4,444.3,28.4z M438.2,32.4
				c-0.6,0-0.8-0.4-0.9-0.9c0-0.1-0.4-1.2-1-1.9l0.1-0.1c0.9,0.2,2.8,0.7,2.8,2C439.3,32,438.7,32.4,438.2,32.4z M451.4,36.8
				c-2.2,2.4-5.5,4-8.9,4.5l-0.1-0.1c2.5-0.9,5.2-3,7-5.2c0.4-0.5,0.5-0.9,0.6-1.2l1.9,1.4c0.1,0.1,0.2,0.1,0.2,0.2
				C452.1,36.6,452,36.6,451.4,36.8z M450.6,29.1c-1.6,1.3-3.5,2.4-6.5,3.2l0-0.1c2.2-1.3,4.6-3.5,5.2-5l2,1.3
				c0.1,0.1,0.2,0.1,0.2,0.2C451.5,29,451.2,29.1,450.6,29.1z M451.1,32.9c-1.5,1.2-3.5,2.5-6.7,3.3l-0.1-0.1c2.3-1.2,4-3.1,5-4.2
				c0.3-0.3,0.4-0.6,0.5-0.9l1.9,1.4c0.1,0.1,0.1,0.2,0.1,0.2C451.9,32.8,451.8,32.8,451.1,32.9z"/>
			<path d="M465.5,40.5c-2,0-3.8-0.8-3.8-2.1c0-1.1,1.4-1.6,2.3-1.6c0.8,0,2.3,0.4,2.7,2.1c1.1-0.2,2-1.4,2-2.6
				c0-1.2-0.9-2.3-2.6-2.3c-3.2,0-5.1,2.5-6,3.8c-0.2,0.3-0.5,0.7-1,0.7c-0.6,0-0.8-0.5-0.8-1c0-0.6,0.4-1,1.3-1.8
				c0.8-0.7,1.2-1.1,4.4-4.6c0.6-0.6,1.3-1.4,1.5-1.7c0.1-0.1,0.1-0.2,0.1-0.2c0-0.1,0-0.1-0.2-0.1c-0.3,0-2.7,1.1-2.8,1.2
				c-0.3,0.2-0.4,0.3-0.7,0.3c-0.7,0-1.6-0.6-1.6-1.5c0-0.3,0.1-0.7,0.4-1c0.4,0.6,0.7,0.9,1.4,0.9c0.9,0,2.7-0.5,3.3-0.7
				c0.2,0,0.8-0.3,0.9-0.3c0.7,0,1.8,0.8,1.8,1.3c0,0.4-0.2,0.5-1.1,1c-0.7,0.4-3.8,3.1-4.5,4.2c1.1-0.5,2.3-1,4.1-1
				c3.3,0,4.2,2,4.2,3.1C470.8,38.3,468.9,40.5,465.5,40.5z M463.4,37.5c-0.3,0-0.9,0.2-0.9,0.7c0,0.9,1.9,1.2,2.3,1.2
				c0.3,0,0.4,0,0.6-0.1C465,37.8,463.8,37.5,463.4,37.5z"/>
		</g>
		<g>
			<path d="M250.5,122.9c-0.5,0-1.2-0.1-2-0.3c-0.5-0.2-0.6-0.2-0.8-0.2c-0.7,0-1.4,0.3-1.8,0.5l-1.4-3.7l0.6-0.2
				c0.4,0.8,2.5,3.3,5.4,3.3c2.2,0,3.2-1.5,3.2-2.6c0-1.4-1.4-2.1-4-3c-1.4-0.5-4.3-1.5-4.3-4.2c0-1.7,1.4-3.7,4.4-3.7
				c0.5,0,0.7,0,2.1,0.3c0.4,0.1,0.4,0.1,0.5,0.1c0.2,0,0.6,0,1.3-0.3l1.3,3.2l-0.6,0.2c-0.2-0.3-0.5-0.8-1-1.4
				c-1-1-2.4-1.5-3.7-1.5c-1.7,0-2.8,0.9-2.8,2.3c0,1.4,1.2,2.1,3.7,2.9c3,1,4.8,1.9,4.8,4.2C255.4,120.9,253.4,122.9,250.5,122.9z"
				/>
			<path d="M265.8,122.5v-0.6h1c0.5,0,1-0.2,1-0.7c0-0.2-0.1-0.6-0.2-0.8l-1-2.6h-5.3l-1,2.9c0,0.1-0.1,0.3-0.1,0.5
				c0,0.4,0.4,0.8,1.1,0.8h0.9v0.6h-5.1v-0.6h0.6c0.5,0,1.4,0,1.9-1.5l4.1-11.4l1.9-0.2l4.6,11.6c0.3,0.7,0.8,1.6,2,1.6h0.5v0.6
				H265.8z M263.6,110.7l-2.3,6.4h4.8L263.6,110.7z"/>
			<path d="M280.2,122.9c-0.5,0-1.2-0.1-2-0.3c-0.5-0.2-0.6-0.2-0.8-0.2c-0.7,0-1.4,0.3-1.8,0.5l-1.4-3.7l0.6-0.2
				c0.4,0.8,2.5,3.3,5.4,3.3c2.2,0,3.2-1.5,3.2-2.6c0-1.4-1.4-2.1-4-3c-1.4-0.5-4.3-1.5-4.3-4.2c0-1.7,1.4-3.7,4.4-3.7
				c0.5,0,0.7,0,2.1,0.3c0.4,0.1,0.4,0.1,0.5,0.1c0.2,0,0.6,0,1.3-0.3l1.3,3.2l-0.6,0.2c-0.2-0.3-0.5-0.8-1-1.4
				c-1-1-2.4-1.5-3.7-1.5c-1.7,0-2.8,0.9-2.8,2.3c0,1.4,1.2,2.1,3.7,2.9c3,1,4.8,1.9,4.8,4.2C285,120.9,283.1,122.9,280.2,122.9z"/>
			<path d="M295.4,122.5v-0.6h1c0.5,0,1-0.2,1-0.7c0-0.2-0.1-0.6-0.2-0.8l-1-2.6h-5.3l-1,2.9c0,0.1-0.1,0.3-0.1,0.5
				c0,0.4,0.4,0.8,1.1,0.8h0.9v0.6h-5.1v-0.6h0.6c0.5,0,1.4,0,1.9-1.5l4.1-11.4l1.9-0.2l4.6,11.6c0.3,0.7,0.8,1.6,2,1.6h0.5v0.6
				H295.4z M293.3,110.7l-2.3,6.4h4.8L293.3,110.7z"/>
			<path d="M312.9,122.5v-0.6h0.5c0.6,0,1-0.3,1-0.6c0-0.2-0.1-0.5-0.2-0.7l-3.4-5l-2,1.8v3.2c0,0.8,0.4,1.3,1.5,1.3h0.7v0.6h-6.6
				v-0.6h0.5c1.1,0,1.5-0.4,1.5-1.3V111c0-0.8-0.4-1.3-1.5-1.3h-0.5v-0.6h6.6v0.6h-0.7c-1.1,0-1.5,0.4-1.5,1.3v5.6l6-5.6
				c0.3-0.3,0.4-0.5,0.4-0.7c0-0.3-0.3-0.5-0.8-0.5h-0.9v-0.6h6v0.6h-0.9c-1.4,0-2,0.4-3.1,1.4l-3,2.8l4.6,6.8
				c0.5,0.8,1.2,1.2,2.2,1.2h0.7v0.6H312.9z"/>
			<path d="M322,122.5v-0.6h0.8c1.1,0,1.5-0.4,1.5-1.3V111c0-0.8-0.3-1.3-1.5-1.3H322v-0.6h7v0.6h-0.8c-1.3,0-1.5,0.5-1.5,1.3v9.7
				c0,0.9,0.4,1.3,1.5,1.3h0.8v0.6H322z"/>
			<path d="M344.9,112.8c-1.3-2.1-2.4-3-4.3-3c-1.1,0-1.3,0.4-1.3,1.3v9.5c0,0.9,0.4,1.5,1.5,1.5h1.2v0.6h-7.8v-0.6h1.2
				c1.1,0,1.5-0.6,1.5-1.5V111c0-1-0.3-1.3-1.4-1.3c-2.3,0-3.5,1.9-4.2,3l-0.6-0.2l1.5-3.4H344l1.5,3.4L344.9,112.8z"/>
			<path d="M354.7,122.9c-2.7,0-6.8-2.1-6.8-7c0-4.9,4.1-7,6.8-7c2.7,0,6.8,2.1,6.8,7C361.5,120.8,357.4,122.9,354.7,122.9z
				 M354.7,109.3c-2,0-4.1,2.1-4.1,6.5c0,3.7,1.7,6.5,4.1,6.5c1.4,0,2.4-1,2.8-1.6c0.8-1.2,1.3-3.2,1.3-5
				C358.8,112.4,357.2,109.3,354.7,109.3z"/>
			<path d="M369.4,122.9c-0.5,0-1.2-0.1-2-0.3c-0.5-0.2-0.6-0.2-0.8-0.2c-0.7,0-1.4,0.3-1.8,0.5l-1.4-3.7l0.6-0.2
				c0.4,0.8,2.5,3.3,5.4,3.3c2.2,0,3.2-1.5,3.2-2.6c0-1.4-1.4-2.1-4-3c-1.4-0.5-4.3-1.5-4.3-4.2c0-1.7,1.4-3.7,4.4-3.7
				c0.5,0,0.7,0,2.1,0.3c0.4,0.1,0.4,0.1,0.5,0.1c0.2,0,0.6,0,1.3-0.3l1.3,3.2l-0.6,0.2c-0.2-0.3-0.5-0.8-1-1.4
				c-1-1-2.4-1.5-3.7-1.5c-1.7,0-2.8,0.9-2.8,2.3c0,1.4,1.2,2.1,3.7,2.9c3,1,4.8,1.9,4.8,4.2C374.3,120.9,372.3,122.9,369.4,122.9z"
				/>
			<path d="M383.4,122.9c-2.7,0-6.8-2.1-6.8-7c0-4.9,4.1-7,6.8-7c2.7,0,6.8,2.1,6.8,7C390.2,120.8,386.1,122.9,383.4,122.9z
				 M383.4,109.3c-2,0-4.1,2.1-4.1,6.5c0,3.7,1.7,6.5,4.1,6.5c1.4,0,2.4-1,2.8-1.6c0.8-1.2,1.3-3.2,1.3-5
				C387.5,112.4,385.9,109.3,383.4,109.3z"/>
			<path d="M406.4,109.7h-0.7c-1.1,0-1.5,0.5-1.5,1.5v7.2c0,2.1-1.2,4.4-5.1,4.4c-2.6,0-5.2-1.1-5.2-4.6V111c0-0.8-0.4-1.3-1.5-1.3
				h-0.7v-0.6h6.9v0.6h-0.7c-1.1,0-1.5,0.4-1.5,1.3v7c0,2.8,1.7,4.1,3.7,4.1c2,0,3.5-1.5,3.5-3.6v-7.3c0-0.9-0.5-1.5-1.5-1.5h-0.5
				v-0.6h4.9V109.7z"/>
		</g>
		<g>
			<path d="M413.9,121.3c-0.7,0.6-1.4,0.7-2,0.7c-1.6,0-3.1-1.3-3.1-3.2c0-1.9,1.3-3.6,3.3-3.6c0.2,0,0.4,0,0.7,0.1
				c0.3,0.1,0.4,0.1,0.5,0.1c0.2,0,0.5-0.1,0.7-0.2l0.7,1.6l-0.3,0.1c-0.2-0.3-0.4-0.6-0.8-0.9c-0.4-0.3-0.8-0.5-1.4-0.5
				c-0.6,0-1.1,0.3-1.5,0.7c-0.3,0.4-0.5,1.3-0.5,2c0,1.9,1.1,3,2.4,3c0.1,0,0.5,0,0.9-0.3c0.6-0.3,0.8-0.8,1-1.1l0.2,0.1
				C414.6,120.6,414.3,120.9,413.9,121.3z"/>
			<path d="M418.4,122c-1.7,0-2.4-1.3-2.4-2.3c0-1,0.7-2.3,2.4-2.3c1.8,0,2.4,1.3,2.4,2.3C420.8,120.7,420.1,122,418.4,122z
				 M418.4,117.8c-0.7,0-1.1,0.4-1.1,2c0,1.6,0.4,2,1.1,2c0.7,0,1.1-0.4,1.1-2C419.5,118.1,419,117.8,418.4,117.8z"/>
			<path d="M422.8,122c-0.5,0-0.8-0.3-0.8-0.7c0-0.4,0.4-0.7,0.8-0.7c0.5,0,0.8,0.3,0.8,0.7C423.6,121.7,423.3,122,422.8,122z"/>
			<path d="M425.3,123.1l-0.2-0.2c0.4-0.3,0.7-0.5,0.7-0.7c0-0.1-0.1-0.1-0.2-0.2c-0.6-0.2-0.6-0.6-0.6-0.7c0-0.4,0.4-0.7,0.8-0.7
				c0.3,0,0.8,0.2,0.8,0.8C426.6,122.2,425.8,122.7,425.3,123.1z"/>
			<path d="M431.2,115.4v0.3h-0.4c-0.3,0-0.6,0.2-0.6,0.6v4.7c0,0.3,0.3,0.6,0.7,0.6h0.3c1.3,0,2.2-0.5,2.8-1.5l0.3,0.1l-0.6,1.6
				h-5.8v-0.3h0.3c0.3,0,0.7-0.3,0.7-0.6v-4.7c0-0.3-0.3-0.6-0.6-0.6h-0.3v-0.3H431.2z"/>
			<path d="M436.6,122c-0.3,0-1.1-0.1-1.1-1.1v-3h-0.8v-0.3c0.4,0,0.9,0,1.3-0.4c0.4-0.4,0.4-0.8,0.4-1.1h0.3v1.5h1.3v0.3h-1.3v3.1
				c0,0.3,0.2,0.4,0.5,0.4c0.3,0,0.5-0.2,0.7-0.3l0.2,0.2C438,121.5,437.4,122,436.6,122z"/>
			<path d="M442,121.8v-0.3c-0.3,0.2-0.5,0.5-1.1,0.5c-1.3,0-1.9-1-1.9-2.2c0-1.5,1-2.3,1.9-2.3c0.6,0,1,0.3,1.2,0.4v-1.7
				c0-0.2-0.1-0.4-0.4-0.4c-0.1,0-0.3,0-0.5,0.1l-0.1-0.2l2.2-0.4v5.9c0,0.2,0.2,0.4,0.5,0.4h0.2v0.3H442z M442,118.2
				c-0.1-0.1-0.3-0.2-0.6-0.2c-1.1,0-1.1,1.5-1.1,1.8c0,0.9,0.2,1.6,1.1,1.6c0.4,0,0.6-0.1,0.7-0.2V118.2z"/>
		</g>
	</g>
</g>
<g id="レイヤー_2">
	<polyline class="st0" points="106.8,120.4 122.2,120.4 122.2,71.7 141.2,71.7 80.9,11.4 20.5,71.7 	"/>
	<rect x="42.3" y="109.7" class="st0" width="64.8" height="21.4"/>
	<path class="st1" d="M46.5,58.8v50.4H103V58.8H46.5z M80.2,88.7L80.2,88.7c0,2.4-2,4.4-4.5,4.4c-2.3,0-4.2-1.8-4.4-4.1
		c-0.1,0-0.1,0-0.2,0c-2.5,0-4.5-2-4.5-4.5s2-4.5,4.5-4.5c0.2,0,0.3,0,0.5,0l0,0h8.6V88.7z M80.2,79.2h-8.6l0,0c-0.2,0-0.3,0-0.5,0
		c-2.5,0-4.5-2-4.5-4.5s2-4.5,4.5-4.5c0.1,0,0.1,0,0.2,0c0.2-2.3,2.1-4.1,4.4-4.1c2.4,0,4.4,2,4.4,4.4l0,0L80.2,79.2L80.2,79.2z
		 M90.5,89.1c-0.1,0-0.1,0-0.2,0c-0.2,2.3-2.1,4.1-4.4,4.1c-2.4,0-4.4-2-4.4-4.4l0,0v-8.6h8.6l0,0c0.2,0,0.3,0,0.5,0
		c2.5,0,4.5,2,4.5,4.5C95,87.1,93,89.1,90.5,89.1z M90.5,79.2c-0.2,0-0.3,0-0.5,0l0,0h-8.6v-8.6l0,0c0-2.4,2-4.4,4.4-4.4
		c2.3,0,4.2,1.8,4.4,4.1c0.1,0,0.1,0,0.2,0c2.5,0,4.5,2,4.5,4.5C95,77.2,93,79.2,90.5,79.2z"/>
</g>
</svg>
