<?xml version="1.0" encoding="utf-8"?>
<!-- Generator: Adobe Illustrator 26.3.1, SVG Export Plug-In . SVG Version: 6.00 Build 0)  -->
<svg version="1.1" id="_x32_" xmlns="http://www.w3.org/2000/svg" xmlns:xlink="http://www.w3.org/1999/xlink" x="0px" y="0px"
	 viewBox="0 0 666.1 666.1" style="enable-background:new 0 0 666.1 666.1;" xml:space="preserve">
<style type="text/css">
	.st0{fill:#FFFFFF;}
</style>
<g>
	<path class="st0" d="M392.8,340l117.7,102.6c1.1-3.7,1.7-7.6,1.7-11.6V235.8L392.8,340z"/>
	<path class="st0" d="M333.1,352c5,0,10-1.7,14.1-5.3l156.4-136.4c-7.3-9.2-18.5-15-31.1-15H193.7c-12.6,0-23.8,5.9-31.1,15
		L319,346.8C323,350.3,328,352,333.1,352z"/>
	<path class="st0" d="M153.9,235.8V431c0,4,0.6,7.9,1.7,11.6L273.3,340L153.9,235.8z"/>
	<path class="st0" d="M363.5,365.5c-8.7,7.6-19.6,11.4-30.4,11.4c-10.8,0-21.7-3.8-30.4-11.4l-10.4-9.1L170.1,463
		c6.6,4.9,14.8,7.8,23.6,7.8h278.8c8.9,0,17-2.9,23.6-7.8L373.9,356.5L363.5,365.5z"/>
</g>
</svg>
