<svg xmlns="http://www.w3.org/2000/svg" xmlns:xlink="http://www.w3.org/1999/xlink" width="231" height="63" viewBox="0 0 231 63">
  <defs>
    <clipPath id="clip-path">
      <rect id="logo" width="231" height="63" transform="translate(-0.322 0.133)" fill="#333"/>
    </clipPath>
  </defs>
  <g id="マスクグループ_81" data-name="マスクグループ 81" transform="translate(0.322 -0.133)" clip-path="url(#clip-path)">
    <g id="住宅あんしん保証ロゴAI_CC" transform="translate(1.869 1.992)">
      <path id="パス_9157" data-name="パス 9157" d="M168.518,340.272l1.711.4v-8.065l-6.238-2.6v2.085l4.518,1.889Zm13.046,4.242,1.711.392v-8.091l-6.238-2.593v2.085l4.509,1.871ZM192,351.536a10.307,10.307,0,0,0-2.05.2V332.457l-28-23.775-30.637,22.144v17.662c-4.17,1.836-7,5.427-7,9.535,0,6.006,6,10.863,13.367,10.863,5.088,0,9.517-2.29,11.781-5.668a13.135,13.135,0,0,0,19.3-.143,10.756,10.756,0,0,0,7.735,3.066,10.311,10.311,0,0,0,8.662-4.126A8.911,8.911,0,0,0,192,364.948c4.572,0,8.279-3,8.279-6.7s-3.707-6.692-8.279-6.692m-42.507,1.337c-2.263-3.377-6.692-5.676-11.781-5.676a16.038,16.038,0,0,0-4.687.686V331.717l22-10.435v28a11.469,11.469,0,0,0-5.534,3.564m35.645,1.586a10.328,10.328,0,0,0-8.635-4.162,10.791,10.791,0,0,0-7.583,2.905,12.306,12.306,0,0,0-9.856-4.456,13.5,13.5,0,0,0-2.344.2V321.452l31.492,12.387v18.429a8.151,8.151,0,0,0-3.074,2.192m-42.418,2.914c.365-.891.1-1.479-.766-1.6s-1.123.57-1.319,1.1a9.949,9.949,0,0,0-2.237,0c-.7.089-.321.044-.544.089a7.555,7.555,0,0,1,.143-1.586c2.353-.089,1.782-.107,3.983-.232.481,0,1.221-.08,1.221-1.043,0-.633-.454-.891-1.043-.891s-1.925.169-2.531.2-1.034,0-1.4,0c0-.1.223-1.426.223-1.47,0-.775-.062-1.016-.829-1.105a1.176,1.176,0,0,0-.989.365,8.6,8.6,0,0,0-.481,2.219h-3.181c-.285,0-1.31,0-1.31,1.007a.98.98,0,0,0,.784.98c.419.08,3.012,0,3.565,0,0,.143-.169,1.515-.232,2.076-2.379,1.025-4.456,3.288-4.456,5.177,0,1.684.5,2.433,2.46,2.433a4.7,4.7,0,0,0,2.237-.6,1.444,1.444,0,0,0,.446.891,1.141,1.141,0,0,0,1.854-.74c.053-.365-.258-.891-.285-1.577a14.7,14.7,0,0,0,3.876-4.188,2.388,2.388,0,0,1,1.265,2.272c0,1.087-.677,2.353-2.941,2.736-.472.089-1.1.187-1.1,1.1a1.034,1.034,0,0,0,1.06,1.078c2.041,0,5.186-1.568,5.2-4.848a4.09,4.09,0,0,0-2.673-3.921m-4.964,1.5a19.549,19.549,0,0,0,0,1.978,4.909,4.909,0,0,0,2.005-2.263,6.147,6.147,0,0,0-2.005.285m-2.059,3.654a4.649,4.649,0,0,1-1.479.535c-.517.116-.82-.107-.651-.615a4.767,4.767,0,0,1,2.067-2.754,26.923,26.923,0,0,1,.062,2.834m44.966-.891a5.5,5.5,0,0,1-4.411,2.041c-1.515-.062-2.281-.321-2.887-1.274a4.865,4.865,0,0,1-.5-2.807l.053-5.507c0-.713.143-.936.383-1.167a.891.891,0,0,1,.65-.205c.365,0,.463.107.677.446.116.187.1.41.089.971l-.062,5.748c0,.847-.339,2.46,1.675,2.272a4.366,4.366,0,0,0,3.707-2.46c.41-.722.481-1,.971-1a.891.891,0,0,1,.891.8,6.306,6.306,0,0,1-1.248,2.139m-15.149-.615a4.67,4.67,0,0,1-.784,1.782,3.823,3.823,0,0,1-3.057,1.782c-2.1,0-2.361-1.452-2.361-2.62v-1.488c0-.5,0-1.052-.606-1.052-.989,0-1.782,1.479-2.263,2.272a21.694,21.694,0,0,0-1.025,2.353c-.134.321-.33.847-1,.847-.339,0-1.069-.187-1.069-.891a3,3,0,0,1,.241-.971l3.841-9.865c.232-.57.312-.829.517-.971a.891.891,0,0,1,.508-.187c.428,0,1.158.312,1.158.891a6.8,6.8,0,0,1-.481,1.2l-1.711,4.411c1.078-1.016,1.711-.891,1.907-.891a1.666,1.666,0,0,1,1.64,1.025,4.581,4.581,0,0,1,.045,1.515v1.649c0,.25,0,1.025,1.043.891.57-.053,1.034-.517,1.461-1.39,0-.116.348-.891.356-.962s.232-.775.891-.651c.891.16,1.007.686.811,1.337m31.644-1.2a5.344,5.344,0,0,1-.775,1.462,2.246,2.246,0,0,1-2.174,1.167c-1.568,0-1.6-1.087-1.6-1.961v-1.1a.615.615,0,0,0-.615-.7c-.74,0-1.354,1.016-1.684,1.6a15.972,15.972,0,0,0-.766,1.782.8.8,0,0,1-.749.624c-.25,0-.793-.134-.793-.642a2.005,2.005,0,0,1,.178-.731l2.843-7.37c.169-.428.232-.615.383-.722a.687.687,0,0,1,.383-.134c.312,0,.891.223.891.686a5.276,5.276,0,0,1-.356.891l-1.274,3.288c.8-.757,1.274-.686,1.417-.686a1.257,1.257,0,0,1,1.23.775,3.085,3.085,0,0,1,.178,1.123v1.239c0,.178,0,.6.624.677.428.053.891-.472,1.176-1.132,0-.08.285-.579.3-.659a.579.579,0,0,1,.588-.481c.615,0,.713.686.633,1.016" transform="translate(-124.318 -308.682)" fill="#363582" fill-rule="evenodd"/>
      <path id="パス_9158" data-name="パス 9158" d="M202.218,334.007h-.5V328.6h5.192v5.408h-.5v-.288h-4.192Zm0-.719h4.192V329.1h-4.192Zm3.847-3.739v.4H204.5v.9h1.438v.4H204.5v1.093h1.647v.431h-3.675v-.431h1.546v-1.093h-1.316v-.4h1.316v-.9h-1.438v-.424Zm-.748,2.74a7.574,7.574,0,0,0-.46-.82l.41-.2a7.136,7.136,0,0,1,.482.813Z" transform="translate(-113.7 -305.353)" fill="#231815"/>
      <path id="パス_9159" data-name="パス 9159" d="M87.314,19.63v1.74h2.229v.518H87.314v2.7h2.56V25.1H84.229v-.518h2.56v-2.7H84.6V21.37h2.186V19.63Z" transform="translate(9.941 3.357)" fill="#231815"/>
      <path id="パス_9160" data-name="パス 9160" d="M217.509,330.7a4.746,4.746,0,0,0,.928,1.4,4.968,4.968,0,0,0,.956-1.438l.446.252a5.564,5.564,0,0,1-1.028,1.532,5.565,5.565,0,0,0,2.474.992l-.216.518a5.753,5.753,0,0,1-2.625-1.165,6.351,6.351,0,0,1-2.625,1.179l-.216-.525a6.277,6.277,0,0,0,2.466-1.007,5.185,5.185,0,0,1-1.021-1.51Zm1.179-2.4v.719h2.589v.5H215.61v-.5h2.574V328.3Zm-3.071,2.524a4.165,4.165,0,0,0,1.6-1.172l.453.259a4.624,4.624,0,0,1-1.783,1.366Zm3.977-1.165a4.192,4.192,0,0,0,1.69,1.1l-.288.475a4.947,4.947,0,0,1-1.834-1.3Z" transform="translate(-115.062 -305.323)" fill="#231815"/>
      <path id="パス_9161" data-name="パス 9161" d="M223.856,330.69V332.4a.978.978,0,0,0,.46.719,2.106,2.106,0,0,0,.949.244h3.114l-.093.482h-2.948a1.841,1.841,0,0,1-1.64-.762,5.847,5.847,0,0,1-.877.906l-.273-.525a3.291,3.291,0,0,0,.791-.683v-1.611h-.719v-.489Zm-.158-.978a6.4,6.4,0,0,0-.971-1.028l.36-.316a4.61,4.61,0,0,1,1.007,1.014Zm4.415,0v2.927c0,.194-.043.467-.475.467h-.669l-.086-.467h.611c.108,0,.173,0,.173-.187v-.489h-1.129v1.064h-.482v-1.064h-1.136V333.1h-.46v-3.394h1.345a4.425,4.425,0,0,0-.662-.41l.266-.331a5.322,5.322,0,0,1,.827.51,4.114,4.114,0,0,0,.971-.546H224.4v-.446h3.6v.41a5.48,5.48,0,0,1-1.381.777Zm-2.057.4h-1.136v.532h1.136Zm0,.928h-1.136v.547h1.136Zm1.589-.928h-1.129v.532h1.129Zm0,.928h-1.129v.547h1.129Z" transform="translate(-115.743 -305.33)" fill="#231815"/>
      <path id="パス_9162" data-name="パス 9162" d="M232.234,328.3h.539v1.5h2.61v.511H232.86a3.97,3.97,0,0,0,2.61,3.128l-.345.511a4.315,4.315,0,0,1-2.553-2.934,4.552,4.552,0,0,1-2.618,2.927l-.295-.532a3.775,3.775,0,0,0,2.538-3.1h-2.481V329.8h2.517Z" transform="translate(-116.441 -305.324)" fill="#231815"/>
      <path id="パス_9163" data-name="パス 9163" d="M242.471,333.721h-4.926V334h-.511v-5.458h5.35v.467h-2.467v.928h2.013v2.244h-2.013v1.086h2.567Zm-3.063-4.71h-1.862v.928h1.877Zm1.992,1.366h-3.854v1.316h3.869Zm-1.992,1.776h-1.862v1.086h1.877Z" transform="translate(-117.164 -305.347)" fill="#231815"/>
      <path id="パス_9164" data-name="パス 9164" d="M245.986,331.4a7.751,7.751,0,0,1-.719.324v1.69c0,.489-.252.568-.539.568h-.669l-.086-.511h.611c.115,0,.194,0,.194-.158V331.87c-.367.129-.662.216-.87.266l-.072-.5c.187-.05.388-.1.942-.288v-1.431h-.906v-.446h.906v-1.136h.489v1.136h.719v.446h-.719v1.33c.331-.122.547-.216.719-.295Zm.669-3.1v.769a8.037,8.037,0,0,0,2.323-.662l.28.424a9.721,9.721,0,0,1-2.6.669v.36c0,.18.043.244.324.244h1.7c.252,0,.324-.043.388-.784l.5.144c-.1,1.093-.374,1.115-.769,1.115h-1.956c-.554,0-.676-.194-.676-.568V328.3Zm2.589,5.681h-.489v-.252h-2v.252h-.489v-2.92h2.977Zm-.489-2.5h-2.006v.719h2.006Zm0,1.093h-2.006v.719h2.006Z" transform="translate(-117.831 -305.323)" fill="#231815"/>
      <path id="パス_9165" data-name="パス 9165" d="M253.472,330.5h-1.8v-.475h4.128v.475H254v1.064h1.97v.46H254v1.294h2.653l-.094.489h-2.157a2.553,2.553,0,0,1-2.28-1.187,3.639,3.639,0,0,1-.92,1.294l-.338-.431a4.314,4.314,0,0,0,1.244-2.56l.5.079a4.961,4.961,0,0,1-.288,1.129,2.244,2.244,0,0,0,1.187,1.043Zm.525-2.208v.532h2.467v1.438h-.511v-.935h-4.437v.935h-.5V328.82h2.452v-.532Z" transform="translate(-118.521 -305.322)" fill="#231815"/>
      <path id="パス_9166" data-name="パス 9166" d="M265.776,333.966h-.5v-3.178a3.454,3.454,0,0,1-.511.647l-.259-.575a5.651,5.651,0,0,0,1.258-2.582l.5.086a7.276,7.276,0,0,1-.489,1.51ZM270.148,330h-1.661v1.309h1.438v.475h-1.438v1.5h1.8v.482h-4.156v-.482h1.827v-1.5h-1.474v-.475h1.474V330h-1.683v-.475h3.854Zm-1.56-.561a5.832,5.832,0,0,0-1.2-.777l.3-.4a4.537,4.537,0,0,1,1.208.719Z" transform="translate(-119.86 -305.319)" fill="#231815"/>
      <path id="パス_9167" data-name="パス 9167" d="M274.381,333.207c0,.18.122.194.245.194h1.654a.237.237,0,0,0,.244-.151,6.149,6.149,0,0,0,.072-.87l.518.129a3.788,3.788,0,0,1-.122,1.086.575.575,0,0,1-.539.295h-2.057a.467.467,0,0,1-.532-.489v-1.438l-2.157.194-.043-.5,2.157-.194v-.892c-.554.057-.87.072-1.194.093l-.144-.489a13.986,13.986,0,0,0,3.653-.539l.245.446a10.435,10.435,0,0,1-2.042.439v.9l2.927-.266.036.482-2.963.273Zm.4-4.911v.554h2.409v1.438h-.5v-.92h-4.315v.92h-.5V328.85h2.409V328.3Z" transform="translate(-120.561 -305.323)" fill="#231815"/>
      <path id="パス_9168" data-name="パス 9168" d="M280.468,332.931a13.493,13.493,0,0,1-1.683.539l-.05-.525c.3-.057.467-.1.647-.151v-1.812h-.532v-.5h.532v-1.4h-.618v-.467h1.7v.467h-.582v1.4h.532v.5h-.532v1.683c.237-.072.345-.115.554-.187Zm1.8-4.437v1.92h-1.187v.719h1.187v.467h-1.187v.719h1.187v.489h-1.187V334h-.46v-5.508Zm-1.187,1.481h.719v-1.043h-.719Zm1.359,1.381V330.9h1.812v.467a4.63,4.63,0,0,1-.633,1.438,3.6,3.6,0,0,0,.877.777l-.309.41a3.1,3.1,0,0,1-.863-.805,3.467,3.467,0,0,1-1.079.813l-.288-.417a3.178,3.178,0,0,0,1.093-.791,3.78,3.78,0,0,1-.518-1.143l.417-.129a3.192,3.192,0,0,0,.388.892,3.379,3.379,0,0,0,.446-1.05Zm1.812-2.876v1.92h-1.733v-.446h1.273v-1.028h-1.273v-.431Z" transform="translate(-121.255 -305.341)" fill="#231815"/>
      <path id="パス_9169" data-name="パス 9169" d="M286.649,328.807H288.7V328.3h.511v.511h2.272v.46h-4.351v1.481a4.475,4.475,0,0,1-.913,3.229l-.381-.352a3.171,3.171,0,0,0,.755-1.884c-.036,0-.316.194-.762.41l-.086-.511a6.678,6.678,0,0,0,.892-.4V330.7Zm-.568,1.7a3.971,3.971,0,0,0-.324-1.079l.374-.18a3.885,3.885,0,0,1,.367,1.079Zm2.38-1.035h.46v1.316h.654v.46h-.654v1.791a6.078,6.078,0,0,0,.626-.151v.467a20.134,20.134,0,0,1-2.5.482l-.079-.467a4.718,4.718,0,0,0,.525-.065v-3.092h.467v3.013l.482-.094Zm1.783,1.575a3.855,3.855,0,0,0,.935-.892l.338.352a4.373,4.373,0,0,1-1.273,1.057v1.7c0,.108,0,.151.158.151h.367c.194,0,.28,0,.295-.82l.453.115c-.058.985-.137,1.187-.554,1.187h-.784c-.23,0-.41-.094-.41-.4v-4.034h.475Z" transform="translate(-121.942 -305.323)" fill="#231815"/>
      <path id="パス_9170" data-name="パス 9170" d="M295,331.4a7.544,7.544,0,0,1-.719.316v1.74c0,.2,0,.511-.467.511h-.719l-.086-.511h.618c.18,0,.18-.086.18-.158v-1.438c-.489.173-.719.237-.856.28l-.086-.518a8.092,8.092,0,0,0,.942-.266v-1.438h-.877v-.467h.877v-1.115h.489v1.115h.719v.467h-.719v1.338c.352-.122.539-.216.719-.288Zm3.545,2.344h-3.79v-.467h3.79Zm-.295-1.266h-3v-4h3Zm-.482-3.6H295.74v1.294h2.028Zm0,1.733H295.74v1.395h2.028Z" transform="translate(-122.641 -305.327)" fill="#231815"/>
      <path id="パス_9171" data-name="パス 9171" d="M301.108,333.975h-.5v-3.193a3.9,3.9,0,0,1-.482.611l-.259-.568a5.587,5.587,0,0,0,1.23-2.553l.518.086a6.7,6.7,0,0,1-.5,1.5Zm.259-.719a4.6,4.6,0,0,0,1.79-1.683h-1.618v-.46h1.8v-.654h-1.381v-1.985h3.308v1.956h-1.438v.654h1.783v.46H304a4.652,4.652,0,0,0,1.7,1.7l-.324.424a4.782,4.782,0,0,1-1.553-1.676v1.985h-.5v-1.956a4.653,4.653,0,0,1-1.675,1.632Zm3.4-4.315h-2.337V330h2.337Z" transform="translate(-123.328 -305.321)" fill="#231815"/>
      <path id="パス_9172" data-name="パス 9172" d="M309.6,328.641V328.3h.511v.345h2.423v.388h-2.423v.324h2.157v.345h-2.157v.338h2.574v.388h-5.652v-.388H309.6V329.7h-2.114v-.345H309.6v-.324H307.19v-.388Zm2.8,5.372a5.472,5.472,0,0,1-1.819-.719l.374-.266h-2.157l.367.259a5.889,5.889,0,0,1-1.827.719l-.237-.453a5.45,5.45,0,0,0,1.618-.525h-.935V330.7h4.228v2.33h-.942a5.076,5.076,0,0,0,1.632.511Zm-.906-2.963h-3.265v.3h3.265Zm0,.633h-3.265v.324h3.265Zm0,.626h-3.265v.338h3.265Z" transform="translate(-124.031 -305.323)" fill="#231815"/>
      <path id="パス_9173" data-name="パス 9173" d="M315.211,333.982H314.7V330.8a4.057,4.057,0,0,1-.489.64l-.252-.561a6.385,6.385,0,0,0,1.266-2.6l.51.094a7.619,7.619,0,0,1-.525,1.481Zm2.733-3.214h1.79v.5h-1.79v2h1.632v.5H315.65v-.5h1.769v-2H315.5v-.5h1.92v-1.575c-.719.072-1.222.086-1.568.093l-.079-.482a14.337,14.337,0,0,0,3.6-.453l.194.467a11.574,11.574,0,0,1-1.618.309Z" transform="translate(-124.711 -305.321)" fill="#231815"/>
      <path id="パス_9174" data-name="パス 9174" d="M322.3,333.975h-.5v-3.193a3.9,3.9,0,0,1-.482.611l-.259-.568a5.659,5.659,0,0,0,1.23-2.553l.518.086a6.7,6.7,0,0,1-.5,1.5Zm.259-.719a4.6,4.6,0,0,0,1.791-1.683h-1.618v-.46h1.8v-.654h-1.4v-1.985h3.315v1.956h-1.438v.654h1.783v.46h-1.611a4.652,4.652,0,0,0,1.7,1.7l-.316.424a4.732,4.732,0,0,1-1.56-1.676v1.985h-.5v-1.956a4.653,4.653,0,0,1-1.676,1.632Zm3.4-4.315h-2.337V330h2.337Z" transform="translate(-125.407 -305.321)" fill="#231815"/>
      <path id="パス_9175" data-name="パス 9175" d="M330.079,328.476v.424a9.012,9.012,0,0,1-.582,1.489,2.452,2.452,0,0,1,.561,1.539c0,.388-.122.841-.719.841h-.295l-.079-.511h.3c.2,0,.316-.122.316-.388a2.294,2.294,0,0,0-.582-1.438,8.936,8.936,0,0,0,.575-1.5h-.719v5.034h-.489v-5.494Zm-.23,5.034a2.157,2.157,0,0,0,1.676-1.208H330.28v-1.747h1.438v-.525h-.971v-.324a3.2,3.2,0,0,1-.59.324l-.273-.41a4.466,4.466,0,0,0,1.8-1.323h.568a4.315,4.315,0,0,0,1.769,1.287l-.273.439c-.165-.086-.338-.173-.6-.338v.345h-1v.525h1.489V332.3h-1.316c.165.316.424.82,1.661,1.23l-.223.467a3.02,3.02,0,0,1-1.812-1.51,2.8,2.8,0,0,1-1.87,1.5Zm1.841-2.531h-.964v.9h.928a3.308,3.308,0,0,0,0-.539ZM333,329.6a5.3,5.3,0,0,1-1.064-.964,4.315,4.315,0,0,1-1.05.964Zm-.849,1.755a2.668,2.668,0,0,1,0,.5h1.057v-.9H332.15Z" transform="translate(-126.124 -305.323)" fill="#231815"/>
      <path id="パス_9176" data-name="パス 9176" d="M335.185,333.506a8.779,8.779,0,0,0,1.172-2.013l.41.309a10.79,10.79,0,0,1-1.244,2.157Zm1.014-2.459a3.481,3.481,0,0,0-1-.647l.245-.424a3.681,3.681,0,0,1,1.071.626Zm.288-1.611a3.657,3.657,0,0,0-1.043-.676l.28-.417a4.653,4.653,0,0,1,1.079.633Zm3.2,2.423a8.377,8.377,0,0,1,1.244,1.927l-.475.252a4.523,4.523,0,0,0-.244-.518,22.692,22.692,0,0,1-3.394.281l-.079-.489h.46a10.87,10.87,0,0,0,.884-1.992h-1.266v-.467H338.6V329.7h-1.539v-.511h1.532v-.928h.511v.928h1.6v.475h-1.6v1.151h1.819v.467h-2.28a17.385,17.385,0,0,1-.892,1.97,19.1,19.1,0,0,0,2.222-.158,7.8,7.8,0,0,0-.719-1.014Z" transform="translate(-126.793 -305.32)" fill="#231815"/>
      <path id="パス_9177" data-name="パス 9177" d="M345.447,328.3v.719a5.753,5.753,0,0,0,.6,2.51,4.48,4.48,0,0,0,2.042,1.92l-.359.489a4.869,4.869,0,0,1-2.553-3.43,4.667,4.667,0,0,1-2.6,3.4l-.345-.467a4.243,4.243,0,0,0,2.157-2.121,6.984,6.984,0,0,0,.489-2.308V328.3Z" transform="translate(-127.484 -305.323)" fill="#231815"/>
      <path id="パス_9178" data-name="パス 9178" d="M202.218,343.248h-.5v-5.4h5.192v5.4h-.5v-.288h-4.192Zm0-.719h4.192v-4.185h-4.192Zm3.818-3.768v.417h-1.56v.906h1.438v.4h-1.438v1.1h1.647v.431h-3.675v-.431h1.546v-1.093h-1.316v-.4h1.316v-.906h-1.438v-.424Zm-.719,2.776a7.562,7.562,0,0,0-.46-.82l.41-.2a6.966,6.966,0,0,1,.482.805Z" transform="translate(-113.7 -306.26)" fill="#231815"/>
      <path id="パス_9179" data-name="パス 9179" d="M87.314,28.879v1.733h2.229v.525H87.314v2.7h2.56v.518H84.229v-.518h2.56v-2.7H84.6v-.525h2.186V28.879Z" transform="translate(9.941 2.45)" fill="#231815"/>
      <path id="パス_9180" data-name="パス 9180" d="M217.509,339.944a4.84,4.84,0,0,0,.928,1.4,5.143,5.143,0,0,0,.956-1.438l.446.244a5.681,5.681,0,0,1-1.028,1.532,5.566,5.566,0,0,0,2.474.992l-.216.518a5.817,5.817,0,0,1-2.625-1.172,6.263,6.263,0,0,1-2.625,1.186l-.216-.525a6.278,6.278,0,0,0,2.466-1.007,5.28,5.28,0,0,1-1.021-1.51Zm1.179-2.4v.719h2.589v.467H215.61v-.489h2.574v-.719Zm-3.071,2.517a4.227,4.227,0,0,0,1.6-1.165l.453.252a4.551,4.551,0,0,1-1.783,1.366Zm3.977-1.165a4.156,4.156,0,0,0,1.69,1.107l-.288.475a5.034,5.034,0,0,1-1.834-1.3Z" transform="translate(-115.062 -306.228)" fill="#231815"/>
      <path id="パス_9181" data-name="パス 9181" d="M223.856,339.939v1.711a1,1,0,0,0,.46.719,2.108,2.108,0,0,0,.949.245h3.114l-.093.475h-2.948a1.834,1.834,0,0,1-1.64-.755,5.846,5.846,0,0,1-.877.906l-.273-.525a3.67,3.67,0,0,0,.791-.719v-1.611h-.719V339.9Zm-.158-.978a6.11,6.11,0,0,0-.971-1.028l.36-.324a4.832,4.832,0,0,1,1.007,1.021Zm4.415,0v2.927c0,.194-.043.467-.475.467h-.669l-.086-.467h.611c.108,0,.173,0,.173-.18v-.489h-1.129v1.064h-.482v-1.064h-1.136v1.115h-.46v-3.394h1.345a4.465,4.465,0,0,0-.662-.417l.266-.324a5.8,5.8,0,0,1,.827.5,4.48,4.48,0,0,0,.971-.539H224.4v-.41h3.6v.41a5.752,5.752,0,0,1-1.381.777Zm-2.057.4h-1.136v.539h1.136Zm0,.92h-1.136v.547h1.136Zm1.589-.92h-1.129v.539h1.129Zm0,.92h-1.129v.547h1.129Z" transform="translate(-115.743 -306.237)" fill="#231815"/>
      <path id="パス_9182" data-name="パス 9182" d="M232.234,337.545h.539v1.5h2.61v.511H232.86a3.948,3.948,0,0,0,2.61,3.121l-.345.518a4.315,4.315,0,0,1-2.553-2.941,4.53,4.53,0,0,1-2.618,2.927l-.295-.525a3.783,3.783,0,0,0,2.538-3.1h-2.481v-.511h2.517Z" transform="translate(-116.441 -306.23)" fill="#231815"/>
      <path id="パス_9183" data-name="パス 9183" d="M242.471,342.969h-4.926v.273h-.511v-5.458h5.35v.475h-2.467v.9h2.013v2.236h-2.013v1.093h2.567Zm-3.063-4.71h-1.862v.9h1.877Zm1.992,1.366h-3.854v1.287h3.869Zm-1.992,1.769h-1.862v1.093h1.877Z" transform="translate(-117.164 -306.254)" fill="#231815"/>
      <path id="パス_9184" data-name="パス 9184" d="M249.305,338.294a7.065,7.065,0,0,1-.769.805,7.5,7.5,0,0,0,1.028.482l-.273.489a6.641,6.641,0,0,1-1.244-.719v.338h-2.769v-.3a7.189,7.189,0,0,1-1.23.676l-.245-.446a6.693,6.693,0,0,0,1.043-.518,2.959,2.959,0,0,0-.626-.539l.338-.316a4.46,4.46,0,0,1,.719.582,3.668,3.668,0,0,0,.769-.719h-1.582v-.431h2.474a3.7,3.7,0,0,0,.5.6,5.986,5.986,0,0,0,.64-.719l.439.237a5.666,5.666,0,0,1-.719.805,4.377,4.377,0,0,0,.388.281,6.471,6.471,0,0,0,.719-.82Zm-.475,3.466h-.618a3.292,3.292,0,0,1-.259.863h1.438v.424h-5.429v-.453H245.4a6.474,6.474,0,0,0-.245-.863h-.719v-1.56h4.315Zm-.5-1.136h-3.308v.719h3.308Zm-.424-1.359a5.7,5.7,0,0,1-1.244-1.194,5.35,5.35,0,0,1-1.2,1.194Zm-.5,3.358a4.073,4.073,0,0,0,.273-.863h-1.956a8.8,8.8,0,0,1,.244.863Z" transform="translate(-117.828 -306.231)" fill="#231815"/>
      <path id="パス_9185" data-name="パス 9185" d="M254.436,342.019a7.275,7.275,0,0,1-1.266.913l-.151-.345a16.11,16.11,0,0,1-2.078.5l-.086-.5,1.043-.2v-1.711h-.992v-.446h.992V339.6h-.626v-.4a1.329,1.329,0,0,1-.252.187l-.216-.489a3.106,3.106,0,0,0,1.115-1.337h.525a3.228,3.228,0,0,0,.956.992l-.3.439a3.734,3.734,0,0,1-.892-.978,4.791,4.791,0,0,1-.87,1.136h1.676v.453h-.654v.626h.87v.446h-.87v1.611a6.132,6.132,0,0,0,.813-.23v.3a6.121,6.121,0,0,0,1.079-.777Zm-3.272.187a6.594,6.594,0,0,0-.129-1.129l.4-.05a5.036,5.036,0,0,1,.165,1.115Zm1.438-.331a4.462,4.462,0,0,0,.165-.949l.424.086a4.73,4.73,0,0,1-.2.928Zm3.459-2.222h.46v.446h-1.438v.288a3.739,3.739,0,0,0,1.532,2.157l-.3.439a3.875,3.875,0,0,1-1.23-1.568v1.3a.439.439,0,0,1-.467.511H253.9l-.079-.511h.6c.158,0,.187-.05.187-.173V340.1h-1.33v-.446h2.359v-.539h-1.985v-.381h1.985v-.525h-2.085v-.431h2.567Zm-2.2,1.755a5.144,5.144,0,0,0-.482-.856l.4-.2a4.145,4.145,0,0,1,.511.827Zm1.589-.345a4.042,4.042,0,0,0,.582-.762l.381.28a4.941,4.941,0,0,1-.611.769Z" transform="translate(-118.515 -306.232)" fill="#231815"/>
      <path id="パス_9186" data-name="パス 9186" d="M265.776,343.215h-.5v-3.178a3.348,3.348,0,0,1-.511.64l-.259-.575a5.624,5.624,0,0,0,1.258-2.574l.5.086a7.276,7.276,0,0,1-.489,1.51Zm4.372-3.977h-1.661v1.316h1.438v.475h-1.438v1.5h1.8v.511h-4.156v-.482h1.827v-1.532h-1.474v-.475h1.474v-1.316h-1.683v-.467h3.854Zm-1.56-.554a5.827,5.827,0,0,0-1.2-.777l.3-.4a4.684,4.684,0,0,1,1.208.719Z" transform="translate(-119.86 -306.226)" fill="#231815"/>
      <path id="パス_9187" data-name="パス 9187" d="M274.381,342.449c0,.187.122.194.245.194h1.654a.245.245,0,0,0,.244-.144,6.344,6.344,0,0,0,.072-.87l.518.129a3.687,3.687,0,0,1-.122,1.079.575.575,0,0,1-.539.295h-2.057a.467.467,0,0,1-.532-.489v-1.438l-2.157.2-.043-.5,2.157-.2v-.884c-.554.057-.87.079-1.194.093l-.144-.489a13.988,13.988,0,0,0,3.653-.539l.245.446a9.846,9.846,0,0,1-2.042.431v.906l2.927-.266.036.482-2.963.273Zm.4-4.9v.554h2.409v1.4h-.5v-.92h-4.315v.92h-.5v-1.4h2.409v-.554Z" transform="translate(-120.561 -306.23)" fill="#231815"/>
      <path id="パス_9188" data-name="パス 9188" d="M278.655,340.421a5.952,5.952,0,0,0,.237-1.683h.41a7.19,7.19,0,0,1-.23,1.855Zm1.4,2.8h-.5v-5.674h.5Zm.432-3.545a3.9,3.9,0,0,0-.324-.978l.374-.165a6.913,6.913,0,0,1,.352.956Zm1.949-.777v-1.352h.489V338.9h1.4v.467h-1.4v1.251h1.251v.46h-1.251v1.438h1.5v.475h-3.84v-.475h1.855v-1.438H281.1v-.46h1.33v-1.251h-.892a4.1,4.1,0,0,1-.561,1.122l-.388-.324a4.839,4.839,0,0,0,.777-2.359l.5.086a5.119,5.119,0,0,1-.18,1.007Z" transform="translate(-121.247 -306.23)" fill="#231815"/>
      <path id="パス_9189" data-name="パス 9189" d="M287.188,337.623a10.053,10.053,0,0,1-.467,1.071c.194,0,.762-.043,1.186-.086a5.539,5.539,0,0,0-.388-.59l.381-.23a7.279,7.279,0,0,1,.856,1.323l-.431.245a3.7,3.7,0,0,0-.209-.41c-.453.079-1.611.194-2.265.237l-.043-.46h.388a6.852,6.852,0,0,0,.475-1.179Zm1.2,1.942v3.193a.432.432,0,0,1-.46.467h-.719l-.079-.5h.647c.108,0,.137-.05.137-.129v-.676h-1.359v1.287h-.467v-3.66Zm-.482.439h-1.352v.547h1.352Zm0,.942h-1.352v.583h1.352Zm1.611-2.481a6.107,6.107,0,0,0,1.553-.719l.28.374a6.631,6.631,0,0,1-1.834.719v.719c0,.122.058.18.194.18h.985c.187,0,.288,0,.309-.784l.467.144c0,.805-.137,1.086-.618,1.086h-1.309a.474.474,0,0,1-.539-.489v-2.157h.511Zm0,1.92v.9a5.852,5.852,0,0,0,1.5-.719l.3.388a7.557,7.557,0,0,1-1.8.719v.777c0,.172.043.223.223.223h.956c.2,0,.252,0,.309-.877l.467.122c-.079.964-.129,1.222-.719,1.222h-1.222a.475.475,0,0,1-.539-.518v-2.236Z" transform="translate(-121.949 -306.23)" fill="#231815"/>
      <path id="パス_9190" data-name="パス 9190" d="M295.166,339.069h-2.287v-.446h2.287Zm-.2-.87H293.08v-.439h1.884Zm0,1.74H293.08v-.467h1.884Zm0,.863H293.08v-.431h1.884Zm0,.424v1.755h-1.438v.259h-.475v-2.013Zm-.489.424h-.92v.913h.92Zm2.215,1.589v-2.208h-1.438v-.489h1.438v-2.308H295.4v-.475h3.092v.475H297.2v2.308h1.359v.489H297.2v2.208Zm-.841-3a6.216,6.216,0,0,0-.446-1.438l.46-.129a8.143,8.143,0,0,1,.467,1.489Zm1.654-.122a5.425,5.425,0,0,0,.475-1.438l.475.093a6.6,6.6,0,0,1-.46,1.5Z" transform="translate(-122.642 -306.251)" fill="#231815"/>
      <path id="パス_9191" data-name="パス 9191" d="M300.993,343.222h-.475v-3.128a3.6,3.6,0,0,1-.4.547l-.252-.561a4.977,4.977,0,0,0,1-2.574l.511.057a6.612,6.612,0,0,1-.374,1.489Zm4.617-5.034h-1.323v1.1h1.129v3.926h-.475v-.295h-2.876v.295h-.475v-3.926h1.122v-1.1h-1.23v-.475h4.12Zm-2.876,1.553h-.647v2.718h.647Zm1.107-1.553h-.647v1.1h.647Zm0,1.553h-.647v2.718h.647Zm1.115,0H304.3v2.718h.654Z" transform="translate(-123.328 -306.226)" fill="#231815"/>
      <path id="パス_9192" data-name="パス 9192" d="M311.041,338.051l.122.108a5.253,5.253,0,0,0,.4-.64l.374.144a7.858,7.858,0,0,1-.511.719l.252.266c.345-.453.374-.5.453-.618l.331.18a14.318,14.318,0,0,1-1.021,1.28,2.293,2.293,0,0,0,.719-.05c-.043-.137-.079-.209-.115-.316l.345-.129a5.314,5.314,0,0,1,.324.913l-.374.151c-.036-.151-.05-.216-.079-.3-.137,0-.633.065-.683.072s.36.209.561.352l-.223.266h.8v.431h-1.661a3.747,3.747,0,0,0,.288.942,3.014,3.014,0,0,0,.59-.755l.424.194a4.235,4.235,0,0,1-.784.985c.209.331.381.482.475.482s.209-.165.36-.762l.388.3c-.165.626-.331.935-.719.935s-.791-.5-.892-.654a4.509,4.509,0,0,1-1.3.618l-.209-.424a3.523,3.523,0,0,0,1.287-.6,6.171,6.171,0,0,1-.4-1.251h-1.172v.388a4.38,4.38,0,0,1,1.021.618l-.266.388a3.723,3.723,0,0,0-.784-.568,2.646,2.646,0,0,1-.554,1.5l-.36-.352a2.956,2.956,0,0,0,.482-1.97h-.252v-.367l-.273.367a3.291,3.291,0,0,1-.288-.64v2.977h-.432v-2.776a5.3,5.3,0,0,1-.5,1.388l-.259-.6a5.567,5.567,0,0,0,.719-2.049h-.626v-.46h.662V337.54h.453v1.187h.482v.46h-.482v.259a3.733,3.733,0,0,0,.561,1h1.776a19.051,19.051,0,0,1-.223-2.934h.5a19.9,19.9,0,0,0,.094,2h.129c.151-.158.374-.431.467-.547a5.268,5.268,0,0,0-.647-.64Zm-1.122,1.079a4.268,4.268,0,0,1,.316.928l-.4.108-.065-.266-1.3.108-.057-.388h.173c.079-.079.216-.245.511-.611a7.5,7.5,0,0,0-.719-.669l.266-.288.144.115a4.449,4.449,0,0,0,.482-.669l.374.144a5.653,5.653,0,0,1-.582.769c.094.094.187.187.266.28.3-.388.367-.5.46-.64l.324.209c-.3.424-.827,1.079-1.079,1.352h.611a1.436,1.436,0,0,0-.129-.345Zm1.6.719-.647.05a5.533,5.533,0,0,0,.079.561h.877a5.754,5.754,0,0,0-.547-.295Z" transform="translate(-124.021 -306.226)" fill="#231815"/>
      <path id="パス_9193" data-name="パス 9193" d="M316.629,337.76v1.985h-1.812v3.495h-.482v-5.48Zm-.482.374h-1.33v.432h1.33Zm0,.777h-1.33v.46h1.33Zm2.035,4.027a2.624,2.624,0,0,1-1.258-1.107,2.366,2.366,0,0,1-1.438,1.208l-.252-.417a1.934,1.934,0,0,0,1.294-.892h-1.287v-.388h1.438a1.874,1.874,0,0,0,.05-.482H315.4v-.381h.719c-.1-.237-.144-.331-.23-.5l.475-.079a4.77,4.77,0,0,1,.216.582h.856a4.536,4.536,0,0,0,.18-.568l.475.057a3.955,3.955,0,0,1-.2.511h.719v.381h-1.374a3.589,3.589,0,0,1-.065.482h1.568v.388h-1.345a2.157,2.157,0,0,0,1.093.8Zm1.359-5.178v5.034a.41.41,0,0,1-.431.453h-.633l-.129-.482h.568c.122,0,.165-.043.165-.2v-2.819h-1.819V337.76Zm-.482.374h-1.3v.431H319.1Zm0,.777h-1.3v.46H319.1Z" transform="translate(-124.747 -306.251)" fill="#231815"/>
      <path id="パス_9194" data-name="パス 9194" d="M204.06,358.043c0,.5,0,.921-.633.921s-.719-.331-.719-.921v-3.337c-.388.964-.6,1.064-.841,1.064a.719.719,0,0,1-.719-.669c0-.173,0-.187.4-.849a9.55,9.55,0,0,0,1.107-2.5h-.273c-.453,0-.92,0-.92-.64s.467-.647.92-.647h.36v-1.107c0-.5,0-.935.633-.935s.719.345.719.935v1.107c.676,0,1.093,0,1.093.654s-.417.633-1.093.633v.4a13.343,13.343,0,0,0,1.071,1.438c.252.3.367.439.367.719a.611.611,0,0,1-.575.626c-.273,0-.46-.187-.863-.719Zm3.869-8.68c0-.5,0-.935.626-.935s.719.345.719.935v.6h1.539c.388,0,.92,0,.92.662s-.532.64-.92.64h-1.539v1.165h1.74c.489,0,.928,0,.928.618s-.374.719-.928.719h-.92a11.213,11.213,0,0,0,1.6,2.876c.367.446.439.6.439.849a.719.719,0,0,1-.719.719.949.949,0,0,1-.719-.475,15.1,15.1,0,0,1-1.438-2.661v3.063c0,.5,0,.92-.618.92s-.719-.345-.719-.92V355.26a11.664,11.664,0,0,1-1.5,2.445c-.36.417-.532.547-.8.547a.719.719,0,0,1-.719-.719c0-.266.079-.352.554-.885a9.2,9.2,0,0,0,1.4-2.121c.05-.108.244-.611.28-.719h-1.021c-.489,0-.928,0-.928-.618s.374-.719.928-.719h1.8V351.3h-1.035c-.295.791-.46.971-.784.971s-.719-.266-.719-.6a1.1,1.1,0,0,1,.187-.547,8.918,8.918,0,0,0,.6-1.97.546.546,0,0,1,.568-.5.611.611,0,0,1,.676.59,5.282,5.282,0,0,1-.115.719h.654Z" transform="translate(-113.644 -307.298)" fill="#231815"/>
      <path id="パス_9195" data-name="パス 9195" d="M221.862,351.533c.259,3.351.985,5.645,1.244,5.645s.237-.259.331-.719c.036-.158.108-.561.539-.561.237,0,.719.094.719.575a5.228,5.228,0,0,1-.259,1.3c-.194.6-.518,1.294-1.23,1.294s-1.05-.453-1.51-1.4a18.216,18.216,0,0,1-1.3-6.112h-5.444c-.5,0-.935,0-.935-.626s.36-.719.935-.719h5.372c-.058-1.373,0-1.769.647-1.769a.654.654,0,0,1,.669.345,10.072,10.072,0,0,1,.122,1.438h1.071a3.329,3.329,0,0,1-.719-1.258.662.662,0,0,1,.669-.633c.352,0,.525.194.885.633.446.554.518.719.518.92a.417.417,0,0,1-.137.338.546.546,0,0,1,.539.618c0,.719-.331.719-.92.719Zm-4.164,5.415c.252-.043,1.381-.331,1.611-.331a.654.654,0,0,1,.64.676c0,.554-.316.719-1.575.985a20.6,20.6,0,0,1-3.48.41c-.3,0-.827,0-.827-.676a.669.669,0,0,1,.554-.719c.266-.036,1.438-.108,1.69-.129v-2.79H215.2c-.4,0-.92,0-.92-.669s.518-.662.92-.662h3.6c.417,0,.92,0,.92.662s-.5.669-.92.669H217.7Z" transform="translate(-114.906 -307.289)" fill="#231815"/>
      <path id="パス_9196" data-name="パス 9196" d="M229.492,352.8c-.554,0-.964,0-.906-.769-1.05.561-1.165.633-1.524.633a.719.719,0,0,1-.719-.769c0-.439.216-.618,1.107-.971a16.3,16.3,0,0,0,2.661-1.647c1.071-.849,1.2-.949,1.525-.949s.446.072,1.345.719a21.059,21.059,0,0,0,3.516,2.251.611.611,0,0,1,.4.582c0,.266-.244.805-.633.805a3.414,3.414,0,0,1-1.488-.654c.065.791-.367.791-.921.791Zm-2.157,2.56c-.46,0-.928,0-.928-.719s.467-.719.928-.719h8.629c.453,0,.92,0,.92.676s-.446.719-.92.719h-5.221c-.324.935-.719,1.891-.719,2.021.863-.065,2.215-.165,3.847-.4l-.36-.482a.776.776,0,0,1-.1-.36.719.719,0,0,1,.719-.633c.36,0,.662.367,1.143.992a5.173,5.173,0,0,1,1.093,1.855.76.76,0,0,1-.805.683c-.345,0-.388-.072-.827-.8a42.13,42.13,0,0,1-6.839.719c-.36,0-.992,0-.992-.762s.511-.719,1.546-.719c.4-.949.784-1.992.82-2.1Zm6.558-3.9a13.627,13.627,0,0,1-2.028-1.438c-.058-.043-.151-.122-.209-.122s-.072,0-.244.158a15.176,15.176,0,0,1-1.855,1.438Z" transform="translate(-116.115 -307.288)" fill="#231815"/>
      <path id="パス_9197" data-name="パス 9197" d="M240.5,355.555c-.273.259-.719.676-1.071.676a.676.676,0,0,1-.683-.719c0-.359.086-.431.784-1.007a7.285,7.285,0,0,0,2.071-2.876c0-.094,0-.094-.2-.094h-1.532c-.489,0-.92,0-.92-.669s.489-.719.92-.719h.618v-.784c0-.59,0-.935.719-.935s.626.439.626.935v.769h.575a.82.82,0,0,1,.769.877,5.616,5.616,0,0,1-.964,2.452,11.181,11.181,0,0,0,1.287.87.539.539,0,0,1,.324.518.719.719,0,0,1-.669.719c-.331,0-.719-.273-1.28-.719v3.25c0,.547,0,.92-.719.92s-.662-.36-.662-.92Zm5.163,1.7v-4.782h-1.381c-.439,0-.92,0-.92-.683s.467-.676.92-.676h1.381v-1.755c0-.46,0-.935.719-.935s.719.482.719.935v1.755h1.258c.439,0,.92,0,.92.676s-.482.683-.92.683h-1.3v4.782H248.5c.439,0,.921,0,.921.719s-.482.683-.921.683h-4.552c-.431,0-.928,0-.928-.683s.5-.719.928-.719Z" transform="translate(-117.332 -307.298)" fill="#231815"/>
      <path id="パス_9198" data-name="パス 9198" d="M255.364,357.954c0,.4,0,.913-.683.913s-.719-.618-.719-.913V353.8a.647.647,0,0,1-.633.381.626.626,0,0,1-.683-.654,1.237,1.237,0,0,1,.216-.6,18.546,18.546,0,0,0,1.582-4.02c.115-.338.23-.719.647-.719.065,0,.805.043.805.59a10.579,10.579,0,0,1-.539,1.862Zm3.7-6.637h-1.891c-.237,0-.928,0-.928-.64s.719-.647.928-.647h2.042c-.324-.273-.626-.532-.762-.633a.554.554,0,0,1-.237-.5c0-.151.194-.669.662-.669.173,0,.359.057,1.086.611s.762.676.762.956a.446.446,0,0,1-.057.23h1.625c.23,0,.921,0,.921.647s-.654.64-.921.64h-1.855v2.193h1.654c.381,0,.928,0,.928.647s-.547.647-.928.647h-1.654v2.546h1.891c.36,0,.935,0,.935.654s-.568.647-.935.647h-5.386c-.338,0-.921,0-.921-.647s.568-.654.921-.654H259.1V354.8h-1.711c-.4,0-.928,0-.928-.647s.539-.647.928-.647H259.1Z" transform="translate(-118.696 -307.274)" fill="#231815"/>
      <path id="パス_9199" data-name="パス 9199" d="M270.865,354.2l3.977-.324h.374c.18,0,.6,0,.6.719,0,.511-.4.554-.863.59l-4.092.345v1.438c0,.187,0,.626.719.626H273.6c.568,0,.633-.309.762-.863a.532.532,0,0,1,.6-.5c.187,0,.719.079.719.6,0,.252-.2,2.1-1.755,2.1h-2.876c-.439,0-1.553-.252-1.553-1.3v-1.963l-3.157.266h-.381c-.59,0-.59-.539-.59-.719,0-.59.309-.611.863-.654l3.265-.259v-1.079c-.475.043-1.294.086-1.755.086-.252,0-.762,0-.762-.676s.518-.6.856-.611a31.547,31.547,0,0,0,4.128-.381c.23-.036,1.23-.259,1.438-.259a.611.611,0,0,1,.611.676.532.532,0,0,1-.367.561,15.554,15.554,0,0,1-2.769.475Zm-.92-4.732v-.4c0-.345,0-.8.719-.8s.719.431.719.863v.331h3.459a.834.834,0,0,1,.719.784v1.035c0,.554,0,.92-.683.92s-.611-.439-.611-.92v-.216c0-.28,0-.36-.295-.36h-6.76c-.288,0-.324.115-.324.345v.237c0,.532,0,.928-.669.928s-.6-.453-.6-.935v-1.115a.762.762,0,0,1,.719-.719Z" transform="translate(-119.943 -307.283)" fill="#231815"/>
      <path id="パス_9200" data-name="パス 9200" d="M284.022,351.732c2.387,0,4.315,1.33,4.315,3.6s-2.316,3.524-3.8,3.524a.719.719,0,0,1-.769-.777c0-.669.453-.755.805-.813,1.64-.273,2.157-1.208,2.157-1.992a1.992,1.992,0,0,0-1.338-1.891,6.471,6.471,0,0,1-2.078,3.6,4.538,4.538,0,0,1,.072.51.729.729,0,0,1-1.33.4,3.4,3.4,0,0,1-1.589.46,2.167,2.167,0,0,1-2.157-2.373,4.056,4.056,0,0,1,3.157-3.775v-.971a11.424,11.424,0,0,1-2.085-.058.719.719,0,0,1,.2-1.388c.165,0,1.618-.036,1.963-.036.057-.777.1-1.352.805-1.352a.719.719,0,0,1,.841.8s-.043.467-.043.525c.539,0,2.963-.144,3.459-.144a.662.662,0,0,1,.719.676.647.647,0,0,1-.417.719c-.324.093-3.538.23-3.941.252a3.335,3.335,0,0,1-.036.633,7.431,7.431,0,0,1,1.05-.079M279.8,355.9c0,.719.475.892.762.892a2.561,2.561,0,0,0,1.093-.367,23.937,23.937,0,0,1-.23-2.74A2.6,2.6,0,0,0,279.8,355.9m3.207-.683a4.314,4.314,0,0,0,.928-1.992,2.515,2.515,0,0,0-.41,0q-.3-.015-.6,0a17.275,17.275,0,0,0,.086,1.985" transform="translate(-121.213 -307.294)" fill="#231815"/>
      <path id="パス_9201" data-name="パス 9201" d="M297.214,356.107c0,.266,0,.719.683.719.511,0,1.071-.23,1.294-2.049a2.463,2.463,0,0,1,.043-.568.719.719,0,0,1,.762-.561c.683,0,.791.518.791.87,0,.489-.158,4.041-3.107,4.041-1.978,0-1.978-1.69-1.978-2.287v-1.208c0-.417,0-.92-.467-.92s-1.827.561-2.7,2.582c-.108.23-.489,1.215-.583,1.438a.769.769,0,0,1-.719.453c-.252,0-.863-.129-.863-.719a2.251,2.251,0,0,1,.2-.8l2.833-7.457c.216-.582.352-.935.827-.935.352,0,.935.252.935.719a1.87,1.87,0,0,1-.23.784l-1.373,3.416a2.654,2.654,0,0,1,2.006-.971c1.625,0,1.625,1.589,1.625,2.064Z" transform="translate(-122.397 -307.325)" fill="#231815"/>
      <path id="パス_9202" data-name="パス 9202" d="M305.376,354.942c0,.777,0,2.049,1.69,2.049a3.8,3.8,0,0,0,3.373-2.373c.331-.719.446-.913.884-.913a.8.8,0,0,1,.827.719,4.616,4.616,0,0,1-1.186,2.157,5.235,5.235,0,0,1-4.07,1.9c-3.178,0-3.121-2.8-3.1-3.732l.094-4.681c0-.626,0-1.208.791-1.208s.82.626.813,1.237Z" transform="translate(-123.713 -307.34)" fill="#231815"/>
      <path id="パス_9203" data-name="パス 9203" d="M319.984,356.105c0,.266,0,.719.676.719.511,0,1.071-.23,1.294-2.049a2.46,2.46,0,0,1,.043-.568.719.719,0,0,1,.762-.561.762.762,0,0,1,.8.87c0,.489-.165,4.041-3.114,4.041-1.97,0-1.97-1.69-1.97-2.287v-1.208c0-.417,0-.92-.475-.92s-1.827.561-2.7,2.582c-.1.23-.482,1.215-.575,1.438a.755.755,0,0,1-.719.453c-.259,0-.87-.13-.87-.719a2.41,2.41,0,0,1,.194-.813l2.876-7.457c.223-.582.36-.935.827-.935.352,0,.935.252.935.719a1.87,1.87,0,0,1-.23.784l-1.374,3.416a2.653,2.653,0,0,1,2-.913c1.632,0,1.632,1.589,1.632,2.064Z" transform="translate(-124.629 -307.324)" fill="#231815"/>
      <path id="パス_9204" data-name="パス 9204" d="M328.023,358.033c0,.475,0,.92-.719.92s-.647-.331-.647-.92v-4.458a.668.668,0,0,1-.575.352.719.719,0,0,1-.719-.618c0-.209.057-.309.582-1.244a12.567,12.567,0,0,0,1.237-3.294.568.568,0,0,1,.59-.439c.266,0,.755.144.755.618a9.486,9.486,0,0,1-.5,1.934Zm3.6-5.336H330.05a.863.863,0,0,1-.992-.985V349.7a.866.866,0,0,1,.992-.985h4.609a.863.863,0,0,1,.992.985v2.014a.863.863,0,0,1-.992,1.021h-1.625v.921h2.3c.489,0,.928,0,.928.611s-.374.676-.928.676h-1.258a6.185,6.185,0,0,0,1.834,1.949.784.784,0,0,1,.338.568.719.719,0,0,1-.719.719c-.561,0-1.934-1.438-2.488-2.359v2.287c0,.518,0,.92-.647.92-.762,0-.762-.309-.762-.92v-2.352c-.669,1.129-2.049,2.5-2.675,2.5a.719.719,0,0,1-.654-.719c0-.3.266-.525.539-.719a7.192,7.192,0,0,0,1.776-1.891h-1.359c-.475,0-.92,0-.92-.6s.374-.683.92-.683h2.373Zm-.992-2.675c-.216,0-.216.129-.216.208v.978c0,.079,0,.209.216.209h3.416c.216,0,.216-.129.216-.209v-.978c0-.079,0-.208-.216-.208Z" transform="translate(-125.829 -307.289)" fill="#231815"/>
      <path id="パス_9205" data-name="パス 9205" d="M342.046,350.26c.46,0,.92,0,.92.59s-.424.633-.92.633h-2.488c-.46,0-.92,0-.92-.59s.431-.633.92-.633Zm-.4-1.481c.417,0,.928,0,.928.561s-.511.561-.935.561h-1.812c-.424,0-.92,0-.92-.561s.5-.561.92-.561Zm-.058,3.071c.417,0,.928,0,.928.547s-.511.539-.928.539h-1.711c-.4,0-.928,0-.928-.539s.525-.547.928-.547Zm.058,1.51c.41,0,.913,0,.913.547s-.5.539-.92.539h-1.762c-.4,0-.928,0-.928-.539s.525-.547.928-.547Zm.165,1.589a.87.87,0,0,1,.892.892v2.028a.87.87,0,0,1-.892.877h-1.97a.87.87,0,0,1-.892-.877v-2.028a.877.877,0,0,1,.892-.906Zm-1.3,1.266c-.165,0-.252,0-.252.194v.87c0,.187.137.2.252.2h.654c.165,0,.266-.036.266-.2v-.87c0-.187-.151-.194-.266-.194Zm7.738,1.194c.5,0,.92,0,.92.626s-.338.719-.92.719h-4.466c-.5,0-.92,0-.92-.618,0-.475.137-.719.669-.719h.158v-4.782c0-.5,0-.92.626-.92s.719.345.719.92v4.775h.791V350.26H344.1c-.489,0-.92,0-.92-.611s.367-.719.92-.719h4.085c.475,0,.928,0,.928.611s-.374.719-.928.719h-1.014v2.517h.956c.5,0,.92,0,.92.618s-.352.719-.92.719h-.956v3.351Z" transform="translate(-127.131 -307.332)" fill="#231815"/>
    </g>
  </g>
</svg>
