<?xml version="1.0" encoding="utf-8"?>
<!-- Generator: Adobe Illustrator 26.3.1, SVG Export Plug-In . SVG Version: 6.00 Build 0)  -->
<svg version="1.1" xmlns="http://www.w3.org/2000/svg" xmlns:xlink="http://www.w3.org/1999/xlink" x="0px" y="0px"
	 viewBox="0 0 566.9 141.7" style="enable-background:new 0 0 566.9 141.7;" xml:space="preserve">
<style type="text/css">
	.st0{display:none;}
	.st1{display:inline;fill:#231815;stroke:#FFFFFF;stroke-miterlimit:10;}
	.st2{fill:#FFFFFF;}
	.st3{fill:none;stroke:#FFFFFF;stroke-width:3.1424;stroke-linecap:round;stroke-linejoin:round;stroke-miterlimit:10;}
</style>
<g id="レイヤー_3" class="st0">
	<rect x="-24" y="-17.8" class="st1" width="635.2" height="198.4"/>
</g>
<g id="レイヤー_1">
	<g>
		<g>
			<path class="st2" d="M119.3,68.4c0,0.2,0,0.4,0,0.5c1.3,0.3,2.2,1.2,2.7,2.6c0.8,2.1,1.2,6.6,1.2,13.5c0,1.2-0.4,1.8-1.1,1.8
				c-0.7,0-1.1-0.5-1.1-1.5c0-6.8-0.3-11.1-1-12.7c-0.2-0.7-0.4-1.2-0.8-1.5c0,0.6,0,1.2,0,1.9c0,4.6,0,9.1,0.1,13.5
				c0,0.8-0.4,1.2-1.3,1.2c-0.6,0-1-0.7-1.1-2.1c0-4.3,0-8.6,0-13c0-0.4,0-0.8,0-1.2c-0.2,0.3-0.5,0.8-0.7,1.5
				c-0.6,2.9-0.8,6.9-0.8,12.2c0,1.2-0.4,1.9-1.2,1.9c-0.7-0.1-1-0.7-1-1.9c0.1-6.3,0.4-10.5,1-12.8c0.7-1.9,1.6-3,2.8-3.4
				c0-0.2,0-0.3,0-0.5c-2.4-0.4-3.7-2-4-4.8c0.1-0.7,0.5-1,1.1-1.1c0.7,0,1.1,0.4,1.2,1.1c0.2,1.4,0.8,2.3,1.7,2.7
				c0-1.5-0.1-2.8-0.1-4c0-0.8,0.4-1.3,1.3-1.5c0.8,0.2,1.3,0.7,1.3,1.5c0,1.4,0,2.7,0,4.1c0.8-0.4,1.4-1.4,1.6-2.8
				c0.3-0.7,0.7-1,1.3-1c0.6,0.2,0.9,0.5,0.9,1.1c0,1-0.4,2.1-1.2,3.2C121.2,67.7,120.4,68.2,119.3,68.4z M128.5,66.8h-3.2
				c-0.9,0-1.4-0.6-1.4-1.9c0-0.7,0.4-1.7,1.2-2.8c0.2-0.3,0.5-0.4,1-0.5c0.7,0,1.1,0.3,1.1,0.9c-0.2,0.7-0.6,1.3-1,1.9
				c0,0.4,0.1,0.5,0.4,0.5h1.9c0-0.9-0.1-1.7-0.1-2.5c0-0.8,0.4-1.3,1.2-1.5c0.8,0.2,1.2,0.7,1.2,1.5c0,0.8,0,1.6,0,2.5l3-0.1
				c0.4,0.2,0.7,0.5,0.7,1c0,0.7-0.3,1-1,1.1h-2.9c0,0.5,0,1,0,1.5c1.5,0,2.8,0,3.8,0.1c0.8,0.1,1.2,0.4,1.2,1
				c0,0.6-0.4,0.9-1.1,0.9c-0.3,0-1,0-2.3-0.1c-0.5,0-1,0-1.6,0c0,0.4,0,0.8,0,1.2c1.5,0.2,2.6,1,3.2,2.2c0.8,1.8,1.3,5.7,1.3,11.5
				c0,1.2-0.4,1.9-1.1,1.9c-0.7,0-1.1-0.5-1.1-1.5c0-5.7-0.4-9.2-1.1-10.6c-0.2-0.6-0.6-1.1-1.2-1.5c0,4.4,0,8.7,0.1,12.9
				c0,0.7-0.4,1.1-1.2,1.1c-0.6,0-0.9-0.7-1-2c0-3.9,0-7.9,0-11.9c-0.4,0.4-0.8,0.8-1.2,1.5c-0.7,2.4-1,5.7-1,10
				c0,1.2-0.4,1.8-1.2,1.8c-0.7-0.1-1-0.7-1-1.8c0.1-5.3,0.5-8.9,1.1-10.8c0.8-1.6,1.9-2.6,3.2-3c0-0.4,0-0.7,0-1.1
				c-0.5,0-1.1,0-1.9,0.1c-1.1,0.1-1.7,0.2-2.1,0.2c-0.6,0-0.9-0.3-1-1c0-0.6,0.5-0.9,1.5-1c1.2-0.2,2.3-0.3,3.4-0.3
				C128.6,67.8,128.6,67.3,128.5,66.8z"/>
			<path class="st2" d="M163.8,69.4c0,0.1,0,0.2,0,0.2c0.4,7.2,2.9,12.7,7.5,16.6c0.2,0.3,0.3,0.5,0.3,0.6c0,0.7-0.4,1.1-1.2,1.1
				c-1,0-2.6-1.5-4.8-4.5c-2.4-4-3.8-8.6-4-13.9v-0.1c-0.3,0-0.7,0-1,0c-1,0-2.9,0.1-5.8,0.2c-2,0.1-3.3,0.2-3.9,0.2
				c-0.7,0-1.1-0.3-1.2-1c0-0.7,0.6-1,1.7-1.1c3.1-0.2,6.1-0.2,8.8-0.2c0.5,0,1,0,1.5,0c0.1-2.6,0.1-4.5,0.1-5.7
				c0.3-0.5,0.6-0.7,1-0.7c1,0,1.5,0.4,1.5,1.2c-0.1,0.7-0.2,1.3-0.2,1.9c1.8,0,2.7-0.2,2.8-0.6c0.2-0.2,0.3-0.7,0.3-1.7
				c0-0.5,0.3-0.8,1-1c0.9,0,1.4,0.3,1.4,1l-0.1,2.1c0,1.4-1.8,2.1-5.3,2.1c0,0-0.1,0-0.2,0c0,0.4,0,0.8-0.1,1.4c2.2,0,4,0,5.5,0.1
				c0.9,0.1,1.3,0.5,1.3,1.1c0,0.6-0.4,1-1.2,1c-0.4,0-1.8-0.1-4.1-0.2C164.9,69.4,164.4,69.4,163.8,69.4z M157,74
				c0,0.9,0,1.8,0,2.7c0,0.9,0,1.9,0,2.8c0.9,0,1.9,0,2.9,0c0.8,0.2,1.2,0.5,1.2,1.1c0,0.6-0.4,0.8-1.2,0.8c-3.3,0-6.1,0.1-8.6,0.3
				c-0.6,0-0.9-0.4-1-1.1c0-0.4,0.6-0.8,1.7-1c0.6,0,1.5,0,2.7,0c0.1-0.9,0.2-1.9,0.2-3c0-0.9-0.1-1.8-0.2-2.7
				c-1.1,0.1-2.1,0.1-3,0.1c-0.6,0-0.9-0.4-0.9-1.1c0-0.4,0.5-0.8,1.6-1c1.1,0,3.4,0,6.8,0c0.8,0.2,1.2,0.5,1.2,1c0,0.7-0.4,1-1.2,1
				C158.5,74,157.7,74,157,74z"/>
			<path class="st2" d="M191.2,71c0.3-0.2,0.6-0.3,1.2-0.4c1.4,0,4.2,0,8.3,0c0.8,0.1,1.1,0.4,1.1,1c0,0.6-0.4,0.9-1.1,0.9
				c-3.4,0-6.4,0-8.9,0.1c-0.5,0-0.9-0.4-0.9-1.1c-0.2,0.2-0.3,0.5-0.5,0.7c-1.3,1.9-2.1,2.9-2.5,2.9c-0.8,0-1.2-0.3-1.2-1
				c0.1-0.4,0.9-1.6,2.3-3.6c1.5-2,3.7-5.1,6.6-9.1c0.2-0.2,0.5-0.4,0.8-0.6c0.4,0,0.7,0.2,0.9,0.5c2.1,2.9,4.5,5.9,7.1,9.2
				c1.5,1.8,2.3,3,2.3,3.7c0,0.7-0.4,1-1.1,1c-0.5,0-1.5-1-2.7-2.9c-2.8-3.8-5-6.7-6.4-8.6C195.2,65.4,193.5,67.8,191.2,71z
				 M197.2,76.5v0.1c0,1.1-0.2,2-0.5,2.7c-0.4,1-1.3,1.7-2.5,2.1c-0.6,0.4-0.9,0.9-0.9,1.5c0,1.6,1.1,2.3,3.3,2.3c2,0,3-0.8,3.1-2.3
				c0-0.8-0.4-1.4-1.2-1.7c-0.7-0.2-1-0.5-1.1-0.9c0.2-0.6,0.6-0.9,1.2-1c2.4,0.3,3.6,1.6,3.6,3.7c0,2.8-1.9,4.2-5.7,4.2
				c-4,0-6-1.4-6-4.2c0-1,0.4-1.8,1.1-2.2c0.6-0.5,1.3-0.9,2.1-1.2c0.8-0.4,1.1-1.2,1.1-2.3c0-0.3,0-0.5-0.1-0.7l0-0.1
				c-1.5,0-2.8,0-4.1,0.1c-0.6,0-0.9-0.4-1-1.1c0-0.5,0.6-0.8,1.7-1c1.8-0.1,5.2-0.1,10.5-0.1c0.8,0.1,1.2,0.5,1.2,1.1
				c0,0.6-0.4,0.8-1.2,0.8C200.1,76.3,198.6,76.4,197.2,76.5z"/>
		</g>
		<g>
			<path class="st2" d="M223.3,64.2c2,0.2,3,0.9,3,2.3c0,1.8-0.6,2.7-1.7,3c-0.5,0.1-1,0.3-1.5,0.5c0.1,9.1,0.2,14.6,0.3,16.7
				c0,0.8-0.4,1.1-1.3,1.1c-0.7,0-1.1-0.5-1.1-1.4c0-1,0.1-5.9,0.1-14.7c-0.1,0.1-0.2,0.2-0.3,0.3c-0.5,0.9-0.8,2.6-0.9,5
				c-0.2,2.6-0.5,4.8-1,6.7c-0.2,0.5-0.7,0.7-1.3,0.7c-0.5,0-0.7-0.2-0.7-0.7c0.5-1.4,0.9-3.6,1.1-6.7c0.2-3.3,0.6-5.3,1.1-6.1
				c1-1.2,2.1-2,3.3-2.4c0.9-0.2,1.4-0.8,1.4-1.8c0-0.5-0.3-0.7-0.9-0.7c-1.2,0.1-2.6,0.2-4.2,0.5c-0.7,0-1.1-0.4-1.1-1.1
				c0.1-0.4,0.4-0.7,1-0.8c0.8-0.2,1.6-0.3,2.4-0.4c0-0.8-0.1-1.6-0.1-2.5c0-0.5,0.4-0.8,1-1c0.5,0,0.9,0.1,1.3,0.4
				C223.2,61.7,223.3,62.7,223.3,64.2z M225,71c0.7,0,1,0.3,1,0.8c0,0.4,0,0.8,0,1.4c0.2,2.4,0.6,4.6,1.1,6.7c0,0.6-0.3,0.9-0.9,0.9
				c-0.5,0-0.9-0.2-1.2-0.5c-0.5-2.1-0.8-4.5-1-7.1c0-0.2,0-0.6,0.1-1.4C224.3,71.3,224.5,71.1,225,71z M232,71.4c0-3.2,0-6.5,0-9.8
				c0.1-0.4,0.4-0.6,1-0.7c0.8,0,1.2,0.3,1.2,0.8c0,3.2,0,6.4,0,9.7c0.8,0,1.8,0,2.8,0.1c0.8,0.2,1.2,0.5,1.2,1
				c0,0.6-0.4,0.8-1.2,0.8c-0.8,0-1.8,0-2.8,0c0,2.6,0,5.2,0,7.8c1.2,0,2.5,0,4,0c0.8,0.1,1.1,0.5,1.1,1c0,0.6-0.4,0.9-1.1,1
				c-3.9,0-7.2,0-10.1,0.1c-0.6,0-0.9-0.4-1-1.1c0-0.5,0.5-0.8,1.7-1c0.8,0,1.9,0,3.3,0c0-2.7,0-5.3,0-7.8c-0.8,0-1.8,0-2.8,0.1
				c-0.8,0-1.2-0.3-1.3-1c0-0.4,0.4-0.6,1.1-0.9C229.5,71.6,230.6,71.5,232,71.4z"/>
		</g>
		<g>
			<path class="st2" d="M255.6,67c0,14.4,0.2,25.1,0.5,32.3c0,1.6-0.8,2.3-2.5,2.3c-1.3,0-2-1.3-2.2-3.9c0-8.3,0-16.5,0-24.8
				c-0.4,0.6-0.7,1.1-1.1,1.6c-1.4,1.5-2.4,2.3-3.1,2.3c-1.4,0-2.2-0.6-2.3-1.8c0.1-0.8,0.5-1.7,1.3-2.6c1.3-1.2,2.6-2.9,3.9-4.9
				c3-4.4,4.5-7.4,4.5-9c0-1.2-1.1-2.7-3.3-4.2c-1.1-0.7-1.6-1.5-1.6-2.3c0.5-1.1,1.3-1.6,2.3-1.6c1.2,0.2,2.7,1.1,4.6,2.8
				c2,1.8,3,3.6,3,5.3c0,1.6-1.2,4.3-3.7,8.2C255.8,66.9,255.7,67,255.6,67z M265.7,66.3c-1.2,0-2.6,0.1-4.1,0.2
				c-1.6,0-2.5-0.7-2.7-2.1c0-0.6,0.7-1.1,2.1-1.6c1.5-0.2,3.5-0.3,6.1-0.5c0.7-1.7,1-3.1,1-4c0-2.3-1.3-3.5-3.8-3.7
				c-1.6,0-2.4-0.7-2.4-2.1c0.5-1,1.4-1.5,2.7-1.7c2.7,0,4.6,0.6,5.8,1.9c1.4,1.4,2.1,3.3,2.1,5.6c0,1.1-0.2,2.5-0.7,4
				c2.9,0,6.6,0.1,10.9,0.2c1.6,0.3,2.5,0.9,2.5,1.8c0,1.2-0.8,1.9-2.5,1.9c-3,0-6.6-0.1-11-0.2c-0.5,0-1.1,0-1.7,0
				c0,0.2-0.1,0.2-0.1,0.2c-1.5,3.7-2.3,7.5-2.5,11.3c0,3.9-0.4,7.6-1.1,11.2c-1,5.8-2.2,9.4-3.7,10.8c-0.3,0.6-1.1,0.9-2.3,0.9
				c-1.2,0-1.8-0.5-1.8-1.5c0.2-0.9,0.9-2.7,2.2-5.4c1.6-4,2.4-9,2.4-15C263.7,74,264.5,69.8,265.7,66.3z M274.3,78
				c-1.1,0.2-2.4,0.3-3.9,0.5c-1.5,0-2.3-0.7-2.5-2.2c0-0.4,0.7-0.9,2-1.3c1.2-0.2,3.2-0.3,6-0.5c1.7,0,3.8,0.1,6.3,0.2
				c1.5,0.3,2.3,0.8,2.3,1.6c0,1.3-0.8,1.9-2.3,1.9c-1.1,0-2.3,0-3.6,0c0,1.6,0,3.2,0,4.9c0,1.6,0,3.3,0.1,5.1c1.5,0,3.2,0,5,0
				c1.4,0.3,2.1,0.9,2.1,1.9c0,1.1-0.7,1.7-2.1,1.9c-5.7,0-10.7,0.2-14.9,0.5c-1.1,0-1.7-0.8-1.8-2.3c0-0.8,1-1.4,3.1-1.6
				c1-0.2,2.5-0.2,4.4-0.2c0.2-1.6,0.3-3.3,0.3-5.1C274.7,81.5,274.6,79.7,274.3,78z"/>
			<path class="st2" d="M335.1,68.6c0.2-0.2,0.5-0.3,0.7-0.4c2.1-1.4,3.2-3.3,3.2-5.6c0-0.7-2.1-1.2-6.2-1.7c-0.7,1.6-2,3.1-3.9,4.5
				c-3.8,2.3-7.4,3.5-10.7,3.5c-1.4,0-2.2-0.8-2.4-2.3c0.2-0.4,1.4-0.9,3.6-1.3c2-0.5,3.9-1.3,5.7-2.3c2.4-1.7,3.5-3.7,3.5-5.9
				c0-0.7-0.3-1.8-0.8-3.3c0.2-1.4,1.2-2.1,3.1-2.1c1.1,0,2,0.8,2.5,2.3l0.1,3.3c7.1,1.2,10.7,3,10.7,5.4c0,2.3-1.1,4.5-3.4,6.7
				c-0.8,1-1.7,1.7-2.5,2.1c0.4,0.7,0.6,1.4,0.6,2.1c-0.5,2.4-0.7,5-0.7,7.7c0.1,4.1,0.6,7.9,1.5,11.5c1,2.8,1.5,4.5,1.5,5.1
				c-0.1,1.1-0.9,1.6-2.5,1.6c-1.4,0-2.3-1-2.7-3.1c-1.7-4.8-2.6-9.8-2.6-15c0.3-1.9,0.5-4,0.5-6.5c0-3-2.6-4.4-7.7-4.4
				c-0.8-0.2-1.1-0.9-1.1-2.3c0.5-0.8,1.4-1.2,2.7-1.2C330.8,67.3,333.3,67.9,335.1,68.6z"/>
			<path class="st2" d="M395.8,61.1c0-3.1-0.1-5.8-0.3-8.1c0-1.4,0.8-2.4,2.5-2.8c1.6,0.3,2.4,1.2,2.4,2.8c0,2.8,0,5.5,0,8.1
				c5.4-0.4,9.6-3.1,12.7-7.9c0.5-0.6,1.2-0.9,1.9-0.9c1.2,0.2,1.7,0.8,1.7,1.8c0,1.7-1.6,3.9-4.7,6.6c-3,2.3-6.9,3.6-11.7,4
				c0,0.3,0,0.6,0,0.9c9.9,1.4,15.3,12,16.2,31.8c0,1.6-0.7,2.3-2.1,2.3c-1.5,0-2.3-0.7-2.5-2.1c-1.1-17.2-5-26.6-11.6-28.1
				c0,1.2-0.1,2.5-0.1,3.7c0,8.5,0,17,0.1,25.5c0,1.4-0.8,2.2-2.4,2.2c-1.2,0-1.9-1.2-2.1-3.7c0-8.3,0-16.5,0-24.6c0-1,0-1.9,0-2.8
				c-6.7,2.3-10.7,11.5-11.9,27.6c0,1.4-0.9,2.1-2.6,2.1c-1.2-0.2-1.8-1-1.8-2.3c1.6-19.1,7-29.5,16.3-31.4c0-0.5-0.1-0.9-0.1-1.2
				c-4.5-0.4-8.3-1.8-11.2-4.2c-3.2-2.8-4.8-5.2-4.8-7.1c0.1-1.1,0.7-1.7,1.9-1.9c0.8,0,1.3,0.3,1.7,0.8
				C387.1,57.4,391.2,60.4,395.8,61.1z"/>
			<path class="st2" d="M455.7,48.9c1.7,0,2.6,0.6,2.6,1.9c0,4.6-0.1,7.2-0.3,8c-0.1,1-0.5,1.8-1.2,2.3c-0.7,0.7-1.7,1.2-2.9,1.5
				c-1.3,0.5-2.3,0.9-2.9,1.3c-0.6,0.7-0.9,1.4-0.9,2.3c0,8.4-0.6,13.5-1.8,15.2c-0.3,1.3-1.1,1.9-2.5,1.9c-1.2,0-1.9-0.6-1.9-1.7
				c0.1-0.5,0.4-1.2,0.9-2c0.5-0.9,0.8-2,0.9-3.1c0.4-2.6,0.6-6,0.6-10.3c0.1-2.5,1.4-4.1,3.8-4.9c2.2-0.7,3.4-1.6,3.4-2.6
				c0.2-0.9,0.3-3.6,0.3-8C453.7,49.9,454.4,49.2,455.7,48.9z M462.2,95.1c0-1.4,0-2.8,0-4.2c-1.9,0-4.1,0.1-6.5,0.4
				c-1.6,0-2.5-0.7-2.7-2.1c0-0.6,0.7-1.1,2.1-1.6c1.6-0.2,3.9-0.3,7-0.5c0-1.7,0-3.4,0-4.9c0.2-0.9,0.9-1.5,2.1-1.6
				c1.6,0,2.4,0.6,2.4,1.9c0,1.6,0,3.1,0,4.7c1.9,0,4.1,0.1,6.7,0.2c1.6,0.3,2.4,0.9,2.4,1.8c0,1.2-0.8,1.9-2.4,1.9
				c-2,0-4.2-0.1-6.7-0.2c0,1.4,0,2.8,0,4.2c5.3,0,10.5,0.2,15.6,0.7c1.2,0.2,1.9,0.7,2.2,1.6c0,1.4-0.7,2.1-2,2.1
				c-1.2,0-2.9-0.1-5-0.3c-3.7-0.3-7.7-0.5-12.1-0.5c-3.4,0-7.2,0.1-11.3,0.2c-3.8,0.4-6.3,0.5-7.5,0.5c-1.2,0-1.8-0.6-1.9-1.9
				c0-1.6,1.1-2.3,3.2-2.3C452.6,95.2,457.4,95.1,462.2,95.1z M449.3,50.4c1.4,0,2.2,0.7,2.3,2.1c0,1.4-0.1,2.6-0.3,3.7
				c-0.1,1-0.2,1.7-0.4,2.1c0,0.5-0.1,0.7-0.3,0.7c-0.6,0.7-1.4,1-2.4,1c-0.9-0.2-1.4-0.8-1.4-1.9c0-0.2,0.1-0.4,0.2-0.7
				c0.1-0.5,0.2-1,0.3-1.5c0.2-1.2,0.3-2.6,0.3-3.9C448,50.9,448.6,50.4,449.3,50.4z M454.3,65.6c1.6,0,2.4,0.7,2.5,2.1
				c0,3.1-0.1,5.8-0.3,8c-0.1,1.7-0.2,3.2-0.3,4.4c-0.1,0.7-0.2,1.2-0.3,1.3c-0.6,0.7-1.4,1-2.4,1c-0.9-0.2-1.4-0.8-1.4-1.9
				c0-0.3,0.1-0.9,0.1-1.7c0.1-0.7,0.1-1.7,0.1-2.8c0.1-3,0.2-5.9,0.2-8.8C453,66.2,453.6,65.6,454.3,65.6z M479.2,59.8
				c-0.2,0.9-0.9,1.3-2.3,1.3c-1,0-2.1,0-3.4,0c0,0.8,0.1,1.6,0.1,2.3c2.4,0,5.2,0,8.3,0c1.4,0.2,2.1,0.8,2.1,1.9
				c0,0.9-0.7,1.4-2.1,1.6c-2.8,0-5.6,0-8.2,0c0.1,7.2,0.3,11.8,0.4,13.8c0,1.6-0.9,2.3-2.6,2.3c-1.3,0-2-0.9-2-2.8
				c0.1-1,0.1-5.3,0.1-13.1c-3.1,0-5.9,0.2-8.5,0.5c-1,0-1.6-0.7-1.8-2.1c0-0.8,1-1.4,2.9-1.7c1.7-0.2,4.2-0.3,7.4-0.5
				c0-0.7,0-1.5,0-2.3c-1,0-2.1,0.1-3.3,0.2c-1.2,0-2-0.4-2.4-1.3c-0.1,0.2-0.3,0.3-0.4,0.5c-1.7,1.4-2.9,2.1-3.4,2.1
				c-1.4,0-2.1-0.6-2.1-1.7c0.1-0.3,1.2-1.3,3.2-3c2-1.9,4.9-4.6,8.9-8.2c0.3-0.5,0.8-0.8,1.3-1c0.7,0,1.2,0.3,1.5,1
				c2.8,2.5,6,5.1,9.5,8c2,1.6,2.9,2.6,2.9,3.2c0,1.1-0.6,1.7-1.8,1.7c-0.8,0-2-0.7-3.7-2.1C479.7,60.1,479.4,59.9,479.2,59.8z
				 M466.1,68.8c1.2,0,1.8,0.6,1.8,1.9c0,1.1-0.4,2.7-1.3,4.7c-0.8,1.9-1.6,3.2-2.4,3.9c-0.6,0.7-1.4,1-2.4,1
				c-1.1,0-1.7-0.6-1.9-1.7c0-0.3,0.5-1.1,1.6-2.3c0.7-0.9,1.2-2,1.7-3.5c0.4-1,0.6-1.9,0.7-2.8C464.2,69.2,464.9,68.8,466.1,68.8z
				 M466.9,57.6c1-0.2,2.4-0.2,4.3-0.2c1.4,0,3.2,0.1,5.3,0.2c-2-1.7-3.7-3.1-5-4C470.4,54.7,468.9,56.1,466.9,57.6z M477,68.8
				c1.1,0,1.9,0.4,2.3,1.2c0.9,2.5,1.8,4.6,2.9,6.5c0.7,1.1,1,1.9,1.1,2.3c0,1.1-0.6,1.7-1.9,1.7c-0.8,0-1.6-0.2-2.2-0.7
				c-0.7-0.9-1.6-2.9-2.9-5.9c-0.6-1.7-0.9-2.8-1-3.2C475.2,69.6,475.8,69,477,68.8z"/>
			<path class="st2" d="M523.4,77.1c0.3,0.2,0.6,0.5,0.9,0.9c0.8,0.9,1.1,1.8,1.1,2.6c0,1.2-0.9,2.6-2.8,4v6.5
				c0,0.8,0.3,1.2,0.8,1.2c0.4,0,1.1-0.2,2.1-0.5c2-0.7,3.1-1.2,3.4-1.3c1.2,0.2,1.9,0.7,1.9,1.6c0,1.1-0.6,1.7-1.7,2
				c-1,0.5-2.3,1-3.9,1.5c-1.6,0.4-3,0.6-4.2,0.6c-1.7,0-2.6-0.9-2.6-2.8v-6.3c-2.5,1.4-4.2,2-5.1,2c-1.2,0-1.9-0.6-1.9-1.8
				c0.1-0.8,0.9-1.4,2.4-1.9c4.6-2.2,6.9-3.9,6.9-5.2c0-0.5-0.2-0.9-0.4-1.2c-0.4-0.4-0.6-0.8-0.6-1.1c0-0.2,0.1-0.2,0.1-0.2
				c-0.4,0-0.9,0.1-1.3,0.2c-3.4,0.6-5.6,0.9-6.5,0.9c-1.2,0-2-0.8-2.2-2.3c0-0.3,1.5-0.8,4.5-1.3c8.9-1.7,13.4-2.7,13.4-2.8
				c0.7,0,1-0.9,1-2.6c0.5-0.8,1.2-1.2,2-1.2c1.3,0,2,0.5,2.1,1.5c0.1,1.4,0.5,2.2,1.3,2.3c0.8,0.3,5.1,1.2,13.1,2.8
				c3.2,0.5,4.8,0.9,4.8,1.3c0,1.4-0.7,2.1-2,2.1c-0.9,0-3.6-0.4-8.1-1.1c-0.5,0-1.1-0.1-1.7-0.2c-0.1,0.6-0.6,1.4-1.5,2.3
				c1.5,0.8,2.2,1.7,2.2,2.8c0,0.7-0.1,1.4-0.4,2.1c-0.8,1.2-1.3,2.2-1.5,3c0,1.6,1.2,3.3,3.5,5.2c2.1,1.9,4.6,3.4,7.3,4.7
				c1.6,0.8,2.5,1.6,2.5,2.3c0,1.1-0.8,1.6-2.3,1.6c-1.1,0-3.8-1.4-8-4.2c-4.5-3.1-6.9-6.2-7.1-9.1c0.1-1,0.4-1.8,0.9-2.6
				c0.4-0.8,0.6-1.6,0.6-2.3c0-0.2-0.3-0.5-0.9-0.9c-1.9,1.1-3.2,1.6-4.1,1.6c-1,0-1.8-0.7-2.2-2.1c0-0.2,0.2-0.4,0.6-0.7
				c0.6-0.1,1.2-0.3,1.6-0.6c2.2-1.1,3.9-2.4,5.1-3.8c-1.9-0.3-3.7-0.6-5.4-0.9C528.9,76,526.4,76.4,523.4,77.1z M513.4,53.2
				c0.7,0,1.8,0.5,3.3,1.6c1.9,1.4,2.9,2.3,2.9,2.8c0,0.9-0.6,1.4-1.7,1.6c-0.4,0-1.6-0.4-3.5-1.3c-2.1-1.3-3.2-2.1-3.3-2.6
				C511.2,54.2,512,53.5,513.4,53.2z M518,62.1c1.3,0,2,0.5,2,1.6c0,0.3-0.1,0.6-0.2,1c-0.2,0.3-0.4,0.6-0.6,0.9
				c-0.5,0.4-1.1,0.9-1.8,1.4c-1.6,1.1-2.6,1.6-3,1.6c-2,0-3.1-0.8-3.3-2.3c0-0.4,0.7-0.9,2.1-1.3c1.2-0.5,2.4-1.1,3.4-1.9
				C517.1,62.4,517.6,62.1,518,62.1z M522.6,49.4c1.6,0.2,2.5,1.1,2.5,2.9c0,2.2,0,4.4-0.1,6.7c0,3.6,0,7.2,0.1,10.8
				c0,1.4-0.8,2-2.5,2c-1.1,0-1.8-1.2-2-3.7c0-2.7,0-5.3,0-8c0-3.4-0.1-6.1-0.4-8C520.2,50.9,521,49.9,522.6,49.4z M536.9,55.1
				c0-1.2,0-2.5,0-3.8c0.2-0.7,0.9-1.2,1.9-1.3c1.5,0,2.2,0.5,2.2,1.6c0,1.1,0,2.3,0,3.6c3,0,5.5,0.1,7.5,0.2
				c1.6,0.2,2.4,0.8,2.4,1.9c0,1.2-0.7,1.8-2.1,1.8c-0.5,0-2-0.2-4.5-0.5c-1.1,0-2.1,0-3.2,0c0,1.7,0,3.4,0,5.2c1.6,0,3,0.2,4.1,0.5
				c1.6,0,2.3,0.6,2.3,1.7c0,1.2-0.7,1.9-2.1,1.9c-0.4,0-1.4-0.2-3.3-0.5c-1.3,0-2.6,0-3.8,0c-0.7,0-2,0.2-4,0.5
				c-1.4,0.2-2.3,0.3-2.7,0.5c-1.2,0-1.8-0.7-2-2.2c0-1.1,1-1.7,3-1.9c1.5-0.2,2.9-0.3,4.3-0.5c0-1.7,0-3.4,0-4.9
				c-1,0-2.3,0.1-3.9,0.2c-2.1,0.2-3.4,0.2-4.1,0.2c-1.2,0-1.9-0.6-2.1-1.8c0-1.1,1-1.7,3.1-1.9C532.3,55.2,534.7,55.1,536.9,55.1z"
				/>
		</g>
		<g>
			<path class="st2" d="M191,28.8c-0.2,0.5-0.5,1-1.1,1.9l0.4,0.2c0.1,0,0.2,0.1,0.2,0.2c0,0.1-0.1,0.2-0.2,0.2
				c-0.1,0.1-0.2,0.2-0.4,0.3c0,0.7,0,5.7,0.1,6.2c0,0.4,0.1,2.3,0.1,2.5c0,0.3,0,1.1-1.2,1.1c-0.9,0-0.9-0.4-0.9-0.8
				c0-0.4,0.1-2.4,0.1-2.8c0-1.4,0-1.6,0.1-5.1c-1.2,1.3-2.1,1.9-2.5,2.1l-0.1-0.1c1.9-2.7,3.5-6.2,3.7-7.9l2.3,1.1
				c0.1,0,0.2,0.1,0.2,0.3C191.8,28.6,191.4,28.7,191,28.8z M201.6,40.5h-8.9c-1.3,0-1.7,0.1-2,0.1l-0.3-0.6
				c0.8,0.1,1.7,0.1,2.6,0.1h2v-4.8h-1.3c-1.3,0-1.7,0.1-1.9,0.1l-0.3-0.6c0.9,0.1,1.7,0.1,2.6,0.1h0.9v-4H193
				c-1.3,0-1.6,0.1-1.9,0.1l-0.3-0.6c0.8,0.1,1.7,0.1,2.5,0.1h5.4l0.7-1c0.1-0.1,0.1-0.2,0.3-0.2c0.1,0,0.2,0.1,0.3,0.2l1.5,1.1
				c0.1,0,0.2,0.1,0.2,0.2c0,0.2-0.2,0.2-0.3,0.2h-4.5v4h1.4l0.7-0.9c0.1-0.1,0.1-0.2,0.3-0.2s0.3,0.1,0.3,0.2l1.4,0.9
				c0.1,0,0.2,0.1,0.2,0.2c0,0.2-0.2,0.2-0.3,0.2h-4v4.8h2.1l0.8-1.1c0.1-0.1,0.1-0.2,0.3-0.2c0.1,0,0.2,0.1,0.3,0.2l1.3,1.1
				c0.1,0.1,0.2,0.1,0.2,0.2C201.9,40.5,201.7,40.5,201.6,40.5z M196.1,30.2c-0.6,0-0.7-0.2-1.1-1.2c-0.5-1.2-0.9-1.7-1.1-1.9
				l0.1-0.1c1.2,0.3,3.2,0.9,3.2,2.1C197.2,29.9,196.6,30.2,196.1,30.2z"/>
			<path class="st2" d="M219.5,30.4c-0.5,0.2-2.3,0.6-4.1,0.9c-0.1,0.8-0.1,1-0.1,1.9c0.4-0.1,2.1-0.6,2.3-0.6
				c0.5,0,1.3,0.2,1.3,0.7c0,0.3-0.3,0.4-0.4,0.5c-0.3,0.1-1.5,0.4-3.1,0.6c0.1,1.1,0.1,1.9,0.4,2.9c2.8,0.4,4,1.4,4,2.2
				c0,0.4-0.3,0.8-0.8,0.8c-0.3,0-0.7-0.2-1-0.4c-1.1-0.7-1.4-0.9-2.1-1.1c-0.1,0.7-0.3,2.1-3.3,2.1c-1.8,0-3.2-0.8-3.2-1.9
				c0-1.4,2.1-2,4.8-1.9c-0.1-1-0.2-2.1-0.2-2.5c-0.8,0.1-1.5,0.1-2.3,0.1c-0.4,0-2.1,0-2.1-0.8c0-0.4,0.6-1.1,1.4-1.2
				c-0.1,0.1-0.3,0.3-0.3,0.5c0,0.3,0.5,0.3,1.1,0.3c1.1,0,1.8-0.1,2.2-0.2c0-1,0-1.1,0-1.9c-0.6,0.1-1.7,0.2-2.5,0.2
				c-0.9,0-2.6,0-3.3-1.7c1,0.4,1.5,0.6,2.8,0.6c1,0,2-0.1,3-0.3c0-1.5,0-1.7-0.3-1.9c-0.4-0.3-0.9-0.4-1.4-0.5
				c0.4-0.4,0.8-0.6,1.4-0.6c0.4,0,2.3,0.2,2.3,1.1c0,0.2-0.1,0.2-0.3,0.8c-0.1,0.3-0.2,0.5-0.2,0.8c0.7-0.2,1.6-0.4,2.3-0.7
				c0.3-0.1,0.4-0.1,0.5-0.1c0.6,0,1.4,0.3,1.4,0.8C219.9,30.2,219.8,30.3,219.5,30.4z M212.2,38.1c-0.4,0-2.1,0.1-2.1,0.9
				c0,0.4,0.6,0.8,1.8,0.8c2.2,0,2.3-0.9,2.3-1.4C213.7,38.2,213.1,38.1,212.2,38.1z"/>
			<path class="st2" d="M232.1,37.2c-0.1,0.2-0.1,0.3-0.1,0.4c0,0.2,0.2,0.9,0.2,1.1c0,0.4-0.4,0.7-0.9,0.7c-0.9,0-3.4-1.1-3.6-5.5
				c0-0.4-0.1-2-0.1-2.3c-0.1-1.1-0.3-1.4-0.8-2.2c1.3,0.1,2.9,0.8,2.9,2c0,0.2-0.1,0.3-0.1,0.5c-0.2,1-0.4,1.8-0.4,2.6
				c0,1.5,0.8,2.5,1.1,2.5c0.2,0,0.7-0.5,0.9-0.8c0.6-0.7,2-2.4,2.3-2.9l0.1,0C233.6,33.7,232.2,37.1,232.1,37.2z M240.5,36.9
				c-0.3,0-0.4-0.1-1.1-0.8c-0.5-0.5-1.9-0.7-2.3-0.7v-0.1c0.1,0,1.8-0.2,2-0.2c0.1,0,0.3-0.1,0.3-0.4c0-0.3-0.2-1.3-0.9-2.2
				c-0.6-0.9-1.4-1.5-2-1.9c2.3,0,5,2.4,5,4.7C241.5,36.2,241,36.9,240.5,36.9z"/>
			<path class="st2" d="M260.8,33.9c-1.7,0.2-3,0.4-5,1.2c0.1,0.3,0.1,0.7,0.1,1.5c0,0.4,0,1.7-1,1.7c-0.5,0-0.9-0.5-0.9-1.1
				c0-0.2,0.1-1,0.1-1.2v-0.2c-1,0.5-2.5,1.4-2.5,2.3c0,1,1.7,1.1,2.7,1.1c0.9,0,1.8-0.1,2.7-0.3c0.2,0,0.8-0.1,0.9-0.1
				c0.6,0,1.3,0.6,1.3,1c0,0.4-0.3,0.6-0.5,0.6c-0.5,0.1-2.1,0.3-3.2,0.3c-1.1,0-4.9-0.1-4.9-2.1c0-1.6,2.1-3,3.5-3.7
				c-0.1-0.7-0.3-1.5-1.3-1.5c-1.1,0-1.9,0.8-2.4,1.6c-0.2,0.3-0.8,1.2-1,1.3c-0.1,0.1-0.3,0.1-0.4,0.1c-0.6,0-0.7-0.6-0.7-1
				c0-0.6,0.1-0.8,1-1.5c0.9-0.8,1.6-1.7,2.3-2.7c-0.3,0-0.5,0-0.8,0c-1.9,0-2.4-1.1-2.4-1.7c0.6,0.5,1.3,0.7,2.4,0.7
				c0.2,0,0.8,0,1.6-0.1c0.3-0.4,0.9-1.4,0.9-1.7c0-0.3-0.5-0.5-1.4-0.6c0.3-0.3,0.7-0.6,1.7-0.6c1,0,1.9,0.6,1.9,0.9
				c0,0.3-0.1,0.4-0.5,0.8c-0.1,0.1-0.2,0.2-0.8,0.9c0.3-0.1,1.7-0.6,2-0.7c0.2,0,0.3-0.1,0.4-0.1c0.5,0,1.2,0.5,1.2,0.8
				c0,0.3-0.3,0.5-0.6,0.6c-1.1,0.4-2.2,0.6-4,0.8c-0.3,0.4-1.5,1.9-1.7,2.2c0.4-0.2,1-0.4,1.9-0.4c1.6,0,2,0.7,2.2,1.3
				c0.5-0.2,3-1.4,3.1-1.4c0.4-0.2,0.5-0.3,0.5-0.5c0-0.2-0.1-0.2-0.8-0.5c0.1-0.1,0.4-0.2,0.8-0.2c1.1,0,2.4,0.9,2.4,1.7
				C261.5,33.8,261.2,33.8,260.8,33.9z"/>
			<path class="st2" d="M269.8,41c-0.8,0-1-0.5-1.4-1.4c-0.7-1.6-1.7-2.3-2.2-2.6l0.1-0.2c1.3,0.2,2.5,0.5,3.5,1.2
				c0.9,0.6,1.2,1.3,1.2,1.8C271,40.4,270.5,41,269.8,41z"/>
			<path class="st2" d="M286,31.9c-0.3,0.3-0.6,0.6-0.9,1l0.3,0.2c0.2,0.1,0.3,0.2,0.3,0.3c0,0.1-0.1,0.2-0.5,0.4c0,0.2,0,0.5,0,0.7
				c0,0.7,0.1,5.2,0.1,6.2c0,0.4-0.6,0.7-1.2,0.7c-0.6,0-0.7-0.3-0.7-0.6c0-0.2,0.1-1.1,0.1-1.4c0.1-1.8,0.1-4.2,0.1-4.3
				c0-0.3,0-0.6,0-0.8c-1.2,1.1-2,1.5-2.3,1.7l-0.1-0.1c1.1-1.2,3-4,3.3-5.5l1.8,1c0.1,0.1,0.3,0.2,0.3,0.2
				C286.6,31.7,286.5,31.8,286,31.9z M286.3,28.5c-0.1,0-0.2,0-0.4,0.1c-0.7,0.6-2.3,2-4.5,2.9l-0.1-0.1c0.6-0.6,2.7-2.7,3.2-4.5
				l1.9,1.1c0.1,0.1,0.2,0.2,0.2,0.3C286.7,28.4,286.5,28.5,286.3,28.5z M287.3,39.8c-0.1,0.2-0.2,0.3-0.4,0.3
				c-0.1,0-0.2-0.1-0.2-0.2l-1-1.9c0.4,0,0.8,0.1,1.1,0.1c0.3,0,1.1-0.1,1.7-0.2v-2.2h-0.3c-1.1,0-1.5,0-2,0.1l-0.3-0.6
				c1.1,0.1,2.4,0.1,2.5,0.1c0-1.4,0-1.7-0.2-2.5c-0.3,0-1.3,0-2,0.1l-0.3-0.6c0.7,0,1.8,0.1,2.5,0.1c0-0.4,0-2,0-2.3
				c-1,0-1.3,0-2,0.1l-0.3-0.6c0.6,0,1.7,0.1,2.3,0.1c0-1.4-0.1-2-0.4-2.9l2.2,0.5c0.1,0,0.4,0.1,0.4,0.2c0,0.1-0.1,0.2-0.2,0.3
				c-0.1,0-0.2,0.2-0.4,0.2c0,0.4,0,1.4,0,1.6h0.4l0.6-0.8c0.1-0.1,0.2-0.2,0.3-0.2c0.1,0,0.3,0.1,0.3,0.2l1.1,0.8
				c0.1,0.1,0.2,0.2,0.2,0.2c0,0.2-0.2,0.2-0.3,0.2h-2.6v2.3h0.6l0.7-0.8c0.1-0.1,0.2-0.2,0.3-0.2c0.1,0,0.2,0,0.3,0.2l1.1,0.8
				c0.1,0.1,0.2,0.2,0.2,0.2c0,0.2-0.2,0.2-0.3,0.2h-4.5l1.8,0.4c0.2,0,0.4,0.1,0.4,0.2c0,0.1-0.1,0.2-0.5,0.5c0,0.1,0,1.3,0,1.4
				h0.6l0.6-0.9c0.1-0.2,0.2-0.2,0.3-0.2c0.1,0,0.1,0,0.3,0.2l1.2,0.9c0.1,0.1,0.2,0.2,0.2,0.3c0,0.1-0.2,0.2-0.3,0.2h-2.9
				c0,0.3,0,1.7,0,2c0.6-0.1,3-0.4,3.5-0.5l0.1,0.1C290.7,38.7,290,39,287.3,39.8z M297.9,32.7H296v3.2c0,0.4,0.1,3.4,0.1,3.5
				c0,1.1-0.4,1.6-2.4,2c-0.2-0.8-0.3-1.3-1.8-2v-0.1c0.5,0.1,0.9,0.1,1.4,0.1c0.9,0,1-0.1,1-0.8c0-0.8,0-5,0-5.9
				c-0.2,0-0.6,0-0.8,0l-0.3-0.5c0.5,0,1,0,1.4,0h1l0.6-0.9c0-0.1,0.2-0.2,0.3-0.2c0.1,0,0.3,0.2,0.5,0.3l0.9,0.8
				c0.1,0.1,0.2,0.1,0.2,0.2C298.2,32.7,298,32.7,297.9,32.7z M297.5,29h-3.5c-0.1,0-0.4,0-0.8,0l-0.3-0.5c0.7,0,1.4,0.1,1.4,0.1h1
				l0.6-0.8c0.1-0.1,0.2-0.2,0.3-0.2c0.1,0,0.3,0.1,0.4,0.2l1.1,0.8c0.1,0.1,0.2,0.2,0.2,0.2C297.7,29,297.6,29,297.5,29z"/>
			<path class="st2" d="M316.5,33.9c-1.7,0.2-3,0.4-5,1.2c0.1,0.3,0.1,0.7,0.1,1.5c0,0.4,0,1.7-1,1.7c-0.5,0-0.9-0.5-0.9-1.1
				c0-0.2,0.1-1,0.1-1.2v-0.2c-1,0.5-2.5,1.4-2.5,2.3c0,1,1.7,1.1,2.7,1.1c0.9,0,1.8-0.1,2.7-0.3c0.2,0,0.8-0.1,0.9-0.1
				c0.6,0,1.3,0.6,1.3,1c0,0.4-0.3,0.6-0.5,0.6c-0.5,0.1-2.1,0.3-3.2,0.3c-1.1,0-4.9-0.1-4.9-2.1c0-1.6,2.1-3,3.5-3.7
				c-0.1-0.7-0.3-1.5-1.3-1.5c-1.1,0-1.9,0.8-2.4,1.6c-0.2,0.3-0.8,1.2-1,1.3c-0.1,0.1-0.3,0.1-0.4,0.1c-0.6,0-0.7-0.6-0.7-1
				c0-0.6,0.1-0.8,1-1.5c0.9-0.8,1.6-1.7,2.3-2.7c-0.3,0-0.5,0-0.8,0c-1.9,0-2.4-1.1-2.4-1.7c0.6,0.5,1.3,0.7,2.4,0.7
				c0.2,0,0.8,0,1.6-0.1c0.3-0.4,0.9-1.4,0.9-1.7c0-0.3-0.5-0.5-1.4-0.6c0.3-0.3,0.7-0.6,1.7-0.6c1,0,1.9,0.6,1.9,0.9
				c0,0.3-0.1,0.4-0.5,0.8c-0.1,0.1-0.2,0.2-0.8,0.9c0.3-0.1,1.7-0.6,2-0.7c0.2,0,0.3-0.1,0.4-0.1c0.5,0,1.2,0.5,1.2,0.8
				c0,0.3-0.3,0.5-0.6,0.6c-1.1,0.4-2.2,0.6-4,0.8c-0.3,0.4-1.5,1.9-1.7,2.2c0.4-0.2,1-0.4,1.9-0.4c1.6,0,2,0.7,2.2,1.3
				c0.5-0.2,3-1.4,3.1-1.4c0.4-0.2,0.5-0.3,0.5-0.5c0-0.2-0.1-0.2-0.8-0.5c0.1-0.1,0.4-0.2,0.8-0.2c1.1,0,2.4,0.9,2.4,1.7
				C317.2,33.8,316.8,33.8,316.5,33.9z"/>
			<path class="st2" d="M325.4,41c-0.8,0-1-0.5-1.4-1.4c-0.7-1.6-1.7-2.3-2.2-2.6l0.1-0.2c1.3,0.2,2.5,0.5,3.5,1.2
				c0.9,0.6,1.2,1.3,1.2,1.8C326.6,40.4,326.2,41,325.4,41z"/>
			<path class="st2" d="M352.1,41.2c-3.1-0.5-5.2-2.1-6.2-4.6h-0.1c-1.2,3-4.3,4.4-8,4.5v-0.1c2.6-0.4,5.3-2.3,6-4.4h-4
				c-1.2,0-1.6,0-1.9,0.1l-0.3-0.6c0.8,0.1,1.7,0.1,2.5,0.1h3.8c0.2-0.8,0.3-1.6,0.2-2.1h-4.5c-1.2,0-1.6,0-1.9,0.1l-0.3-0.6
				c0.8,0.1,1.7,0.1,2.5,0.1h4.3v-1.9h-2.8c-1.3,0-1.6,0-1.9,0.1l-0.3-0.6c0.8,0.1,1.7,0.1,2.6,0.1h2.5v-1.6h-3.9
				c-1.2,0-1.6,0-1.9,0.1l-0.3-0.6c0.8,0.1,1.7,0.1,2.5,0.1h1.8c-0.2-0.1-0.2-0.2-0.5-0.8c-0.3-0.7-0.7-1.3-1.4-1.7l0-0.1
				c0.8,0.1,3.5,0.3,3.5,1.8c0,0.1,0,0.5-0.4,0.8h2.4c0.1-0.1,0.9-1.6,1-2.9l2.2,1c0.2,0.1,0.2,0.2,0.2,0.3c0,0.3-0.2,0.3-0.7,0.3
				c-0.7,0.5-0.8,0.5-2.1,1.3h3.3l0.8-1.1c0.1-0.1,0.2-0.2,0.3-0.2c0.1,0,0.3,0.1,0.3,0.2l1.2,1c0.1,0,0.2,0.2,0.2,0.3
				c0,0.2-0.2,0.2-0.3,0.2h-6.3v1.6h2.5l0.7-0.9c0.1-0.1,0.2-0.2,0.3-0.2c0.1,0,0.3,0.1,0.3,0.2l1.1,0.9c0.1,0.1,0.2,0.1,0.2,0.2
				c0,0.2-0.2,0.2-0.3,0.2h-4.8v1.9h4.5l0.8-1c0.1-0.1,0.2-0.2,0.3-0.2c0.1,0,0.2,0.1,0.3,0.2l1.3,1c0.1,0.1,0.2,0.2,0.2,0.3
				c0,0.2-0.2,0.2-0.3,0.2h-8l1,0.2c0.3,0.1,0.4,0.1,0.4,0.3c0,0.2-0.2,0.3-0.6,0.5c0,0.3-0.1,0.6-0.2,1.1h4.5l0.8-1
				c0.1-0.1,0.2-0.2,0.3-0.2c0.1,0,0.2,0.1,0.3,0.2l1.3,1c0.1,0.1,0.2,0.2,0.2,0.3c0,0.2-0.2,0.2-0.3,0.2h-6.8
				c0.9,1.2,3.1,2.6,7.5,2.7v0.1C352.8,40,352.3,40.8,352.1,41.2z"/>
			<path class="st2" d="M365.2,40.8c-3.6,0-3.9-1.9-3.9-4.4c0-1,0.2-5.6,0.2-6.6c0-0.7-0.1-0.9-0.2-1.1c-0.1-0.1-0.7-0.5-1.5-0.5
				c0.7-0.5,1.5-0.6,1.8-0.6c1,0,2.4,0.8,2.4,1.4c0,0.2-0.3,1.1-0.4,1.3c-0.5,1.7-0.7,5.6-0.7,6.7c0,1.3,0,2.3,2,2.3
				c2.3,0,6.3-1.5,8-3.1l0.1,0.1C371.5,39.3,368.3,40.8,365.2,40.8z"/>
			<path class="st2" d="M386.8,41.5c-0.5,0-0.5,0-1.7-1.8c-0.9-1.3-1.6-1.8-4.6-4.4c-0.6-0.5-0.7-0.8-0.7-1.1c0-0.3,0-0.6,0.8-1.3
				c2.9-2.7,4.4-4.1,4.4-4.8c0-0.6-0.8-1-1.1-1.1c0.2-0.1,0.3-0.1,0.7-0.1c1.4,0,2.7,1.2,2.7,1.8c0,0.4-0.4,0.7-0.8,0.9
				c-0.6,0.3-3.5,2.4-5.1,3.9c-0.1,0-0.4,0.3-0.4,0.7c0,0.3,0.1,0.5,0.6,0.7c1.5,0.9,4,2.7,5.4,3.9c0.3,0.3,0.8,0.9,0.8,1.6
				C387.8,41,387.4,41.5,386.8,41.5z"/>
			<path class="st2" d="M405,30.3c-0.5,0.4-1.6,1.3-3.2,2c0.2,0,0.4,0.1,0.4,0.3c0,0.1-0.1,0.2-0.6,0.5c0,0.2,0,1.1,0,1.3h1.1
				l0.6-0.9c0.1-0.1,0.2-0.2,0.3-0.2c0.1,0,0.2,0,0.3,0.2l1.2,0.9c0.1,0.1,0.2,0.1,0.2,0.2c0,0.1-0.2,0.2-0.3,0.2h-3.4v1
				c1.2,0.1,3,0.8,3,1.9c0,0.3-0.2,0.8-0.9,0.8c-0.5,0-0.6-0.2-1.1-1c-0.2-0.3-0.5-0.9-1-1.3c0,0.7,0,3.7,0,4.3c0,0.5,0,1.1-1.1,1.1
				c-0.8,0-0.8-0.5-0.8-0.7c0-0.4,0.1-3.6,0.1-4c-1.1,1.4-3,2.8-4.4,3.3l-0.1-0.1c1.6-1.5,3.5-4.7,3.7-5.3h-1.7
				c-0.8,0-1.1,0-1.4,0.1l-0.3-0.5c0.9,0.1,1.8,0.1,2,0.1h2.1c0-1.6-0.1-1.7-0.3-2.5l2,0.4c1-1.3,1.7-2.8,1.8-3.6l2,1
				c0.1,0.1,0.2,0.1,0.2,0.3C405.7,30,405.6,30,405,30.3z M404.2,28.4c-0.4,0-0.5,0-0.8,0c-1.5,0.3-2.9,0.5-3.9,0.6
				c0.8,0.2,2.2,0.6,2.2,1.7c0,0.6-0.5,0.9-0.9,0.9c-0.6,0-0.7-0.3-1.1-1.2c-0.1-0.2-0.3-0.9-0.8-1.3c-0.4,0-1,0.1-1.9,0.1
				c-0.6,0-1,0-1.4,0V29c1.9-0.4,5.9-1.3,6.9-2.2l1.9,1.2c0.1,0,0.1,0.1,0.1,0.2C404.7,28.4,404.4,28.4,404.2,28.4z M398.1,32.4
				c-0.6,0-0.8-0.4-0.9-0.9c0-0.1-0.4-1.2-1-1.9l0.1-0.1c0.9,0.2,2.8,0.7,2.8,2C399.1,32,398.6,32.4,398.1,32.4z M411.2,36.8
				c-2.2,2.4-5.5,4-8.9,4.5l-0.1-0.1c2.5-0.9,5.2-3,7-5.2c0.4-0.5,0.5-0.9,0.6-1.2l1.9,1.4c0.1,0.1,0.2,0.1,0.2,0.2
				C412,36.6,411.9,36.6,411.2,36.8z M410.5,29.1c-1.6,1.3-3.5,2.4-6.5,3.2l0-0.1c2.2-1.3,4.6-3.5,5.2-5l2,1.3
				c0.1,0.1,0.2,0.1,0.2,0.2C411.3,29,411,29.1,410.5,29.1z M411,32.9c-1.5,1.2-3.5,2.5-6.7,3.3l-0.1-0.1c2.3-1.2,4-3.1,5-4.2
				c0.3-0.3,0.4-0.6,0.5-0.9l1.9,1.4c0.1,0.1,0.1,0.2,0.1,0.2C411.7,32.8,411.7,32.8,411,32.9z"/>
			<path class="st2" d="M425.3,40.5c-2,0-3.8-0.8-3.8-2.1c0-1.1,1.4-1.6,2.3-1.6c0.8,0,2.3,0.4,2.7,2.1c1.1-0.2,2-1.4,2-2.6
				c0-1.2-0.9-2.3-2.6-2.3c-3.2,0-5.1,2.5-6,3.8c-0.2,0.3-0.5,0.7-1,0.7c-0.6,0-0.8-0.5-0.8-1c0-0.6,0.4-1,1.3-1.8
				c0.8-0.7,1.2-1.1,4.4-4.6c0.6-0.6,1.3-1.4,1.5-1.7c0.1-0.1,0.1-0.2,0.1-0.2c0-0.1,0-0.1-0.2-0.1c-0.3,0-2.7,1.1-2.8,1.2
				c-0.3,0.2-0.4,0.3-0.7,0.3c-0.7,0-1.6-0.6-1.6-1.5c0-0.3,0.1-0.7,0.4-1c0.4,0.6,0.7,0.9,1.4,0.9c0.9,0,2.7-0.5,3.3-0.7
				c0.2,0,0.8-0.3,0.9-0.3c0.7,0,1.8,0.8,1.8,1.3c0,0.4-0.2,0.5-1.1,1c-0.7,0.4-3.8,3.1-4.5,4.2c1.1-0.5,2.3-1,4.1-1
				c3.3,0,4.2,2,4.2,3.1C430.7,38.3,428.8,40.5,425.3,40.5z M423.2,37.5c-0.3,0-0.9,0.2-0.9,0.7c0,0.9,1.9,1.2,2.3,1.2
				c0.3,0,0.4,0,0.6-0.1C424.8,37.8,423.7,37.5,423.2,37.5z"/>
		</g>
		<g>
			<path class="st2" d="M210.4,122.9c-0.5,0-1.2-0.1-2-0.3c-0.5-0.2-0.6-0.2-0.8-0.2c-0.7,0-1.4,0.3-1.8,0.5l-1.4-3.7l0.6-0.2
				c0.4,0.8,2.5,3.3,5.4,3.3c2.2,0,3.2-1.5,3.2-2.6c0-1.4-1.4-2.1-4-3c-1.4-0.5-4.3-1.5-4.3-4.2c0-1.7,1.4-3.7,4.4-3.7
				c0.5,0,0.7,0,2.1,0.3c0.4,0.1,0.4,0.1,0.5,0.1c0.2,0,0.6,0,1.3-0.3l1.3,3.2l-0.6,0.2c-0.2-0.3-0.5-0.8-1-1.4
				c-1-1-2.4-1.5-3.7-1.5c-1.7,0-2.8,0.9-2.8,2.3c0,1.4,1.2,2.1,3.7,2.9c3,1,4.8,1.9,4.8,4.2C215.2,120.9,213.3,122.9,210.4,122.9z"
				/>
			<path class="st2" d="M225.6,122.5v-0.6h1c0.5,0,1-0.2,1-0.7c0-0.2-0.1-0.6-0.2-0.8l-1-2.6H221l-1,2.9c0,0.1-0.1,0.3-0.1,0.5
				c0,0.4,0.4,0.8,1.1,0.8h0.9v0.6h-5.1v-0.6h0.6c0.5,0,1.4,0,1.9-1.5l4.1-11.4l1.9-0.2l4.6,11.6c0.3,0.7,0.8,1.6,2,1.6h0.5v0.6
				H225.6z M223.5,110.7l-2.3,6.4h4.8L223.5,110.7z"/>
			<path class="st2" d="M240,122.9c-0.5,0-1.2-0.1-2-0.3c-0.5-0.2-0.6-0.2-0.8-0.2c-0.7,0-1.4,0.3-1.8,0.5l-1.4-3.7l0.6-0.2
				c0.4,0.8,2.5,3.3,5.4,3.3c2.2,0,3.2-1.5,3.2-2.6c0-1.4-1.4-2.1-4-3c-1.4-0.5-4.3-1.5-4.3-4.2c0-1.7,1.4-3.7,4.4-3.7
				c0.5,0,0.7,0,2.1,0.3c0.4,0.1,0.4,0.1,0.5,0.1c0.2,0,0.6,0,1.3-0.3l1.3,3.2l-0.6,0.2c-0.2-0.3-0.5-0.8-1-1.4
				c-1-1-2.4-1.5-3.7-1.5c-1.7,0-2.8,0.9-2.8,2.3c0,1.4,1.2,2.1,3.7,2.9c3,1,4.8,1.9,4.8,4.2C244.9,120.9,243,122.9,240,122.9z"/>
			<path class="st2" d="M255.3,122.5v-0.6h1c0.5,0,1-0.2,1-0.7c0-0.2-0.1-0.6-0.2-0.8l-1-2.6h-5.3l-1,2.9c0,0.1-0.1,0.3-0.1,0.5
				c0,0.4,0.4,0.8,1.1,0.8h0.9v0.6h-5.1v-0.6h0.6c0.5,0,1.4,0,1.9-1.5l4.1-11.4l1.9-0.2l4.6,11.6c0.3,0.7,0.8,1.6,2,1.6h0.5v0.6
				H255.3z M253.2,110.7l-2.3,6.4h4.8L253.2,110.7z"/>
			<path class="st2" d="M272.8,122.5v-0.6h0.5c0.6,0,1-0.3,1-0.6c0-0.2-0.1-0.5-0.2-0.7l-3.4-5l-2,1.8v3.2c0,0.8,0.4,1.3,1.5,1.3
				h0.7v0.6h-6.6v-0.6h0.5c1.1,0,1.5-0.4,1.5-1.3V111c0-0.8-0.4-1.3-1.5-1.3h-0.5v-0.6h6.6v0.6h-0.7c-1.1,0-1.5,0.4-1.5,1.3v5.6
				l6-5.6c0.3-0.3,0.4-0.5,0.4-0.7c0-0.3-0.3-0.5-0.8-0.5h-0.9v-0.6h6v0.6h-0.9c-1.4,0-2,0.4-3.1,1.4l-3,2.8l4.6,6.8
				c0.5,0.8,1.2,1.2,2.2,1.2h0.7v0.6H272.8z"/>
			<path class="st2" d="M281.9,122.5v-0.6h0.8c1.1,0,1.5-0.4,1.5-1.3V111c0-0.8-0.3-1.3-1.5-1.3h-0.8v-0.6h7v0.6h-0.8
				c-1.3,0-1.5,0.5-1.5,1.3v9.7c0,0.9,0.4,1.3,1.5,1.3h0.8v0.6H281.9z"/>
			<path class="st2" d="M304.8,112.8c-1.3-2.1-2.4-3-4.3-3c-1.1,0-1.3,0.4-1.3,1.3v9.5c0,0.9,0.4,1.5,1.5,1.5h1.2v0.6H294v-0.6h1.2
				c1.1,0,1.5-0.6,1.5-1.5V111c0-1-0.3-1.3-1.4-1.3c-2.3,0-3.5,1.9-4.2,3l-0.6-0.2l1.5-3.4h11.9l1.5,3.4L304.8,112.8z"/>
			<path class="st2" d="M314.5,122.9c-2.7,0-6.8-2.1-6.8-7c0-4.9,4.1-7,6.8-7c2.7,0,6.8,2.1,6.8,7
				C321.3,120.8,317.2,122.9,314.5,122.9z M314.5,109.3c-2,0-4.1,2.1-4.1,6.5c0,3.7,1.7,6.5,4.1,6.5c1.4,0,2.4-1,2.8-1.6
				c0.8-1.2,1.3-3.2,1.3-5C318.6,112.4,317.1,109.3,314.5,109.3z"/>
			<path class="st2" d="M329.3,122.9c-0.5,0-1.2-0.1-2-0.3c-0.5-0.2-0.6-0.2-0.8-0.2c-0.7,0-1.4,0.3-1.8,0.5l-1.4-3.7l0.6-0.2
				c0.4,0.8,2.5,3.3,5.4,3.3c2.2,0,3.2-1.5,3.2-2.6c0-1.4-1.4-2.1-4-3c-1.4-0.5-4.3-1.5-4.3-4.2c0-1.7,1.4-3.7,4.4-3.7
				c0.5,0,0.7,0,2.1,0.3c0.4,0.1,0.4,0.1,0.5,0.1c0.2,0,0.6,0,1.3-0.3l1.3,3.2l-0.6,0.2c-0.2-0.3-0.5-0.8-1-1.4
				c-1-1-2.4-1.5-3.7-1.5c-1.7,0-2.8,0.9-2.8,2.3c0,1.4,1.2,2.1,3.7,2.9c3,1,4.8,1.9,4.8,4.2C334.1,120.9,332.2,122.9,329.3,122.9z"
				/>
			<path class="st2" d="M343.2,122.9c-2.7,0-6.8-2.1-6.8-7c0-4.9,4.1-7,6.8-7c2.7,0,6.8,2.1,6.8,7
				C350.1,120.8,346,122.9,343.2,122.9z M343.2,109.3c-2,0-4.1,2.1-4.1,6.5c0,3.7,1.7,6.5,4.1,6.5c1.4,0,2.4-1,2.8-1.6
				c0.8-1.2,1.3-3.2,1.3-5C347.4,112.4,345.8,109.3,343.2,109.3z"/>
			<path class="st2" d="M366.3,109.7h-0.7c-1.1,0-1.5,0.5-1.5,1.5v7.2c0,2.1-1.2,4.4-5.1,4.4c-2.6,0-5.2-1.1-5.2-4.6V111
				c0-0.8-0.4-1.3-1.5-1.3h-0.7v-0.6h6.9v0.6h-0.7c-1.1,0-1.5,0.4-1.5,1.3v7c0,2.8,1.7,4.1,3.7,4.1c2,0,3.5-1.5,3.5-3.6v-7.3
				c0-0.9-0.5-1.5-1.5-1.5h-0.5v-0.6h4.9V109.7z"/>
		</g>
		<g>
			<path class="st2" d="M373.7,121.3c-0.7,0.6-1.4,0.7-2,0.7c-1.6,0-3.1-1.3-3.1-3.2c0-1.9,1.3-3.6,3.3-3.6c0.2,0,0.4,0,0.7,0.1
				c0.3,0.1,0.4,0.1,0.5,0.1c0.2,0,0.5-0.1,0.7-0.2l0.7,1.6l-0.3,0.1c-0.2-0.3-0.4-0.6-0.8-0.9c-0.4-0.3-0.8-0.5-1.4-0.5
				c-0.6,0-1.1,0.3-1.5,0.7c-0.3,0.4-0.5,1.3-0.5,2c0,1.9,1.1,3,2.4,3c0.1,0,0.5,0,0.9-0.3c0.6-0.3,0.8-0.8,1-1.1l0.2,0.1
				C374.4,120.6,374.2,120.9,373.7,121.3z"/>
			<path class="st2" d="M378.3,122c-1.7,0-2.4-1.3-2.4-2.3c0-1,0.7-2.3,2.4-2.3c1.8,0,2.4,1.3,2.4,2.3
				C380.7,120.7,380,122,378.3,122z M378.2,117.8c-0.7,0-1.1,0.4-1.1,2c0,1.6,0.4,2,1.1,2c0.7,0,1.1-0.4,1.1-2
				C379.3,118.1,378.9,117.8,378.2,117.8z"/>
			<path class="st2" d="M382.7,122c-0.5,0-0.8-0.3-0.8-0.7c0-0.4,0.4-0.7,0.8-0.7c0.5,0,0.8,0.3,0.8,0.7
				C383.5,121.7,383.1,122,382.7,122z"/>
			<path class="st2" d="M385.1,123.1l-0.2-0.2c0.4-0.3,0.7-0.5,0.7-0.7c0-0.1-0.1-0.1-0.2-0.2c-0.6-0.2-0.6-0.6-0.6-0.7
				c0-0.4,0.4-0.7,0.8-0.7c0.3,0,0.8,0.2,0.8,0.8C386.5,122.2,385.7,122.7,385.1,123.1z"/>
			<path class="st2" d="M391,115.4v0.3h-0.4c-0.3,0-0.6,0.2-0.6,0.6v4.7c0,0.3,0.3,0.6,0.7,0.6h0.3c1.3,0,2.2-0.5,2.8-1.5l0.3,0.1
				l-0.6,1.6h-5.8v-0.3h0.3c0.3,0,0.7-0.3,0.7-0.6v-4.7c0-0.3-0.3-0.6-0.6-0.6h-0.3v-0.3H391z"/>
			<path class="st2" d="M396.5,122c-0.3,0-1.1-0.1-1.1-1.1v-3h-0.8v-0.3c0.4,0,0.9,0,1.3-0.4c0.4-0.4,0.4-0.8,0.4-1.1h0.3v1.5h1.3
				v0.3h-1.3v3.1c0,0.3,0.2,0.4,0.5,0.4c0.3,0,0.5-0.2,0.7-0.3l0.2,0.2C397.8,121.5,397.3,122,396.5,122z"/>
			<path class="st2" d="M401.9,121.8v-0.3c-0.3,0.2-0.5,0.5-1.1,0.5c-1.3,0-1.9-1-1.9-2.2c0-1.5,1-2.3,1.9-2.3c0.6,0,1,0.3,1.2,0.4
				v-1.7c0-0.2-0.1-0.4-0.4-0.4c-0.1,0-0.3,0-0.5,0.1l-0.1-0.2l2.2-0.4v5.9c0,0.2,0.2,0.4,0.5,0.4h0.2v0.3H401.9z M401.9,118.2
				c-0.1-0.1-0.3-0.2-0.6-0.2c-1.1,0-1.1,1.5-1.1,1.8c0,0.9,0.2,1.6,1.1,1.6c0.4,0,0.6-0.1,0.7-0.2V118.2z"/>
		</g>
	</g>
</g>
<g id="レイヤー_2">
	<polyline class="st3" points="74.8,112.6 87.1,112.6 87.1,73.6 102.3,73.6 54.1,25.4 5.8,73.6 	"/>
	<rect x="22.4" y="104" class="st3" width="51.8" height="17.1"/>
	<path class="st2" d="M25.8,63.3v40.3H71V63.3H25.8z M52.7,87.2L52.7,87.2c0,1.9-1.6,3.5-3.6,3.5c-1.8,0-3.4-1.4-3.5-3.3
		c-0.1,0-0.1,0-0.2,0c-2,0-3.6-1.6-3.6-3.6s1.6-3.6,3.6-3.6c0.2,0,0.2,0,0.4,0l0,0h6.9V87.2z M52.7,79.6h-6.9l0,0
		c-0.2,0-0.2,0-0.4,0c-2,0-3.6-1.6-3.6-3.6s1.6-3.6,3.6-3.6c0.1,0,0.1,0,0.2,0c0.2-1.8,1.7-3.3,3.5-3.3c1.9,0,3.5,1.6,3.5,3.5l0,0
		L52.7,79.6L52.7,79.6z M61,87.5c-0.1,0-0.1,0-0.2,0c-0.2,1.8-1.7,3.3-3.5,3.3c-1.9,0-3.5-1.6-3.5-3.5l0,0v-6.9h6.9l0,0
		c0.2,0,0.2,0,0.4,0c2,0,3.6,1.6,3.6,3.6C64.6,85.9,63,87.5,61,87.5z M61,79.6c-0.2,0-0.2,0-0.4,0l0,0h-6.9v-6.9l0,0
		c0-1.9,1.6-3.5,3.5-3.5c1.8,0,3.4,1.4,3.5,3.3c0.1,0,0.1,0,0.2,0c2,0,3.6,1.6,3.6,3.6C64.6,78,63,79.6,61,79.6z"/>
</g>
</svg>
