<?xml version="1.0" encoding="utf-8"?>
<!-- Generator: Adobe Illustrator 26.3.1, SVG Export Plug-In . SVG Version: 6.00 Build 0)  -->
<svg version="1.1" id="レイヤー_1" xmlns="http://www.w3.org/2000/svg" xmlns:xlink="http://www.w3.org/1999/xlink" x="0px"
	 y="0px" viewBox="0 0 505.6 144" style="enable-background:new 0 0 505.6 144;" xml:space="preserve">
<style type="text/css">
	.st0{display:none;fill:#85C6CE;}
	.st1{fill:none;stroke:#FFFFFF;stroke-width:3.1424;stroke-linecap:round;stroke-linejoin:round;stroke-miterlimit:10;}
	.st2{fill:#FFFFFF;}
</style>
<polygon class="st0" points="662.4,950.9 -44.4,679.3 -44.4,-163.3 662.4,-313 "/>
<polyline class="st1" points="93.6,123.5 109,123.5 109,74.8 128,74.8 67.7,14.5 7.3,74.8 "/>
<rect x="29.1" y="112.8" class="st1" width="64.8" height="21.4"/>
<path class="st2" d="M33.3,61.9v50.4h56.5V61.9H33.3z M67,91.8L67,91.8c0,2.4-2,4.4-4.5,4.4c-2.3,0-4.2-1.8-4.4-4.1
	c-0.1,0-0.1,0-0.2,0c-2.5,0-4.5-2-4.5-4.5c0-2.5,2-4.5,4.5-4.5c0.2,0,0.3,0,0.5,0v0H67V91.8z M67,82.3h-8.6v0c-0.2,0-0.3,0-0.5,0
	c-2.5,0-4.5-2-4.5-4.5c0-2.5,2-4.5,4.5-4.5c0.1,0,0.1,0,0.2,0c0.2-2.3,2.1-4.1,4.4-4.1c2.4,0,4.4,2,4.4,4.4h0V82.3z M77.3,92.2
	c-0.1,0-0.1,0-0.2,0c-0.2,2.3-2.1,4.1-4.4,4.1c-2.4,0-4.4-2-4.4-4.4h0v-8.6h8.6v0c0.2,0,0.3,0,0.5,0c2.5,0,4.5,2,4.5,4.5
	C81.8,90.2,79.8,92.2,77.3,92.2z M77.3,82.3c-0.2,0-0.3,0-0.5,0v0h-8.6v-8.6h0c0-2.4,2-4.4,4.4-4.4c2.3,0,4.2,1.8,4.4,4.1
	c0.1,0,0.1,0,0.2,0c2.5,0,4.5,2,4.5,4.5C81.8,80.3,79.8,82.3,77.3,82.3z"/>
<g>
	<g>
		<path class="st2" d="M142.8,21.9c1.7-2.5,3.5-6.8,4.6-11l2.6,0.8c-0.1,0.3-0.3,0.4-0.8,0.4c-0.5,1.4-1.2,2.9-1.8,4.2l0.8,0.3
			c-0.1,0.2-0.3,0.3-0.6,0.4v13c0,0.1-0.7,0.5-1.4,0.5h-0.3V18.9c-0.8,1.2-1.7,2.3-2.6,3.1L142.8,21.9z M160.4,27.4l2.2,1.6
			c-0.2,0.3-0.4,0.4-1,0.4h-12.8c0,0,0-0.1-0.1-0.5h5.8v-6.4h-4.5c0-0.1,0-0.1-0.1-0.5h4.6v-5.7h-5.1l-0.1-0.5h9.6l1.1-1.4l2.1,1.5
			c-0.2,0.3-0.4,0.4-1,0.4h-4.7V22h2.2l1-1.4l2,1.4c-0.2,0.3-0.4,0.4-1,0.4h-4.2v6.4h3.1L160.4,27.4z M152.3,10.9
			c3.7,0.5,4.8,2.1,4.8,3.2c0,0.6-0.4,1.1-0.9,1.1c-0.2,0-0.4-0.1-0.7-0.2c-0.5-1.4-2-3-3.3-3.8L152.3,10.9z"/>
	</g>
	<g>
		<path class="st2" d="M171.3,12.4c0.1-0.4,0.7-0.9,1.3-0.9c1.3,0,2.5,0.6,2.5,1.2c0,0.3-0.3,0.5-0.4,1c0,0.2,0,0.7-0.1,1.2
			c0.9-0.1,3.9-0.4,4.1-1.2l0.2-0.1c0.8,0.2,2.2,0.1,2.2,0.9c0,0.5-0.8,0.7-2,1c-1.2,0.3-3.4,0.5-4.7,0.6c0,0.5,0,3,0,3.4
			c0.3,0,3.6-0.3,3.6-0.8c0-0.1-0.1-0.3-0.3-0.4l0.3-0.2c0.5,0.3,0.6,0.4,1,0.4c0.6,0,1.4,0.1,1.4,0.6c0,0.6-0.2,1.1-6,1.6
			c0,1.2,0.1,2.3,0.2,3l0.1,0.7c2,0.5,4,1.4,5,2.2c0.7,0.5,0.9,1,0.9,1.5c0,0.4-0.4,0.7-0.8,0.7c-0.4,0-0.8-0.1-1.4-0.7
			c-0.8-0.9-2.1-1.7-3.7-2.3c0,0.3,0,0.8,0,1.1c0,1.7-1.2,2.6-4,2.6c-2.9,0-4.4-1.3-4.4-2.9c0-1.7,2.2-2.6,4.6-2.6
			c0.7,0,1.5,0.1,2.1,0.2c0-0.2-0.2-2.8-0.2-3.3c-0.8,0.1-2,0.1-3,0.1c-2.2,0-3-0.6-3-1.6c0-0.7,0.8-1.4,2-2l0.2,0.3
			c-0.9,0.5-1.3,1-1.3,1.4c0,0.5,0.7,0.8,2.1,0.8c0.9,0,2.2-0.1,3-0.2l-0.1-3.5c-1.1,0.1-2.7,0.1-3.4,0.1c-2,0-3-0.4-3.7-1.8
			l0.3-0.3c0.6,0.7,1.8,1,2.9,1c1,0,2.9-0.1,3.9-0.2v-1c0-1.1,0-1.6-1.2-1.6c-0.1,0-0.3,0-0.5,0L171.3,12.4z M173.5,25.2
			c-0.8-0.2-1.7-0.4-2.4-0.4c-2,0-3.3,0.7-3.3,1.6c0,1.1,1.3,1.6,3.1,1.6c1.9,0,2.5-0.5,2.5-1.7C173.5,26.2,173.5,25.4,173.5,25.2z"
			/>
	</g>
	<g>
		<path class="st2" d="M185.7,14.2c0.2-0.2,0.5-0.3,0.7-0.3c1.4,0,2.6,1.2,2.6,2.2c0,0.4-0.2,0.6-0.3,0.9c-0.3,0.9-0.7,2.1-0.7,4.7
			c0,2.3,1.3,4.1,1.9,4.1c0.3,0,0.5-0.2,1-0.9c0.6-0.8,1.8-2.7,2.7-4.3l0.4,0.2c-2,4.4-2.5,5.5-2.5,6c0,0.1,0,0.3,0.1,0.3
			c0.2,0.3,0.4,0.6,0.4,0.8c0,0.5-0.4,0.6-1,0.6c-1.5,0-4.4-2.3-4.4-7.3c0-0.8,0.2-4.5,0.2-5C187,14.9,186.4,14.3,185.7,14.2
			L185.7,14.2z M197.8,15.4c4.1,0.7,6,3.9,6,6.3c0,0.9-0.3,1.8-1,1.8c-0.4,0-0.8-0.3-0.8-0.9c-0.1-3-1.5-5.9-4.3-6.7L197.8,15.4z"/>
	</g>
	<g>
		<path class="st2" d="M221,17.3c0.2-0.3,0.8-0.5,1.2-0.5c1.3,0,2.4,1.2,2.4,1.8c0,0.7-0.6,0.8-1.6,1.1c-1,0.3-3.3,1.2-5.1,2
			c0,0.3,0.1,0.6,0.1,0.9c0,2.4-0.5,3.3-1.2,3.3c-0.4,0-0.7-0.3-0.7-1c0-0.1,0-0.2,0-0.4c0.2-1.6,0.2-1.7,0.2-2.2
			c-1.8,1-3.4,2.2-3.4,3.8c0,1.3,1.3,1.8,3.7,1.8c1.9,0,3.7-0.1,4-0.5c1.4,0.2,2.2,0.5,2.2,1c0,0.5-0.2,0.7-1.1,0.8
			c-0.9,0.2-3.1,0.3-4.3,0.3c-4.2,0-5.7-1.1-5.7-3c0-2.1,2.5-3.9,4.6-5.1c0-0.1,0-0.3,0-0.4c-0.1-1.4-0.7-2-1.5-2
			c-1.8,0-4,2.3-5.8,4.9c-0.5,0.8-0.8,1.2-1.2,1.2c-0.4,0-0.8-0.4-0.8-1c0-0.6,0.5-1,1.1-1.5c1.7-1.5,3.5-4.3,4.1-6.2
			c-0.5,0.1-1.2,0.1-1.6,0.1c-1.2,0-1.9-0.4-2.2-0.8c-0.3-0.3-0.5-0.8-0.7-1.3l0.2-0.2c0.5,0.8,1.3,1.2,2.6,1.2c0.5,0,1.4-0.1,2-0.2
			c0.3-0.8,0.4-1.5,0.4-2c0-0.5-0.5-0.8-1.1-0.8c-0.2,0-0.3,0-0.5,0.1l0,0c0.1-0.4,0.6-0.9,1.4-0.9c1.2,0,2.3,0.6,2.3,1.1
			c0,0.4-0.3,0.6-0.5,1c-0.1,0.4-0.3,0.9-0.5,1.3c0.2,0,3.9-0.5,4.2-1.6c1.3,0,2.3,0.2,2.3,0.9c0,0.4-0.7,0.7-1.3,0.9
			c-1.3,0.4-3.9,0.9-5.7,1.1c-0.6,1.5-1.4,2.9-2,3.8l0.1,0c1.4-1.3,2.6-1.7,3.4-1.7c1.2,0,2.3,0.6,2.6,2.4c2.1-1,4.5-2,4.5-2.5
			c0-0.4-0.4-0.6-0.8-0.6c-0.1,0-0.2,0-0.3,0L221,17.3z"/>
	</g>
	<g>
		<path class="st2" d="M227.7,25.3c3,1,5.1,2.6,5.1,4c0,0.7-0.5,1.1-1,1.1c-0.4,0-0.8-0.2-1-0.7c-0.4-1.4-1.4-3-3.2-4.1L227.7,25.3z
			"/>
	</g>
	<g>
		<path class="st2" d="M247.9,16.3c1.6-1.6,3.3-3.9,4.1-5.4l2.2,1.3c-0.1,0.1-0.2,0.2-0.4,0.2c-0.1,0-0.2,0-0.4,0
			c-1.2,1.3-3.2,3.1-5.2,4.3L247.9,16.3z M247.9,22.8c1.8-2.2,3.6-5.5,4.5-7.6l2.3,1.2c-0.1,0.2-0.2,0.3-0.5,0.3c-0.1,0-0.2,0-0.3,0
			c-0.5,0.7-1.1,1.6-1.8,2.5l0.8,0.3c-0.1,0.2-0.3,0.3-0.7,0.4v10.1c0,0.1-0.7,0.6-1.3,0.6h-0.3v-9.7c-0.8,0.8-1.6,1.6-2.5,2.3
			L247.9,22.8z M265.8,16.6l2,1.4c-0.2,0.3-0.4,0.4-1,0.4h-1.2v9.7c0,1.3-0.3,2.1-2.5,2.3c0-1.4-0.7-1.6-2.3-1.7v-0.3h2.7
			c0.3,0,0.4-0.1,0.4-0.3v-9.7h-1.8c-0.1,0.1-0.2,0.3-0.4,0.3c-0.1,0-0.3,0.1-0.6,0.1h-3.4l1.2,0.1c0,0.3-0.2,0.4-0.7,0.4v3.1h1
			l1-1.3l1.8,1.3c-0.1,0.3-0.4,0.4-1,0.4h-2.9v3.4l4.1-0.7l0,0.3c-1.7,0.7-4.2,1.5-7.7,2.6c-0.1,0.3-0.3,0.4-0.5,0.5L253,27
			c0.8-0.1,2-0.3,3.5-0.5v-3.6h-3l-0.1-0.5h3.1v-3.6h-3.3l-0.1-0.5h3.4v-3.5h-2.9l-0.1-0.5h3V11l2.5,0.2c0,0.3-0.2,0.4-0.8,0.5v2.7
			h0.8l0.9-1.3l1.8,1.3c-0.2,0.3-0.4,0.4-1,0.4h-2.5v3.5h1.1l1-1.3l1.3,0.9h3.2L265.8,16.6z M267.5,13c-0.2,0.3-0.4,0.4-1,0.4h-5.1
			l-0.1-0.5h3.3l1-1.3L267.5,13z"/>
	</g>
	<g>
		<path class="st2" d="M284,17.3c0.2-0.3,0.8-0.5,1.2-0.5c1.3,0,2.4,1.2,2.4,1.8c0,0.7-0.6,0.8-1.6,1.1c-1,0.3-3.3,1.2-5.1,2
			c0,0.3,0.1,0.6,0.1,0.9c0,2.4-0.5,3.3-1.2,3.3c-0.4,0-0.7-0.3-0.7-1c0-0.1,0-0.2,0-0.4c0.2-1.6,0.2-1.7,0.2-2.2
			c-1.8,1-3.4,2.2-3.4,3.8c0,1.3,1.3,1.8,3.7,1.8c1.9,0,3.7-0.1,4-0.5c1.4,0.2,2.2,0.5,2.2,1c0,0.5-0.2,0.7-1.1,0.8
			c-0.9,0.2-3.1,0.3-4.3,0.3c-4.2,0-5.7-1.1-5.7-3c0-2.1,2.5-3.9,4.6-5.1c0-0.1,0-0.3,0-0.4c-0.1-1.4-0.7-2-1.5-2
			c-1.8,0-4,2.3-5.8,4.9c-0.5,0.8-0.8,1.2-1.2,1.2c-0.4,0-0.8-0.4-0.8-1c0-0.6,0.5-1,1.1-1.5c1.7-1.5,3.5-4.3,4.1-6.2
			c-0.5,0.1-1.2,0.1-1.6,0.1c-1.2,0-1.9-0.4-2.2-0.8c-0.3-0.3-0.5-0.8-0.7-1.3l0.2-0.2c0.5,0.8,1.3,1.2,2.6,1.2c0.5,0,1.4-0.1,2-0.2
			c0.3-0.8,0.4-1.5,0.4-2c0-0.5-0.5-0.8-1.1-0.8c-0.2,0-0.3,0-0.5,0.1l0,0c0.1-0.4,0.6-0.9,1.4-0.9c1.2,0,2.3,0.6,2.3,1.1
			c0,0.4-0.3,0.6-0.5,1c-0.1,0.4-0.3,0.9-0.5,1.3c0.2,0,3.9-0.5,4.2-1.6c1.3,0,2.3,0.2,2.3,0.9c0,0.4-0.7,0.7-1.3,0.9
			c-1.3,0.4-3.9,0.9-5.7,1.1c-0.6,1.5-1.4,2.9-2,3.8l0.1,0c1.4-1.3,2.6-1.7,3.4-1.7c1.2,0,2.3,0.6,2.6,2.4c2.1-1,4.5-2,4.5-2.5
			c0-0.4-0.4-0.6-0.8-0.6c-0.1,0-0.2,0-0.3,0L284,17.3z"/>
	</g>
	<g>
		<path class="st2" d="M290.7,25.3c3,1,5.1,2.6,5.1,4c0,0.7-0.5,1.1-1,1.1c-0.4,0-0.8-0.2-1-0.7c-0.4-1.4-1.4-3-3.2-4.1L290.7,25.3z
			"/>
	</g>
	<g>
		<path class="st2" d="M330.5,24c-0.2,0.3-0.4,0.4-1,0.4h-7.7c1.6,2.7,4.8,3.8,9,4.2l0,0.2c-0.7,0.2-1.2,0.8-1.3,1.6
			c-4.2-0.9-6.8-2.5-8.1-6H321c-0.8,2.8-2.8,4.7-9.7,6l-0.2-0.4c5.3-1.5,7.2-3.2,7.9-5.6h-7.8l-0.1-0.5h8c0.2-0.9,0.3-1.8,0.3-2.9
			l2.7,0.2c0,0.3-0.2,0.4-0.8,0.5c-0.1,0.8-0.2,1.5-0.3,2.2h6.2l1.1-1.4L330.5,24z M311.3,20.5h8.5v-2.6h-6.7l-0.1-0.5h6.8v-2.5H312
			l-0.1-0.5h10.7c0.6-1,1.2-2.5,1.6-3.5l2.5,0.9c-0.1,0.1-0.3,0.2-0.5,0.2c-0.1,0-0.2,0-0.3,0c-0.7,0.7-1.7,1.7-2.6,2.4h3.5l1.1-1.4
			l2,1.4c-0.1,0.3-0.4,0.4-1,0.4h-7.3v2.5h4.3l1-1.3l2,1.3c-0.2,0.3-0.4,0.4-1,0.4h-6.3v2.6h5.7l1.1-1.4l2,1.4
			c-0.2,0.3-0.4,0.4-1,0.4h-17.9L311.3,20.5z M315.4,10.9c2.2,0.6,2.9,1.6,2.9,2.4c0,0.6-0.5,1.1-1,1.1c-0.3,0-0.5-0.1-0.8-0.4
			c-0.1-1-0.7-2.2-1.4-2.9L315.4,10.9z"/>
	</g>
	<g>
		<path class="st2" d="M335.5,12.9c0.2-0.5,0.8-0.9,1.4-0.9c1.3,0,2.6,0.7,2.6,1.6c0,0.5-0.4,0.6-0.6,1.8c-0.3,1.7-0.7,5.8-0.7,8.4
			c0,3,1.5,3.7,3.9,3.7c3.1,0,5.8-1.6,7.7-5l0.4,0.2c-1.7,4.6-4.8,6.4-8.2,6.4c-2.9,0-5.3-1.1-5.3-5.2c0-2.8,0.3-7.1,0.6-10v-0.1
			c0-0.9-0.8-0.9-1.2-0.9C335.9,12.9,335.7,12.9,335.5,12.9L335.5,12.9z"/>
	</g>
	<g>
		<path class="st2" d="M362.4,12c0.3-0.4,0.7-0.6,1.2-0.6c1.2,0,2.9,1,2.9,1.9c0,0.5-0.7,0.7-1.4,1.1c-1.8,1.1-5.2,3.6-6.3,4.7
			c-0.4,0.4-0.7,0.9-0.7,1.3c0,0.5,0.7,1,1.9,1.7c4.5,2.5,7.1,5.4,7.1,6.7c0,0.7-0.4,1.2-1,1.2c-0.4,0-0.9-0.5-1.2-1.1
			c-1.1-1.9-3.5-4.6-6.4-6.4c-0.9-0.5-1.5-1.2-1.5-2.1c0-0.7,0.4-1.4,0.9-1.9c1.2-1.2,3.8-3.5,5.1-4.6c0.5-0.4,0.7-0.8,0.7-1.1
			C363.8,12.3,363,12.1,362.4,12L362.4,12z"/>
	</g>
	<g>
		<path class="st2" d="M380.1,21.7v1.8c3,0.6,4,1.9,4,2.8c0,0.5-0.3,0.9-0.8,0.9c-0.2,0-0.4-0.1-0.7-0.3c-0.3-1.1-1.5-2.4-2.6-3.1
			v6.1c0,0-0.3,0.5-1.7,0.5v-6.1c-1.1,1.6-2.6,3-4.3,4.1l-0.2-0.3c1.8-1.7,3.2-4.1,4-6.4h-3.7l-0.1-0.5h4.4v-2.9l2.5,0.2
			c0,0.3-0.2,0.4-0.8,0.5v2.2h1.8l1-1.3l1.9,1.4c-0.2,0.3-0.4,0.4-1,0.4H380.1z M374.2,13.6c3.1-0.5,6.8-1.7,8.7-2.7l1.9,1.7
			c-0.1,0.1-0.3,0.1-0.5,0.1c-0.2,0-0.4-0.1-0.7-0.1c-2.3,0.7-6,1.2-9.3,1.3L374.2,13.6z M374.6,14.6c1.9,0.8,2.5,1.9,2.5,2.7
			c0,0.7-0.4,1.1-0.9,1.1c-0.2,0-0.5-0.1-0.7-0.4c0.1-1.1-0.5-2.5-1.1-3.3L374.6,14.6z M377.9,14c1.8,0.9,2.4,2,2.4,2.8
			c0,0.7-0.4,1.2-0.9,1.2c-0.2,0-0.5-0.1-0.7-0.4c0.1-1.1-0.4-2.5-1.1-3.4L377.9,14z M385.3,14.6c-0.1,0.2-0.3,0.4-0.8,0.3
			c-0.9,1.5-2,3-3,3.9l-0.3-0.2c0.6-1.1,1.3-3,1.8-4.8L385.3,14.6z M383.6,30.1c3.2-1.6,5.9-3.9,7.8-7.7l2.4,1.2
			c-0.1,0.2-0.2,0.3-0.5,0.3c-0.1,0-0.2,0-0.4,0c-2.4,3.5-5.4,5.4-9.2,6.6L383.6,30.1z M393.2,17.8c-0.1,0.1-0.3,0.2-0.5,0.2
			c-0.1,0-0.2,0-0.3,0c-2.1,2.3-4.7,4-7.6,5l-0.2-0.3c2.4-1.4,4.7-3.5,6.3-6.2L393.2,17.8z M392.6,12.3c-0.1,0.1-0.2,0.2-0.4,0.2
			c-0.1,0-0.2,0-0.4,0c-2,1.8-4.5,3.3-6.9,4.2l-0.2-0.3c2.1-1.3,4.2-3.2,5.8-5.4L392.6,12.3z"/>
	</g>
	<g>
		<path class="st2" d="M401.5,20.9c1.6-0.9,3.6-1.5,5.1-1.5c4.1,0,5.4,2.3,5.4,4.8c0,3-2.6,5.2-6.9,5.2c-2.6,0-4.3-1.2-4.3-2.8
			c0-1.3,1.2-2.5,3.1-2.5c1.9,0,3.8,1.4,3.8,3.1c0,0.2,0,0.3-0.1,0.4c1.5-0.5,2.5-2.1,2.5-3.6c0-2.4-1.2-3.9-3.9-3.9
			c-1.4,0-5.2,0.8-7.4,4.2c-0.3,0.5-0.6,1-1.2,1c-0.5,0-0.8-0.7-0.8-1c0-0.7,0.7-1.3,1.1-1.7c1.7-1.7,6-6,8.5-8.4
			c0.1-0.1,0.2-0.2,0.2-0.3c0-0.1-0.1-0.1-0.2-0.1c-0.3,0-3.6,0.7-4.7,1.2c-0.5,0.3-0.6,0.5-1,0.5c-1,0-1.9-1.1-1.9-2
			c0-0.3,0.1-0.8,0.6-1.1l0.1,0c0,0.7,0.4,1.2,1.2,1.2c1.3,0,4.7-0.5,5.6-0.8c0.4-0.1,0.7-0.6,0.9-0.6c0.9,0,2.1,1.1,2.1,1.6
			c0,0.6-0.7,0.5-1.4,1.1c-2.3,1.7-4.9,4.2-6.5,5.9L401.5,20.9z M405.1,28.1c0.5,0,1,0,1.4-0.1c-0.1-0.1-0.2-0.2-0.2-0.4
			c-0.1-1.3-1.3-2.6-2.7-2.6c-1,0-1.8,0.6-1.8,1.4C401.8,27.9,403.8,28.1,405.1,28.1z"/>
	</g>
</g>
<g>
	<g>
		<path class="st2" d="M163,45.2c-0.3,0.9-0.9,1.4-2.8,1.3c-2,5.2-4.2,10.3-6.7,15l2.7,1c-0.2,0.7-0.9,1.2-2.2,1.3v44.2
			c-0.1,0.4-2.5,1.8-4.8,1.8h-1.1V70.3c-2.7,4-5.8,7.7-8.9,10.7l-1.1-0.7c6-8.5,12.2-23.4,15.9-37.8L163,45.2z M199.6,98.8l7.3,5.3
			c-0.6,1-1.4,1.4-3.5,1.4h-43.5l-0.4-1.7h21.8V79.3h-9.6c-3.4,8.4-8.2,16.4-14.7,22.8l-0.9-0.8c8-11.4,12.5-26.9,15-41.4h-12.1
			l-0.4-1.6h12.8c0.9-5.6,1.4-10.9,1.8-15.8l10.2,1.2c-0.2,1-0.9,1.7-3,1.8c-0.6,4-1.3,8.4-2.2,12.9h17.4l3.9-5.1l7.2,5.2
			c-0.6,1-1.4,1.4-3.5,1.4h-25.4c-1.3,5.8-3,11.9-5.4,17.7h21l3.8-4.9l7.1,5.1c-0.7,1-1.5,1.4-3.5,1.4h-13.4V104h8.4L199.6,98.8z"/>
	</g>
	<g>
		<path class="st2" d="M263.1,60.2l7.7,7.3c-0.9,0.9-2.2,1.2-4,1.2c-4,6.4-10.7,15-16.9,20.5c6.4,3.5,11.2,7.8,11.2,11.8
			c0,2.1-1.4,3.9-3.3,3.9c-1.7,0-2.9-2.3-5.5-5.8c-4.6-5.6-10.8-10.5-21-15.3l0.7-1.2c5.2,1,11.1,3.1,16.2,5.6
			c4.5-6.1,9.5-16.4,11.9-22.8h-21.8c-4.8,9-11.7,17.2-21,24.1l-1.2-0.9c11.3-11.8,19.4-28.3,22.3-41.9l10,3.1
			c-0.5,1.5-2.2,1.7-3.8,1.6c-1.4,3.8-3.5,8.5-5.5,12.2h20.5L263.1,60.2z"/>
	</g>
	<g>
		<path class="st2" d="M350.6,61.6c-0.6,1-1.4,1.4-3.5,1.4h-25.7c6.4,14,18.7,26.2,30.4,31.7l-0.2,0.7c-2.4,0.4-4.6,2.2-5.6,5.1
			c-11.1-7.3-20.5-20.2-25.9-36.7v43.7c0,0.1-0.9,2.2-6,2.2V69.4c-6.6,12.9-17.1,24.2-30.6,32l-0.9-1c12.1-9.4,21.9-23.7,27-37.4
			h-25.2l-0.4-1.7h30V42.4l9,0.8c-0.1,1-0.8,1.6-3,1.8v16.3h18.7l4-5.2L350.6,61.6z"/>
	</g>
	<g>
		<path class="st2" d="M356.3,55.2c7.5,0.1,10,2.9,10,5.3c0,1.7-1.3,3.2-2.9,3.2c-0.7,0-1.3-0.3-2-0.8c-0.7-2.5-3-5.5-5.4-7
			L356.3,55.2z M412.3,105.8l3.8-4.9l7.2,5.1c-0.6,1-1.4,1.4-3.5,1.4h-63.3l-0.4-1.6h30.7v-9.9h-22.1l-0.4-1.6h22.6v-6.9l4.9,0.4
			c-0.2-3.3-1.2-4.4-5.5-4.6v-1h6.2c0.7,0,0.9-0.3,0.9-1.2V70h-15.3l-0.4-1.6h15.7v-6.6h-8.3l-0.4-1.7h15.2l2.7-3.5l5.3,3.8
			c-0.5,0.9-1.4,1.4-3.3,1.4h-5.8v6.6h7.8l3.2-4l6.1,4.3c-0.6,1-1.4,1.4-3.3,1.4h-13.7V81c0,3.6-0.8,6-5.6,6.9l2.3,0.2
			c-0.1,1.1-0.7,1.5-3,1.9v4.3h13.4l3.7-4.8l6.9,4.9c-0.6,1.1-1.4,1.4-3.5,1.4h-20.5v9.9H412.3z M360.4,73.5c0.9,0,1.1,0,1.9-1.3
			c1.4-2.1,1.4-2.1,14.1-24.1l1.3,0.4c-2.7,6.3-9.3,19.4-10.3,22.1c-0.7,1.9-1.2,3.9-1.2,5.3c0,2.2,1.7,4.4,1.7,8.2
			c0,1.1,0,4.7-4.1,4.7c-1.2,0-2.2-0.9-2.5-2.7c0.3-2,0.4-3.8,0.4-5.3c0-4-0.7-5.4-4.8-5.6v-1.6C359.5,73.5,360.4,73.4,360.4,73.5
			L360.4,73.5z M361.5,42.9c7.4,0.8,9.8,3.8,9.8,6.1c0,1.7-1.3,3.2-2.9,3.2c-0.7,0-1.4-0.3-2.1-0.9c-0.6-2.8-2.9-6.1-5.4-7.9
			L361.5,42.9z M370.9,64.4c9.3-4.9,18.1-14.3,21.4-22l8.8,2c-0.3,0.8-0.9,1.2-2.8,1.3c5.7,5.9,15.2,10.9,25,13.4l-0.1,1
			c-2.1,0.7-3.3,2.6-3.7,4.8c-9.2-4.3-17.6-10.6-22.3-18.4c-5.2,7.7-15,14.8-25.7,19L370.9,64.4z M371.3,85.8
			c4.7-3.5,9.4-9,11.6-13.2l6.5,3.4c-0.3,0.5-0.7,0.8-1.6,0.8c-0.3,0-0.7-0.1-1.1-0.1c-3.2,3.6-8.8,7.8-14.7,10.3L371.3,85.8z
			 M403.2,73.6c11.4,2,15,6.9,15,10c0,1.7-1,2.7-2.4,2.7c-0.5,0-1.2-0.1-1.8-0.6c-1.8-4-6.9-8.8-11.3-11.4L403.2,73.6z"/>
	</g>
	<g>
		<path class="st2" d="M464.1,83.5c2,4.1,5,7.5,8.5,10.4c4.2-2.5,9-6.1,11.5-8.7l6.7,4.6c-0.4,0.4-0.7,0.7-1.4,0.7
			c-0.4,0-0.9-0.1-1.4-0.2c-3.3,1.7-8.8,3.6-13.8,4.9c6,4.3,13.6,7.1,21.6,8.7l-0.1,0.9c-2.5,0.4-4.3,2.3-5,5.2
			c-13.3-4.5-23.1-12.2-28.1-25.7c-3.1,2.7-6.9,5.1-11.1,7.2v10.2c6-0.5,12.9-1.2,20-2l0.1,1.2c-6.5,1.9-15.7,4.3-29.2,7.4
			c-0.4,0.9-1.1,1.4-1.8,1.7l-3.8-7.1c2.2-0.1,5.3-0.4,9-0.7v-8.2c-5.5,2.2-11.5,3.8-17.7,5.1l-0.6-1.2c10.6-3.4,20.4-8.6,26.9-14.3
			h-26l-0.4-1.6h30.6v-7.4l8.7,0.7c-0.1,1-0.7,1.4-2.9,1.8v4.8h20.5l3.5-4.7l6.8,4.9c-0.6,0.9-1.4,1.4-3.5,1.4H464.1z M450.9,75.7
			c0,0.1-0.8,1.8-5.6,1.8V64c-2.8,2-6.4,4.6-11.2,7.7c-0.1,0.9-0.7,1.5-1.4,1.8l-4.2-6.3c3.1-0.7,9.8-2.8,16.8-5.1V42.4l8.5,0.7
			c-0.1,1-0.7,1.6-3,1.8V75.7z M432.2,46.6c7.2,2.2,9.5,5.6,9.5,8.1c0,2-1.4,3.5-3.1,3.5c-0.8,0-1.7-0.4-2.5-1.3
			c-0.1-3.3-2.2-7.4-4.6-9.8L432.2,46.6z M453,55.1h16.6V42.4l9,0.8c-0.1,1.1-0.9,1.6-3.2,1.9v10h9.6l3.5-4.6l6.7,4.8
			c-0.5,1.1-1.4,1.4-3.3,1.4h-16.6v15h8.2l3.5-4.7l6.7,4.8c-0.6,1-1.4,1.4-3.4,1.4h-35.4l-0.4-1.6h14.9v-15h-16.2L453,55.1z"/>
	</g>
</g>
<g>
	<g>
		<g>
			<path class="st2" d="M152.8,120.9l1-1.4h0.8l0.1,6H154c-0.5-1.8-1.1-3.2-2.1-4c-0.9-0.9-1.9-1.3-3.1-1.3c-1,0-1.8,0.3-2.4,0.9
				c-0.6,0.6-0.9,1.3-0.9,2.2c0,0.5,0.1,1,0.4,1.4c0.2,0.4,0.6,0.7,1.1,1c0.5,0.2,1.4,0.5,2.7,0.8c1.8,0.4,3.1,0.8,3.9,1.2
				c0.7,0.4,1.3,0.9,1.7,1.5c0.4,0.6,0.5,1.4,0.5,2.2c0,1.5-0.5,2.7-1.5,3.7c-1,1-2.3,1.5-3.9,1.5c-1.7,0-3.2-0.6-4.5-1.7l-1.3,1.5
				h-0.8v-6.4h0.8c0.3,1.8,1,3.2,2.1,4.2c1.1,1,2.3,1.5,3.7,1.5c1.1,0,2-0.3,2.7-1c0.7-0.7,1-1.4,1-2.4c0-0.5-0.1-1-0.4-1.4
				c-0.3-0.4-0.7-0.7-1.2-1c-0.6-0.3-1.7-0.6-3.3-1c-1.8-0.4-3.1-0.9-3.7-1.5c-0.9-0.8-1.4-1.8-1.4-3.2c0-1.5,0.5-2.6,1.4-3.6
				c0.9-0.9,2.1-1.4,3.6-1.4c0.7,0,1.4,0.1,2,0.4C151.5,119.9,152.2,120.3,152.8,120.9z"/>
		</g>
		<g>
			<path class="st2" d="M164.7,119.3h0.7l5.9,15.1c0.2,0.6,0.7,0.9,1.5,0.9h0.5v0.8h-6.6v-0.8h0.5c0.7,0,1.2-0.1,1.5-0.2
				c0.2-0.1,0.3-0.3,0.3-0.5c0-0.1,0-0.3-0.1-0.4l-1.4-3.5H161l-0.8,2c-0.2,0.5-0.3,1-0.3,1.3c0,0.4,0.2,0.7,0.5,0.9
				c0.3,0.3,0.8,0.4,1.5,0.4h0.6v0.8h-6v-0.8c0.6,0,1.1-0.1,1.5-0.4c0.4-0.3,0.7-0.8,1-1.6L164.7,119.3z M164.3,122.4l-3,7.4h5.8
				L164.3,122.4z"/>
		</g>
		<g>
			<path class="st2" d="M183.8,120.9l1-1.4h0.8l0.1,6h-0.7c-0.5-1.8-1.1-3.2-2.1-4c-0.9-0.9-1.9-1.3-3.1-1.3c-1,0-1.8,0.3-2.4,0.9
				c-0.6,0.6-0.9,1.3-0.9,2.2c0,0.5,0.1,1,0.4,1.4c0.2,0.4,0.6,0.7,1.1,1c0.5,0.2,1.4,0.5,2.7,0.8c1.8,0.4,3.1,0.8,3.9,1.2
				c0.7,0.4,1.3,0.9,1.7,1.5c0.4,0.6,0.5,1.4,0.5,2.2c0,1.5-0.5,2.7-1.5,3.7c-1,1-2.3,1.5-3.9,1.5c-1.7,0-3.2-0.6-4.5-1.7l-1.3,1.5
				h-0.8v-6.4h0.8c0.3,1.8,1,3.2,2.1,4.2s2.3,1.5,3.7,1.5c1.1,0,2-0.3,2.7-1c0.7-0.7,1-1.4,1-2.4c0-0.5-0.1-1-0.4-1.4
				c-0.3-0.4-0.7-0.7-1.2-1c-0.6-0.3-1.7-0.6-3.3-1c-1.8-0.4-3.1-0.9-3.7-1.5c-0.9-0.8-1.4-1.8-1.4-3.2c0-1.5,0.5-2.6,1.4-3.6
				c0.9-0.9,2.1-1.4,3.6-1.4c0.7,0,1.4,0.1,2,0.4C182.5,119.9,183.1,120.3,183.8,120.9z"/>
		</g>
		<g>
			<path class="st2" d="M195.6,119.3h0.7l5.9,15.1c0.2,0.6,0.7,0.9,1.5,0.9h0.5v0.8h-6.6v-0.8h0.5c0.7,0,1.2-0.1,1.5-0.2
				c0.2-0.1,0.3-0.3,0.3-0.5c0-0.1,0-0.3-0.1-0.4l-1.4-3.5H192l-0.8,2c-0.2,0.5-0.3,1-0.3,1.3c0,0.4,0.2,0.7,0.5,0.9
				c0.3,0.3,0.8,0.4,1.5,0.4h0.6v0.8h-6v-0.8c0.6,0,1.1-0.1,1.5-0.4c0.4-0.3,0.7-0.8,1-1.6L195.6,119.3z M195.3,122.4l-3,7.4h5.8
				L195.3,122.4z"/>
		</g>
		<g>
			<path class="st2" d="M205.1,119.6h7.6v0.8H211c-0.3,0-0.6,0.1-0.8,0.3c-0.2,0.2-0.3,0.4-0.3,0.7v7.7l6.2-6.7
				c0.4-0.4,0.5-0.8,0.5-1.1c0-0.3-0.1-0.5-0.4-0.6c-0.2-0.2-0.6-0.2-1.2-0.2h-0.5v-0.8h6.8v0.8H221c-0.5,0-1,0.1-1.5,0.4
				c-0.5,0.3-1,0.6-1.5,1.1l-3.8,4l5.5,8.1c0.3,0.5,0.6,0.8,1,1c0.3,0.2,0.7,0.3,1.2,0.3h0.6v0.8h-7.5v-0.8h0.8c0.6,0,1-0.1,1.2-0.2
				c0.2-0.1,0.3-0.2,0.3-0.4c0-0.1,0-0.3-0.1-0.4l-4.6-6.7l-2.6,2.8v4.1c0,0.3,0.1,0.4,0.2,0.6c0.2,0.2,0.5,0.3,0.8,0.3h1.6v0.8
				h-7.6v-0.8h1.5c0.4,0,0.6-0.1,0.8-0.2c0.2-0.2,0.3-0.4,0.3-0.6v-13.2c0-0.3-0.1-0.5-0.3-0.6c-0.2-0.1-0.5-0.2-1-0.2h-1.2V119.6z"
				/>
		</g>
		<g>
			<path class="st2" d="M222.8,119.6h7.6v0.8h-1.3c-0.6,0-0.9,0.1-1.1,0.2c-0.2,0.1-0.2,0.5-0.2,0.9v12.5c0,0.5,0.1,0.8,0.2,0.9
				c0.2,0.2,0.5,0.3,1,0.3h1.5v0.8h-7.6v-0.8h1.4c0.5,0,0.8-0.1,1-0.2c0.1-0.1,0.2-0.5,0.2-1v-12.5c0-0.5-0.1-0.8-0.2-0.9
				c-0.2-0.2-0.6-0.3-1.2-0.3h-1.3V119.6z"/>
		</g>
		<g>
			<path class="st2" d="M238.7,119.6h13.4l0.3,6.3h-0.8c-0.5-3.7-1.8-5.5-4-5.5c-0.4,0-0.7,0.1-0.9,0.2c-0.2,0.1-0.2,0.4-0.2,0.7
				v13.2c0,0.3,0.1,0.5,0.2,0.6c0.2,0.1,0.4,0.2,0.8,0.2h1.7v0.8h-7.7v-0.8h1.9c0.3,0,0.4-0.1,0.6-0.2c0.1-0.1,0.2-0.3,0.2-0.5
				v-13.4c0-0.3-0.1-0.5-0.3-0.6s-0.4-0.2-0.8-0.2c-1.1,0-2,0.5-2.7,1.5c-0.6,0.8-1,2.2-1.3,4h-0.8L238.7,119.6z"/>
		</g>
		<g>
			<path class="st2" d="M261.7,119.3c1.4,0,2.7,0.4,3.9,1.1c1.2,0.7,2.2,1.8,2.9,3.1c0.7,1.3,1,2.8,1,4.4c0,1.6-0.3,3.1-1,4.5
				c-0.7,1.3-1.6,2.4-2.9,3.1c-1.2,0.7-2.5,1.1-3.9,1.1c-1.3,0-2.6-0.4-3.7-1.1c-1.2-0.7-2.1-1.8-2.8-3.1c-0.7-1.4-1.1-2.9-1.1-4.5
				c0-1.6,0.3-3.1,1-4.4c0.7-1.3,1.6-2.3,2.8-3.1C259.2,119.6,260.4,119.3,261.7,119.3z M261.9,120.1c-1.5,0-2.6,0.6-3.5,1.8
				c-0.9,1.2-1.4,3.2-1.4,5.9c0,3,0.5,5,1.4,6.1c0.9,1.1,2.1,1.7,3.4,1.7c1,0,1.8-0.3,2.5-0.8c0.7-0.5,1.3-1.3,1.7-2.4
				c0.4-1.1,0.6-2.6,0.6-4.4c0-2-0.2-3.5-0.6-4.6c-0.4-1.1-1-1.9-1.7-2.5C263.6,120.4,262.8,120.1,261.9,120.1z"/>
		</g>
		<g>
			<path class="st2" d="M281.3,120.9l1-1.4h0.8l0.1,6h-0.7c-0.5-1.8-1.1-3.2-2.1-4c-0.9-0.9-1.9-1.3-3.1-1.3c-1,0-1.8,0.3-2.4,0.9
				c-0.6,0.6-0.9,1.3-0.9,2.2c0,0.5,0.1,1,0.4,1.4c0.2,0.4,0.6,0.7,1.1,1c0.5,0.2,1.4,0.5,2.7,0.8c1.8,0.4,3.1,0.8,3.9,1.2
				c0.7,0.4,1.3,0.9,1.7,1.5c0.4,0.6,0.5,1.4,0.5,2.2c0,1.5-0.5,2.7-1.5,3.7c-1,1-2.3,1.5-3.9,1.5c-1.7,0-3.2-0.6-4.5-1.7l-1.3,1.5
				h-0.8v-6.4h0.8c0.3,1.8,1,3.2,2.1,4.2c1.1,1,2.3,1.5,3.7,1.5c1.1,0,2-0.3,2.7-1c0.7-0.7,1-1.4,1-2.4c0-0.5-0.1-1-0.4-1.4
				c-0.3-0.4-0.7-0.7-1.2-1c-0.6-0.3-1.7-0.6-3.3-1c-1.8-0.4-3.1-0.9-3.7-1.5c-0.9-0.8-1.4-1.8-1.4-3.2c0-1.5,0.5-2.6,1.4-3.6
				c0.9-0.9,2.1-1.4,3.6-1.4c0.7,0,1.4,0.1,2,0.4C280,119.9,280.7,120.3,281.3,120.9z"/>
		</g>
		<g>
			<path class="st2" d="M293.9,119.3c1.4,0,2.7,0.4,3.9,1.1c1.2,0.7,2.2,1.8,2.9,3.1c0.7,1.3,1,2.8,1,4.4c0,1.6-0.3,3.1-1,4.5
				c-0.7,1.3-1.6,2.4-2.9,3.1c-1.2,0.7-2.5,1.1-3.9,1.1c-1.3,0-2.6-0.4-3.7-1.1c-1.2-0.7-2.1-1.8-2.8-3.1c-0.7-1.4-1.1-2.9-1.1-4.5
				c0-1.6,0.3-3.1,1-4.4c0.7-1.3,1.6-2.3,2.8-3.1C291.4,119.6,292.7,119.3,293.9,119.3z M294.1,120.1c-1.5,0-2.6,0.6-3.5,1.8
				c-0.9,1.2-1.4,3.2-1.4,5.9c0,3,0.5,5,1.4,6.1c0.9,1.1,2.1,1.7,3.4,1.7c1,0,1.8-0.3,2.5-0.8c0.7-0.5,1.3-1.3,1.7-2.4
				c0.4-1.1,0.6-2.6,0.6-4.4c0-2-0.2-3.5-0.6-4.6c-0.4-1.1-1-1.9-1.7-2.5C295.9,120.4,295,120.1,294.1,120.1z"/>
		</g>
		<g>
			<path class="st2" d="M303.6,119.6h7.6v0.8h-1.5c-0.4,0-0.7,0.1-0.9,0.2c-0.2,0.1-0.2,0.3-0.2,0.6v9.3c0,1,0.1,1.7,0.3,2.2
				c0.3,0.7,0.7,1.3,1.4,1.8s1.6,0.7,2.6,0.7c1.5,0,2.7-0.4,3.4-1.2c0.8-0.8,1.2-1.8,1.2-3.1v-7.6c0-0.7,0-1.2-0.1-1.5
				c-0.1-0.3-0.2-0.6-0.4-0.8c-0.2-0.2-0.4-0.3-0.7-0.4c-0.3-0.1-0.7-0.1-1.3-0.1v-0.8h6.3v0.8h-0.4c-0.7,0-1.2,0.2-1.6,0.6
				c-0.3,0.4-0.5,0.9-0.5,1.6v8.1c0,1.8-0.5,3.1-1.5,4.1c-1.1,1.1-2.7,1.6-4.6,1.6c-1.6,0-2.9-0.2-3.9-0.7c-0.9-0.5-1.6-1.1-2-2
				c-0.3-0.7-0.5-1.5-0.5-2.5v-10c0-0.3-0.1-0.5-0.3-0.6c-0.2-0.1-0.4-0.2-0.8-0.2h-1.6V119.6z"/>
		</g>
	</g>
	<g>
		<g>
			<path class="st2" d="M335.9,123.8l0.6-1.2h0.5l0.2,5h-0.6c-0.4-1.4-0.8-2.4-1.4-3.1c-0.7-0.8-1.5-1.2-2.5-1.2
				c-1,0-1.9,0.5-2.5,1.4c-0.6,0.9-1,2.5-1,4.7c0,1.8,0.4,3.3,1.1,4.2c0.6,0.8,1.5,1.2,2.7,1.2c1,0,1.8-0.3,2.5-1
				c0.7-0.6,1.1-1.6,1.3-2.9h0.6c-0.2,1.5-0.7,2.6-1.5,3.4c-0.8,0.8-1.9,1.2-3.1,1.2c-1,0-2-0.3-2.8-0.8c-0.9-0.5-1.5-1.3-2.1-2.2
				c-0.5-1-0.8-2-0.8-3.2c0-1.2,0.3-2.4,0.8-3.5c0.5-1.1,1.2-1.9,2-2.4c0.8-0.5,1.7-0.8,2.7-0.8c0.5,0,1,0.1,1.5,0.3
				C334.8,123.1,335.3,123.4,335.9,123.8z"/>
		</g>
		<g>
			<path class="st2" d="M342.6,127.2c1,0,1.9,0.4,2.6,1.1c0.7,0.8,1.1,1.8,1.1,3c0,0.9-0.2,1.6-0.5,2.2c-0.3,0.6-0.8,1.1-1.4,1.4
				c-0.6,0.4-1.2,0.5-1.9,0.5c-1,0-1.9-0.4-2.6-1.1c-0.7-0.8-1.1-1.8-1.1-3c0-1.2,0.4-2.2,1.1-3
				C340.7,127.5,341.6,127.2,342.6,127.2z M342.6,127.7c-0.6,0-1.1,0.3-1.5,0.8c-0.4,0.6-0.6,1.5-0.6,2.7c0,1.2,0.2,2.1,0.6,2.7
				c0.4,0.6,0.9,0.9,1.5,0.9c0.7,0,1.2-0.3,1.6-0.9c0.4-0.6,0.6-1.5,0.6-2.8c0-1.2-0.2-2.1-0.6-2.6
				C343.8,128,343.3,127.7,342.6,127.7z"/>
		</g>
		<g>
			<path class="st2" d="M349.3,133.4c0.3,0,0.5,0.1,0.7,0.3c0.2,0.2,0.3,0.4,0.3,0.7c0,0.3-0.1,0.5-0.3,0.7
				c-0.2,0.2-0.4,0.3-0.7,0.3c-0.3,0-0.5-0.1-0.7-0.3c-0.2-0.2-0.3-0.4-0.3-0.7c0-0.3,0.1-0.5,0.3-0.7
				C348.7,133.5,349,133.4,349.3,133.4z"/>
		</g>
		<g>
			<path class="st2" d="M352,138.1l-0.3-0.4c1.1-0.8,1.6-1.5,1.6-2.1c0-0.1,0-0.2,0-0.2c0,0-0.1-0.1-0.1-0.1l-0.2,0
				c-0.1,0-0.2,0-0.3,0c-0.3,0-0.5-0.1-0.7-0.3c-0.2-0.2-0.3-0.4-0.3-0.7c0-0.3,0.1-0.5,0.3-0.7c0.2-0.2,0.4-0.3,0.7-0.3
				c0.4,0,0.7,0.1,0.9,0.4c0.2,0.3,0.4,0.7,0.4,1.2C354,136,353.4,137.1,352,138.1z"/>
		</g>
		<g>
			<path class="st2" d="M357.9,122.9h5.7v0.6h-1.4c-0.2,0-0.4,0.1-0.5,0.2c-0.1,0.1-0.2,0.3-0.2,0.5v9.7c0,0.2,0.1,0.4,0.2,0.5
				c0.1,0.1,0.4,0.1,0.8,0.1h1.7c0.9,0,1.7-0.3,2.3-0.9c0.6-0.6,1-1.7,1.3-3.2h0.6l-0.3,4.7h-10.3v-0.6h1c0.3,0,0.6-0.1,0.7-0.2
				c0.1-0.1,0.2-0.3,0.2-0.6v-9.6c0-0.2-0.1-0.4-0.2-0.5c-0.1-0.1-0.3-0.2-0.5-0.2h-1.2V122.9z"/>
		</g>
		<g>
			<path class="st2" d="M371.3,124.2h0.6v3.2h2.5v0.8h-2.5v5c0,0.4,0.1,0.8,0.3,1c0.2,0.2,0.5,0.3,0.8,0.3c0.4,0,0.7-0.2,1-0.5
				s0.4-0.9,0.5-1.7h0.6c0,1-0.3,1.8-0.7,2.3c-0.4,0.5-1,0.8-1.7,0.8c-0.6,0-1.1-0.2-1.5-0.5c-0.4-0.4-0.5-0.8-0.5-1.4v-5.2h-1.4
				v-0.6c0.6-0.1,1.1-0.4,1.4-0.8C371,126.2,371.3,125.3,371.3,124.2z"/>
		</g>
		<g>
			<path class="st2" d="M380.3,122.9l3-0.1v10.7c0,0.4,0.1,0.7,0.2,0.9c0.2,0.2,0.4,0.3,0.7,0.3h0.5v0.6h-2.7l-0.2-1.6
				c-0.3,0.6-0.7,1-1.1,1.3c-0.4,0.3-0.9,0.4-1.4,0.4c-0.9,0-1.6-0.4-2.3-1.1c-0.6-0.7-0.9-1.7-0.9-2.9c0-1.3,0.4-2.4,1.2-3.2
				c0.6-0.6,1.3-0.9,2.2-0.9c0.5,0,0.9,0.1,1.3,0.4c0.4,0.2,0.7,0.6,1,1.1v-4.4c0-0.2-0.1-0.4-0.3-0.6c-0.2-0.1-0.5-0.2-0.8-0.2
				h-0.6V122.9z M379.9,127.8c-0.6,0-1.1,0.2-1.4,0.7c-0.4,0.5-0.5,1.3-0.5,2.5c0,1.3,0.2,2.2,0.5,2.7c0.4,0.5,0.8,0.8,1.4,0.8
				c0.6,0,1.1-0.3,1.6-0.9c0.4-0.6,0.6-1.4,0.6-2.5c0-1.1-0.2-1.9-0.7-2.5C380.9,128.1,380.4,127.8,379.9,127.8z"/>
		</g>
		<g>
			<path class="st2" d="M387.5,133.4c0.3,0,0.5,0.1,0.7,0.3c0.2,0.2,0.3,0.4,0.3,0.7c0,0.3-0.1,0.5-0.3,0.7
				c-0.2,0.2-0.4,0.3-0.7,0.3c-0.3,0-0.5-0.1-0.7-0.3c-0.2-0.2-0.3-0.4-0.3-0.7c0-0.3,0.1-0.5,0.3-0.7
				C387,133.5,387.2,133.4,387.5,133.4z"/>
		</g>
	</g>
</g>
<g>
</g>
<g>
</g>
<g>
</g>
<g>
</g>
<g>
</g>
<g>
</g>
</svg>
